<svg xmlns="http://www.w3.org/2000/svg" width="67.466" height="75.541" viewBox="0 0 67.466 75.541">
    <path fill="#f2562d" stroke="rgba(0,0,0,0)" stroke-miterlimit="10" d="M45.908 74.541h-7.647V45.217h-9.276v29.292h-9.188c-3.441 0-6.267 0-8.892-.009a7.007 7.007 0 0 1-7.215-5.549 40.4 40.4 0 0 1-.809-6.03l-.034-.4c-.213-2.544-.39-5.134-.563-7.639v-.005c-.119-1.725-.241-3.509-.374-5.263-.187-2.467-.389-4.972-.584-7.394v-.009c-.2-2.464-.4-5.011-.594-7.517C.434 30.786.2 27.34.009 24.16a3.313 3.313 0 0 1 .759-2.535 3.333 3.333 0 0 1 2.5-.917h4.989c2.983 0 6.009 0 8.936.008h.2c1.478 0 1.481-.06 1.568-1.589v-.072A26.313 26.313 0 0 1 23.119 5.6 11.634 11.634 0 0 1 32.868 0h.365a10.933 10.933 0 0 1 5.884 1.636 14.248 14.248 0 0 1 4.3 4.412A27.948 27.948 0 0 1 47.611 19.7c.056.8.3 1.03 1.069 1.03h2.02c1.057 0 2.121 0 3.151.007h.108c1.009 0 2.052.006 3.08.006 2.279 0 4.03-.016 5.68-.052h.21a3.691 3.691 0 0 1 2.818.894 3.785 3.785 0 0 1 .7 2.974l-.109 1.54v.001c-.274 3.866-.557 7.863-.83 11.8-.081 1.164-.158 2.341-.232 3.479-.1 1.508-.2 3.067-.312 4.6-.119 1.626-.251 3.278-.378 4.875-.1 1.251-.2 2.542-.3 3.813-.163 2.168-.325 4.37-.481 6.5l-.355 4.823a10.816 10.816 0 0 1-1.65 5.138 7.13 7.13 0 0 1-6.3 3.395c-2.867.012-6.006.018-9.592.018zM28.985 32.464v9.275h9.275v-9.275h-9.275zM33.24 3.48a8.491 8.491 0 0 0-6.826 3.583c-2.372 3.2-3.584 7.055-3.929 12.483-.036.564-.038.846.1 1s.453.163.982.164h15.022c1.744 0 3.156 0 4.444-.005.522 0 .778-.062.913-.216.155-.177.149-.491.089-.939-.039-.291-.074-.588-.108-.875-.071-.6-.145-1.221-.257-1.824a23.166 23.166 0 0 0-3.665-9.7A8.3 8.3 0 0 0 33.24 3.48z" transform="translate(.501 .501)"/>
</svg>
