<svg xmlns="http://www.w3.org/2000/svg" id="Group_288" width="80.185" height="68.106" viewBox="0 0 80.185 68.106">
    <defs>
        <style>
            .cls-1{fill:#0c9dbf}
        </style>
    </defs>
    <path id="Rectangle_15" d="M0 0H14.28V15.962H0z" class="cls-1" transform="translate(32.988 52.144)"/>
    <path id="Path_344" d="M1409.517 566.134h11.646a3.422 3.422 0 0 0 3.517-3.317v-30.849a14.186 14.186 0 0 1-7.074-4.426 14.584 14.584 0 0 1-21.9 0 14.587 14.587 0 0 1-21.9 0 14.191 14.191 0 0 1-7.072 4.426v31.4a2.85 2.85 0 0 0 2.93 2.764h12.236c0-.069-.022-.134-.022-.205V548.7a4.569 4.569 0 0 1 4.7-4.429h18.272a4.569 4.569 0 0 1 4.7 4.429v17.233c-.011.067-.03.132-.033.201z" class="cls-1" transform="translate(-1355.581 -498.029)"/>
    <path id="Path_345" d="M1439.365 528.2l-8.734-18.123a4.551 4.551 0 0 0-4.117-2.524h-54.333a4.735 4.735 0 0 0-4.266 2.6l-8.735 17.789a2.762 2.762 0 0 1 .128.762 7.35 7.35 0 0 0 4.671 6.854c5.427 2.017 10.592-1.73 10.709-6.649a3.084 3.084 0 0 1 6.155-.329 7.744 7.744 0 0 0 5.635 7.277 7.656 7.656 0 0 0 9.75-6.944 3.084 3.084 0 0 1 6.155-.332 7.74 7.74 0 0 0 5.635 7.277 7.656 7.656 0 0 0 9.748-6.944 3.1 3.1 0 0 1 2.148-2.994 3.057 3.057 0 0 1 4 3.044 6.29 6.29 0 0 0 2.012 5.123c6.331 4.73 13.379.466 13.379-5.346a2.821 2.821 0 0 1 .06-.541z" class="cls-1" transform="translate(-1359.18 -507.551)"/>
</svg>
