<svg xmlns="http://www.w3.org/2000/svg" xmlns:xlink="http://www.w3.org/1999/xlink" width="76" height="55.408" viewBox="0 0 76 55.408">
    <defs>
        <linearGradient id="linear-gradient" x1=".52" x2=".623" y1=".537" y2=".071" gradientUnits="objectBoundingBox">
            <stop offset="0" stop-color="#46b0cc"/>
            <stop offset="1" stop-color="#78e0ab"/>
        </linearGradient>
        <linearGradient id="linear-gradient-2" x1=".326" x2=".869" y1=".515" y2="-.056" xlink:href="#linear-gradient"/>
        <linearGradient id="linear-gradient-3" x1=".543" x2=".417" y1=".719" y2=".078" xlink:href="#linear-gradient"/>
        <linearGradient id="linear-gradient-4" x1=".373" x2="1.06" y1=".496" y2=".467" xlink:href="#linear-gradient"/>
        <linearGradient id="linear-gradient-5" x1=".443" x2=".548" y1=".867" y2=".441" gradientUnits="objectBoundingBox">
            <stop offset="0" stop-color="#46c7dc"/>
            <stop offset="1" stop-color="#78e0ab"/>
        </linearGradient>
        <linearGradient id="linear-gradient-6" x1=".396" x2=".554" y1=".704" y2=".07" xlink:href="#linear-gradient-5"/>
        <linearGradient id="linear-gradient-7" x1=".481" x2=".511" y1=".888" y2=".058" xlink:href="#linear-gradient-5"/>
        <linearGradient id="linear-gradient-8" x1="-2.399" x2="-2.296" y1=".537" y2=".071" xlink:href="#linear-gradient"/>
        <linearGradient id="linear-gradient-9" x1=".15" x2=".693" y1=".515" y2="-.056" xlink:href="#linear-gradient"/>
        <linearGradient id="linear-gradient-10" x1="-.324" x2="-.45" y1=".719" y2=".078" xlink:href="#linear-gradient"/>
        <linearGradient id="linear-gradient-11" x1="-2.001" x2="-1.315" y1=".496" y2=".467" xlink:href="#linear-gradient"/>
        <linearGradient id="linear-gradient-12" x1="-1.255" x2="-1.151" y1=".867" y2=".441" xlink:href="#linear-gradient-5"/>
        <linearGradient id="linear-gradient-13" x1="-.637" x2="-.478" y1=".704" y2=".07" xlink:href="#linear-gradient-5"/>
        <linearGradient id="linear-gradient-14" x1="-.531" x2="-.5" y1=".888" y2=".058" xlink:href="#linear-gradient-5"/>
        <linearGradient id="linear-gradient-15" x1=".5" x2=".5" y1=".985" y2=".097" gradientUnits="objectBoundingBox">
            <stop offset="0" stop-color="#2a3965"/>
            <stop offset="1" stop-color="#274a77"/>
        </linearGradient>
        <linearGradient id="linear-gradient-16" x1=".5" x2=".5" y1=".866" y2=".098" gradientUnits="objectBoundingBox">
            <stop offset="0" stop-color="#2a427e"/>
            <stop offset="1" stop-color="#315293"/>
        </linearGradient>
        <linearGradient id="linear-gradient-17" x1=".5" x2=".5" y1=".114" y2=".743" gradientUnits="objectBoundingBox">
            <stop offset="0" stop-color="#806efb"/>
            <stop offset="1" stop-color="#ad7bf2"/>
        </linearGradient>
        <linearGradient id="linear-gradient-18" x1=".5" x2=".5" y1=".019" y2="1.069" gradientUnits="objectBoundingBox">
            <stop offset="0" stop-color="#16b5f5"/>
            <stop offset="1" stop-color="#42c9fe"/>
        </linearGradient>
        <linearGradient id="linear-gradient-19" x1=".5" x2=".5" y1=".069" y2="1.074" xlink:href="#linear-gradient-17"/>
        <linearGradient id="linear-gradient-21" x1=".661" x2=".345" y1=".074" y2=".911" xlink:href="#linear-gradient-17"/>
        <linearGradient id="linear-gradient-22" x1="1.267" x2=".836" y1="-1.102" y2="-.202" xlink:href="#linear-gradient-18"/>
        <linearGradient id="linear-gradient-23" x1=".699" x2=".317" y1=".022" y2=".939" xlink:href="#linear-gradient-17"/>
        <linearGradient id="linear-gradient-24" x1=".66" x2=".229" y1=".167" y2="1.067" xlink:href="#linear-gradient-18"/>
        <linearGradient id="linear-gradient-25" x1=".5" x2=".5" y1=".987" y2=".015" gradientUnits="objectBoundingBox">
            <stop offset="0" stop-color="#3b518d"/>
            <stop offset="1" stop-color="#4a67ad"/>
        </linearGradient>
        <linearGradient id="linear-gradient-26" x1=".5" x2=".5" y1="1.018" y2=".147" xlink:href="#linear-gradient-25"/>
        <linearGradient id="linear-gradient-27" x1=".539" x2=".451" y1=".767" y2=".094" xlink:href="#linear-gradient-18"/>
        <linearGradient id="linear-gradient-28" x1=".535" x2=".216" y1=".834" y2="-.221" gradientUnits="objectBoundingBox">
            <stop offset="0" stop-color="#fa792f"/>
            <stop offset="1" stop-color="#ffd140"/>
        </linearGradient>
        <linearGradient id="linear-gradient-29" x1=".588" x2=".37" y1=".823" y2="-.109" gradientUnits="objectBoundingBox">
            <stop offset="0" stop-color="#faa92f"/>
            <stop offset="1" stop-color="#ffd140"/>
        </linearGradient>
        <linearGradient id="linear-gradient-30" x1=".591" x2=".345" y1=".836" y2="-.085" gradientUnits="objectBoundingBox">
            <stop offset="0" stop-color="#6551fb"/>
            <stop offset="1" stop-color="#ad7bf2"/>
        </linearGradient>
        <linearGradient id="linear-gradient-31" x1=".623" x2=".305" y1=".799" y2="-.013" xlink:href="#linear-gradient-17"/>
        <linearGradient id="linear-gradient-32" x2="1" y1=".5" y2=".5" gradientUnits="objectBoundingBox">
            <stop offset="0" stop-color="#3e0b59"/>
            <stop offset="1" stop-color="#501977"/>
        </linearGradient>
        <linearGradient id="linear-gradient-33" x1=".665" x2=".293" y1="-.01" y2=".938" gradientUnits="objectBoundingBox">
            <stop offset="0" stop-color="#2a3965"/>
            <stop offset="1" stop-color="#2a55b6"/>
        </linearGradient>
        <linearGradient id="linear-gradient-34" x1=".572" x2=".779" y1=".397" y2=".334" xlink:href="#linear-gradient-18"/>
        <linearGradient id="linear-gradient-35" x1=".566" x2=".4" y1=".919" y2=".209" xlink:href="#linear-gradient-17"/>
        <linearGradient id="linear-gradient-36" x1=".496" x2=".632" y1=".892" y2=".274" xlink:href="#linear-gradient-18"/>
        <linearGradient id="linear-gradient-37" x1=".665" x2=".429" y1=".889" y2=".273" xlink:href="#linear-gradient-18"/>
        <linearGradient id="linear-gradient-38" x1=".007" x2=".759" y1=".791" y2=".318" xlink:href="#linear-gradient-18"/>
        <style>
            .cls-3{fill:#40adad}.cls-7{fill:#3c9997}.cls-20{fill:#caf5f5}.cls-21{fill:#97abb7}.cls-23{fill:url(#linear-gradient-18)}.cls-29{fill:#284370}.cls-32{fill:#f2f6f7}.cls-33,.cls-34{fill:#de9fff;opacity:.71}.cls-34{fill:#f4c0ff}.cls-43{fill:#788c9b}.cls-44{fill:#42494c}.cls-45{fill:#9eafb5}.cls-47{fill:#fdb4b2}.cls-49{fill:#f4a4a4}.cls-50{fill:#3d4096}.cls-51{fill:#d4d7ff}.cls-59{fill:#79d6f2}
        </style>
    </defs>
    <g id="Group_2960" transform="translate(-313.484 -119.008)">
        <path id="Path_8645" fill="#ef5c25" d="M318.341 174.071s-9.357-12.188-2.095-25.973 17.646-4.846 26.769-18.533 25.207-12.062 33.922-6.336 18.021 31.942 6.806 50.842z"/>
        <g id="Group_2923" transform="translate(335.808 144.689)">
            <g id="Group_2915" transform="translate(35.459)">
                <g id="Group_2909" transform="translate(.833)">
                    <path id="Path_8646" fill="url(#linear-gradient)" d="M599.366 241.6s-.865 1.35.087 5.351l-.755 1.69.923-.98c.828 4.114-2.721 6.972-2.721 6.972l-3.3-.892a11.331 11.331 0 0 1 .719-7.331c.145-.27.3-.528.459-.773l.358.88.352-1.836a12.311 12.311 0 0 1 3.878-3.081z" transform="translate(-593.29 -241.596)"/>
                    <path id="Path_8647" d="M602.509 260.7a.081.081 0 0 1-.134-.089 16.08 16.08 0 0 0 1.695-6.461c.162-3.725.942-4.762.976-4.8a.081.081 0 0 1 .127.1c-.008.01-.783 1.055-.942 4.713a16.251 16.251 0 0 1-1.715 6.533z" class="cls-3" transform="translate(-600.464 -247.696)"/>
                </g>
                <g id="Group_2910" transform="translate(6.543 12.441)">
                    <path id="Path_8648" fill="url(#linear-gradient-2)" d="M632.945 301.42a17.606 17.606 0 0 0-4.214 5.835c-.019.045-.04.089-.06.132a5.307 5.307 0 0 1-1.913.933 10.437 10.437 0 0 0 1.559-.245c-1.64 2.871-4.206 3.194-6.855 3.27l.821-7.378a12.208 12.208 0 0 1 4.545-2.518c-.073.3-.139.628-.2.955a7.151 7.151 0 0 1 1.12-1.189 10.5 10.5 0 0 1 5.197.205z" transform="translate(-621.271 -300.982)"/>
                    <path id="Path_8649" d="M620.62 313.384a.081.081 0 0 1 0-.161 7.727 7.727 0 0 0 4.675-3.027 8.622 8.622 0 0 1 4.772-3.225.081.081 0 0 1 .025.16 8.465 8.465 0 0 0-4.672 3.168 7.886 7.886 0 0 1-4.785 3.086z" class="cls-3" transform="translate(-620.546 -305.715)"/>
                </g>
                <g id="Group_2911" transform="translate(4.272 3.114)">
                    <path id="Path_8650" fill="url(#linear-gradient-3)" d="M619.658 256.473a14.015 14.015 0 0 0-1.787 4.61 4.319 4.319 0 0 1-.888.73 6.742 6.742 0 0 0 .77-.148q-.039.194-.073.4c-.605 3.612-1.533 6.553-5.609 7.323h-2.26l.484-6.7a13.075 13.075 0 0 1 3.346-4.2 4.691 4.691 0 0 0 .315 1.283 5.839 5.839 0 0 1 .144-1.633 8.5 8.5 0 0 1 5.558-1.665z" transform="translate(-609.79 -256.458)"/>
                    <path id="Path_8651" d="M609.786 274.052a.081.081 0 0 1-.037-.153 10.087 10.087 0 0 0 4.341-5.616c1.369-4.115 3.743-4.971 3.843-5.005a.081.081 0 0 1 .053.153c-.024.008-2.4.871-3.743 4.9a10.251 10.251 0 0 1-4.421 5.709.079.079 0 0 1-.036.012z" class="cls-3" transform="translate(-609.705 -261.845)"/>
                </g>
                <g id="Group_2912" transform="translate(1.661 6.646)">
                    <path id="Path_8652" fill="url(#linear-gradient-4)" d="M606.442 277.027c-.744.184-1.046.791-1.3 2.2a6.492 6.492 0 0 1-1.038.854 3.571 3.571 0 0 0 .934-.228c-.124.815-.252 1.843-.431 3.13-.584 4.221-4.861 3.859-4.861 3.859v-9.264a6.225 6.225 0 0 1 3.289-3.146z" transform="translate(-599.219 -274.2)"/>
                    <path id="Path_8653" d="M597.32 289.623a.081.081 0 0 1-.042-.15 7.219 7.219 0 0 0 3.11-4.3 8.566 8.566 0 0 1 1.593-4.015.081.081 0 0 1 .121.107 8.585 8.585 0 0 0-1.555 3.936 7.39 7.39 0 0 1-3.185 4.413.079.079 0 0 1-.042.009z" class="cls-7" transform="translate(-597.239 -279.492)"/>
                    <path id="Path_8654" fill="url(#linear-gradient-5)" d="M615.929 277.277a5.154 5.154 0 0 1-3.833-1.412c-1.977-1.695-3.107-1.453-3.107-1.453a3.691 3.691 0 0 1 3.753-.887c2.622.927 1.896 3.106 3.187 3.752z" transform="translate(-606.528 -273.32)"/>
                </g>
                <g id="Group_2913" transform="translate(.813 14.884)">
                    <path id="Path_8655" fill="url(#linear-gradient-6)" d="M605.663 313.19a9.976 9.976 0 0 0-2.687 3.118l-1.711 1.23 1.036-.118c-.318.554-.652 1.178-1 1.877-2.461 5-8.11 3.874-8.11 3.874v-4.963c.76-.326 1.719-1.6 2.907-2.826l.625-.617a7.213 7.213 0 0 1 2.965-1.824c.257-.068.515-.123.77-.165l-.591 1.01 1.816-1.136a12.05 12.05 0 0 1 3.98.54z" transform="translate(-593.195 -312.643)"/>
                    <path id="Path_8656" d="M593.661 325.147a.081.081 0 0 1 0-.161c.027 0 2.71-.206 5.789-3.725 3.141-3.591 4.479-3.15 4.534-3.13a.081.081 0 0 1-.055.152c-.017-.006-1.318-.391-4.357 3.084-3.127 3.575-5.873 3.779-5.9 3.78z" class="cls-3" transform="translate(-593.5 -316.96)"/>
                </g>
                <g id="Group_2914" transform="translate(0 22.305)">
                    <path id="Path_8657" fill="url(#linear-gradient-7)" d="M602.719 350.1s-1.6-.09-4.617 2.705l-1.843.173 1.307.323c-3.177 2.742-7.41 1.056-7.41 1.056l-.844-3.312a11.329 11.329 0 0 1 6.738-2.976c.307-.007.607 0 .9.019l-.591.744 1.772-.6a12.31 12.31 0 0 1 4.588 1.868z" transform="translate(-589.312 -348.07)"/>
                    <path id="Path_8658" d="M589.54 358.769a.081.081 0 0 1 .012-.16 16.081 16.081 0 0 0 6.46-1.7c3.324-1.69 4.611-1.519 4.664-1.511a.081.081 0 0 1-.024.159c-.013 0-1.3-.163-4.567 1.5a16.246 16.246 0 0 1-6.532 1.716z" class="cls-3" transform="translate(-589.438 -353.857)"/>
                </g>
            </g>
            <g id="Group_2922">
                <g id="Group_2916" transform="translate(10.927)">
                    <path id="Path_8659" fill="url(#linear-gradient-8)" d="M472.588 241.6s.865 1.35-.087 5.351l.755 1.69-.923-.98c-.828 4.114 2.721 6.972 2.721 6.972l3.3-.892a11.329 11.329 0 0 0-.719-7.331c-.145-.27-.3-.528-.459-.773l-.358.88-.352-1.836a12.313 12.313 0 0 0-3.878-3.081z" transform="translate(-472.208 -241.596)"/>
                    <path id="Path_8660" d="M483.153 260.7a.081.081 0 0 0 .134-.089 16.078 16.078 0 0 1-1.695-6.461c-.162-3.725-.943-4.762-.976-4.8a.081.081 0 0 0-.127.1c.008.01.783 1.055.942 4.713a16.251 16.251 0 0 0 1.715 6.533z" class="cls-3" transform="translate(-478.741 -247.696)"/>
                </g>
                <g id="Group_2917" transform="translate(0 12.441)">
                    <path id="Path_8661" fill="url(#linear-gradient-9)" d="M420.047 301.42a17.6 17.6 0 0 1 4.214 5.835c.019.045.04.089.06.132a5.309 5.309 0 0 0 1.913.933 10.44 10.44 0 0 1-1.559-.245c1.64 2.871 4.206 3.194 6.855 3.27l-.822-7.378a12.208 12.208 0 0 0-4.545-2.518c.073.3.139.628.205.955a7.156 7.156 0 0 0-1.12-1.189 10.5 10.5 0 0 0-5.201.205z" transform="translate(-420.047 -300.982)"/>
                    <path id="Path_8662" d="M439.422 313.384a.081.081 0 0 0 0-.161 7.727 7.727 0 0 1-4.676-3.027 8.621 8.621 0 0 0-4.772-3.225.081.081 0 1 0-.025.16 8.465 8.465 0 0 1 4.672 3.168 7.886 7.886 0 0 0 4.786 3.086z" class="cls-3" transform="translate(-427.821 -305.715)"/>
                </g>
                <g id="Group_2918" transform="translate(4.077 3.114)">
                    <path id="Path_8663" fill="url(#linear-gradient-10)" d="M439.509 256.473a14.013 14.013 0 0 1 1.787 4.61 4.315 4.315 0 0 0 .888.73 6.739 6.739 0 0 1-.77-.148q.039.194.072.4c.605 3.612 1.533 6.553 5.609 7.323h2.26l-.484-6.7a13.078 13.078 0 0 0-3.346-4.2 4.684 4.684 0 0 1-.315 1.283 5.839 5.839 0 0 0-.144-1.633 8.5 8.5 0 0 0-5.557-1.665z" transform="translate(-439.509 -256.458)"/>
                    <path id="Path_8664" d="M455.082 274.052a.081.081 0 0 0 .037-.153 10.085 10.085 0 0 1-4.341-5.616c-1.369-4.115-3.743-4.971-3.843-5.005a.081.081 0 1 0-.052.153c.024.008 2.4.871 3.742 4.9a10.252 10.252 0 0 0 4.421 5.709.08.08 0 0 0 .036.012z" class="cls-3" transform="translate(-445.295 -261.845)"/>
                </g>
                <g id="Group_2919" transform="translate(7.155 6.646)">
                    <path id="Path_8665" fill="url(#linear-gradient-11)" d="M464.6 277.027c.744.184 1.046.791 1.3 2.2a6.468 6.468 0 0 0 1.038.854 3.57 3.57 0 0 1-.935-.228c.124.815.252 1.843.431 3.13.584 4.221 4.861 3.859 4.861 3.859v-9.264a6.225 6.225 0 0 0-3.289-3.146z" transform="translate(-462.424 -274.2)"/>
                    <path id="Path_8666" d="M480.576 289.623a.081.081 0 0 0 .042-.15 7.219 7.219 0 0 1-3.11-4.3 8.562 8.562 0 0 0-1.593-4.015.081.081 0 0 0-.121.107 8.589 8.589 0 0 1 1.555 3.936 7.391 7.391 0 0 0 3.185 4.413.08.08 0 0 0 .042.009z" class="cls-7" transform="translate(-471.255 -279.492)"/>
                    <path id="Path_8667" fill="url(#linear-gradient-12)" d="M454.2 277.277a5.154 5.154 0 0 0 3.833-1.412c1.977-1.695 3.107-1.453 3.107-1.453a3.69 3.69 0 0 0-3.753-.887c-2.62.927-1.894 3.106-3.187 3.752z" transform="translate(-454.202 -273.32)"/>
                </g>
                <g id="Group_2920" transform="translate(4.936 14.884)">
                    <path id="Path_8668" fill="url(#linear-gradient-13)" d="M443.608 313.19a9.973 9.973 0 0 1 2.687 3.118l1.711 1.23-1.036-.118c.318.554.652 1.178 1 1.877 2.461 5 8.111 3.874 8.111 3.874v-4.963c-.76-.326-1.719-1.6-2.907-2.826l-.625-.617a7.213 7.213 0 0 0-2.965-1.824c-.257-.068-.515-.123-.77-.165l.591 1.01-1.816-1.136a12.05 12.05 0 0 0-3.981.54z" transform="translate(-443.608 -312.643)"/>
                    <path id="Path_8669" d="M463.224 325.147a.081.081 0 0 0 .005-.161c-.027 0-2.71-.206-5.789-3.725-3.141-3.591-4.479-3.15-4.534-3.13a.081.081 0 0 0 .055.152c.017-.006 1.318-.391 4.357 3.084 3.127 3.575 5.873 3.779 5.9 3.78z" class="cls-3" transform="translate(-450.917 -316.96)"/>
                </g>
                <g id="Group_2921" transform="translate(4.81 22.305)">
                    <path id="Path_8670" fill="url(#linear-gradient-14)" d="M443.007 350.1s1.6-.09 4.618 2.705l1.843.173-1.307.323c3.176 2.742 7.41 1.056 7.41 1.056l.844-3.312a11.33 11.33 0 0 0-6.739-2.976c-.307-.007-.607 0-.9.019l.591.744-1.772-.6a12.31 12.31 0 0 0-4.588 1.868z" transform="translate(-443.007 -348.07)"/>
                    <path id="Path_8671" d="M464.24 358.769a.081.081 0 0 0-.012-.16 16.082 16.082 0 0 1-6.46-1.7c-3.324-1.69-4.611-1.519-4.664-1.511a.081.081 0 0 0 .024.159c.013 0 1.3-.163 4.567 1.5a16.247 16.247 0 0 0 6.532 1.716z" class="cls-3" transform="translate(-450.935 -353.857)"/>
                </g>
            </g>
        </g>
        <g id="Group_2935" transform="translate(343.583 123.229)">
            <path id="Path_8672" fill="url(#linear-gradient-15)" d="M507.537 143.451v41.82a4.293 4.293 0 0 1-4.292 4.294H484.7a4.293 4.293 0 0 1-4.294-4.294v-41.82a4.292 4.292 0 0 1 4.294-4.292h18.541a4.291 4.291 0 0 1 4.296 4.292z" transform="translate(-475.54 -139.159)"/>
            <path id="Path_8673" fill="url(#linear-gradient-16)" d="M505.278 143.451v41.82a4.293 4.293 0 0 1-4.292 4.294H484.7a4.293 4.293 0 0 1-4.294-4.294v-41.82a4.292 4.292 0 0 1 4.294-4.292h16.282a4.291 4.291 0 0 1 4.296 4.292z" transform="translate(-475.54 -139.159)"/>
            <path id="Rectangle_1987" d="M0 0h22.17v31.064a8.823 8.823 0 0 1-8.823 8.823H8.823A8.823 8.823 0 0 1 0 31.064V0z" class="cls-20" transform="translate(6.219 5.636)"/>
            <g id="Group_2927" transform="translate(0 4.578)">
                <path id="Path_8674" d="M577.109 182.08l-5.833-2.432v-.748l5.833 2.432z" class="cls-21" transform="translate(-547.37 -175.155)"/>
                <g id="Group_2926">
                    <g id="Group_2924" transform="translate(0 4.637)">
                        <path id="Path_8675" fill="url(#linear-gradient-17)" d="M460.367 185.935h-.418a2.788 2.788 0 0 1-2.788-2.788h5.994a2.788 2.788 0 0 1-2.788 2.788z" transform="translate(-457.161 -183.147)"/>
                        <path id="Path_8676" d="M488.869 185.935h-.418a2.788 2.788 0 0 1-2.788-2.788h5.994a2.788 2.788 0 0 1-2.788 2.788z" class="cls-23" transform="translate(-479.692 -183.147)"/>
                        <path id="Path_8677" fill="url(#linear-gradient-19)" d="M517.37 185.935h-.418a2.788 2.788 0 0 1-2.788-2.788h5.994a2.788 2.788 0 0 1-2.788 2.788z" transform="translate(-502.223 -183.147)"/>
                        <path id="Path_8678" d="M545.871 185.935h-.418a2.788 2.788 0 0 1-2.788-2.788h5.994a2.788 2.788 0 0 1-2.788 2.788z" class="cls-23" transform="translate(-524.753 -183.147)"/>
                    </g>
                    <g id="Group_2925">
                        <path id="Path_8679" fill="url(#linear-gradient-21)" d="M462.678 161.011h5.971l-5.517 4.637h-5.971z" transform="translate(-457.161 -161.011)"/>
                        <path id="Path_8680" fill="url(#linear-gradient-22)" d="M491.179 161.011h5.971l-5.517 4.637h-5.971z" transform="translate(-479.692 -161.011)"/>
                        <path id="Path_8681" fill="url(#linear-gradient-23)" d="M519.681 161.011h5.971l-5.517 4.637h-5.971z" transform="translate(-502.222 -161.011)"/>
                        <path id="Path_8682" fill="url(#linear-gradient-24)" d="M548.182 161.011h5.971l-5.517 4.637h-5.971z" transform="translate(-524.753 -161.011)"/>
                    </g>
                </g>
            </g>
            <rect id="Rectangle_1988" width="10.515" height=".644" class="cls-29" rx=".322" transform="translate(10.138 2.46)"/>
            <path id="Path_8683" d="M560.262 150.5a.515.515 0 1 1-.515-.515.515.515 0 0 1 .515.515z" class="cls-29" transform="translate(-537.849 -147.714)"/>
            <rect id="Rectangle_1989" width=".744" height="6.152" fill="url(#linear-gradient-25)" rx=".372" transform="translate(30.596 7.533)"/>
            <rect id="Rectangle_1990" width=".744" height="2.91" fill="url(#linear-gradient-26)" rx=".372" transform="translate(30.596 15.344)"/>
            <g id="Group_2934" transform="translate(7.343 13.333)">
                <g id="Group_2928">
                    <rect id="Rectangle_1991" width="9.11" height="12.582" class="cls-32" rx="4.349"/>
                    <path id="Path_8684" d="M501.419 219.537a2.5 2.5 0 0 0 1.44-.3 6.255 6.255 0 0 0-1.042-2.5 1.363 1.363 0 0 0-1.387-.4.812.812 0 0 1-.414.445 1.044 1.044 0 0 1-.883.013 1 1 0 0 1-.568-.528 1.916 1.916 0 0 0-1.4.6 5.645 5.645 0 0 0-.957 2.466 6.912 6.912 0 0 0 1.474.194l-.384 4.137a16.492 16.492 0 0 0 2.231.258h.043a16.5 16.5 0 0 0 2.231-.258z" class="cls-33" transform="translate(-495.372 -213.453)"/>
                </g>
                <g id="Group_2929" transform="translate(10.47)">
                    <rect id="Rectangle_1992" width="9.11" height="12.582" class="cls-32" rx="4.349"/>
                    <path id="Path_8685" d="M554.511 219.537a2.5 2.5 0 0 0 1.44-.3 6.255 6.255 0 0 0-1.042-2.5 1.363 1.363 0 0 0-1.387-.4.812.812 0 0 1-.414.445 1.044 1.044 0 0 1-.883.013 1 1 0 0 1-.568-.528 1.917 1.917 0 0 0-1.4.6 5.646 5.646 0 0 0-.957 2.466 6.912 6.912 0 0 0 1.474.194l-.384 4.137a16.493 16.493 0 0 0 2.231.258h.043a16.5 16.5 0 0 0 2.231-.258z" class="cls-33" transform="translate(-547.811 -213.453)"/>
                </g>
                <g id="Group_2931" transform="translate(10.47 13.77)">
                    <rect id="Rectangle_1993" width="9.11" height="12.582" class="cls-32" rx="4.349"/>
                    <g id="Group_2930" transform="translate(1.046 3.962)">
                        <path id="Path_8686" d="M548.3 290l-1.12 3.867 2.772.256.627-2.516.946 2.516 2.673-.236-1.235-3.887z" class="cls-33" transform="translate(-547.183 -289.469)"/>
                        <path id="Rectangle_1994" d="M0 0H4.619V0.536H0z" class="cls-34" transform="translate(1.12)"/>
                    </g>
                </g>
                <g id="Group_2933" transform="translate(0 13.77)">
                    <rect id="Rectangle_1995" width="9.11" height="12.582" class="cls-32" rx="4.349"/>
                    <g id="Group_2932" transform="translate(1.046 3.962)">
                        <path id="Path_8687" d="M498.327 290l-1.12 3.867 2.772.256.627-2.516.946 2.516 2.673-.236-1.239-3.887z" class="cls-33" transform="translate(-497.207 -289.469)"/>
                        <path id="Rectangle_1996" d="M0 0H4.619V0.536H0z" class="cls-34" transform="translate(1.12)"/>
                    </g>
                </g>
            </g>
            <rect id="Rectangle_1997" width="11.113" height="2.21" fill="#9bd9dd" rx="1.105" transform="translate(10.996 41.689)"/>
            <circle id="Ellipse_1074" cx="1.19" cy="1.19" r="1.19" fill="#213654" transform="translate(15.363 46.834)"/>
        </g>
        <g id="Group_2959" transform="translate(319.2 133.847)">
            <g id="Group_2945" transform="translate(14.654 16.574)">
                <g id="Group_2939" transform="translate(3.403 6.659)">
                    <g id="Group_2936" transform="translate(1.593 3.26)">
                        <path id="Path_8688" fill="url(#linear-gradient-27)" d="M442.9 320.9l-2.326.53-3.1.7s-.711-.1-1.184-1.222-1.723-3.719-1.723-3.719l4.281-.524 2.907-.355z" transform="translate(-434.573 -316.312)"/>
                        <path id="Path_8689" fill="#24a6ce" d="M459.056 320.9l-2.326.531-1.721-4.761 2.907-.355z" transform="translate(-450.728 -316.312)" style="mix-blend-mode:multiply;isolation:isolate" opacity="0.65"/>
                    </g>
                    <g id="Group_2937" transform="translate(10.089 1.079)">
                        <path id="Path_8690" fill="url(#linear-gradient-28)" d="M475.487 312.977l-.36-6.13 1.473-.385 1 5.984z" transform="translate(-475.127 -306.345)"/>
                        <path id="Path_8691" fill="url(#linear-gradient-29)" d="M482.161 306.02l2.623-.117 1.371 5.333-1 .431-1.99.338z" transform="translate(-480.687 -305.902)"/>
                    </g>
                    <g id="Group_2938">
                        <path id="Path_8692" fill="url(#linear-gradient-30)" d="M426.967 301.72l3.211-.309 1.389 3.656-3.007.346z" transform="translate(-426.967 -301.273)"/>
                        <path id="Path_8693" fill="url(#linear-gradient-31)" d="M442.295 300.89l1.818-.138 1.417 3.545-1.846.249" transform="translate(-439.084 -300.751)"/>
                    </g>
                </g>
                <path id="Rectangle_1998" d="M0 0H17.266V0.426H0z" class="cls-43" transform="translate(4.058 8.394)"/>
                <path id="Rectangle_1999" d="M0 0H14.271V0.426H0z" class="cls-43" transform="rotate(-7.441 100.208 -39.235)"/>
                <g id="Group_2942">
                    <g id="Group_2941">
                        <path id="Path_8694" d="M418.658 284.823a1.354 1.354 0 0 1-1.233-.8l-6.7-14.887.389-.174 6.7 14.887a.925.925 0 0 0 1.038.525l10.044-2.194a1.377 1.377 0 0 0 .938-.725l3.632-7.148h-18.214l-2.383-5.171.389-.175 2.27 4.92h18.632l-3.947 7.767a1.8 1.8 0 0 1-1.227.948l-10.044 2.194a1.351 1.351 0 0 1-.284.033z" class="cls-21" transform="translate(-410.724 -268.963)"/>
                        <path id="Path_8695" d="M425.585 292.483h-2.763l.324.783h19.833l.4-.783z" class="cls-21" transform="translate(-420.287 -287.556)"/>
                        <g id="Group_2940" transform="translate(4.995 5.057)">
                            <path id="Rectangle_2000" d="M0 0H0.426V10.667H0z" class="cls-21" transform="rotate(-22.48 1.382 .275)"/>
                            <path id="Rectangle_2001" d="M0 0H0.426V9.781H0z" class="cls-21" transform="rotate(-13.305 3.703 -16.141)"/>
                            <path id="Rectangle_2002" d="M0 0H0.426V9.19H0z" class="cls-21" transform="rotate(-2.658 9.894 -164.366)"/>
                            <path id="Rectangle_2003" d="M0 0H8.951V0.426H0z" class="cls-21" transform="rotate(-81.03 10.284 -1.398)"/>
                            <path id="Rectangle_2004" d="M0 0H9.092V0.426H0z" class="cls-21" transform="rotate(-69.246 12.193 -4.492)"/>
                        </g>
                        <path id="Path_8696" d="M450.873 339.852H437.8l.771-1.573a4.9 4.9 0 0 1 2.914-2.581l7.176-2.246.614-1.758a.211.211 0 0 1 .263-.167.249.249 0 0 1 .147.3L449 333.85l-7.41 2.317a4.462 4.462 0 0 0-2.652 2.348l-.417.851h12.349a.245.245 0 0 1 0 .485z" class="cls-21" transform="translate(-432.126 -318.414)"/>
                    </g>
                </g>
                <g id="Group_2943" transform="translate(7.361 21.066)">
                    <circle id="Ellipse_1075" cx="1.095" cy="1.095" r="1.095" class="cls-44"/>
                    <path id="Path_8697" d="M449.665 372.812a.513.513 0 1 1-.513-.513.513.513 0 0 1 .513.513z" class="cls-45" transform="translate(-448.057 -371.717)"/>
                </g>
                <g id="Group_2944" transform="translate(14.687 21.066)">
                    <circle id="Ellipse_1076" cx="1.095" cy="1.095" r="1.095" class="cls-44"/>
                    <path id="Path_8698" d="M484.636 372.812a.513.513 0 1 1-.513-.513.513.513 0 0 1 .513.513z" class="cls-45" transform="translate(-483.028 -371.717)"/>
                </g>
            </g>
            <g id="Group_2958">
                <g id="Group_2946" transform="translate(4.964)">
                    <path id="Path_8699" fill="url(#linear-gradient-32)" d="M368.834 193.633a1 1 0 0 0 .526-1.04s.671-.553.579-1.079-.829-.3-.829-.3.365-.368.281-.7-1.689-.066-1.689-.066.5-.237.395-.474-1.3-.132-2.277.171-.737 1.8-.737 1.8-.316-.2-.566.368a3.891 3.891 0 0 0 1.152 3.027c.664.327 3.165-1.707 3.165-1.707z" transform="translate(-364.468 -189.845)"/>
                    <path id="Path_8700" d="M370.614 212.126a2.859 2.859 0 0 0-.271 1.361s.611.673 0 1.165-2.468-1.5-2.468-1.5l.494-2.145s2.565.547 2.245 1.119z" class="cls-47" transform="translate(-367.16 -206.575)"/>
                    <path id="Path_8701" d="M372.454 212.126a2.859 2.859 0 0 0-.271 1.361 2.071 2.071 0 0 1-1.974-2.479s2.566.546 2.245 1.118z" transform="translate(-369.001 -206.575)" style="mix-blend-mode:multiply;isolation:isolate" fill="#f29797" opacity="0.5"/>
                    <path id="Path_8702" d="M371.839 202.2s.04 2.75-.553 3.435-1.776-.092-2.2-.513a1.83 1.83 0 0 1-.408-1.171s-.569-.41-.368-.842c.171-.368.5-.368.671.395a.953.953 0 0 0 .237-1.2 1.733 1.733 0 0 0 1.2.105c.412-.134.171-.329.171-.329a1.453 1.453 0 0 0 1.25.12z" class="cls-47" transform="translate(-367.473 -199.522)"/>
                </g>
                <g id="Group_2953" transform="translate(0 17.866)">
                    <g id="Group_2949" transform="translate(6.222 .329)">
                        <path id="Path_8703" d="M378.858 359.239l.141 1.779c.89.563 1.693.659 2.355 0v-1.779z" class="cls-49" transform="translate(-377.101 -341.949)"/>
                        <g id="Group_2947" transform="translate(1.578 19.069)">
                            <path id="Path_8704" d="M383.74 370.282h-5.653c-.027-.128-.046-.256-.06-.382a4.954 4.954 0 0 1 .3-2.171 4.911 4.911 0 0 0 2.356 0 2.261 2.261 0 0 0 .73 1.276 1.083 1.083 0 0 1 .458-.136h.039a1.808 1.808 0 0 1 .448.022h.006a2.4 2.4 0 0 1 .43.117 1.631 1.631 0 0 1 .946 1.274z" class="cls-50" transform="translate(-378.005 -367.729)"/>
                            <path id="Path_8705" d="M383.74 374.538h-5.653c-.027-.128-.068-.374-.082-.5h3.048a1.048 1.048 0 0 1 .815-.913h.039a1.508 1.508 0 0 1 .449.022h.006a2.394 2.394 0 0 1 .43.117 1.631 1.631 0 0 1 .948 1.274z" class="cls-51" transform="translate(-378.005 -371.985)"/>
                        </g>
                        <g id="Group_2948">
                            <path id="Path_8706" fill="#273d6d" d="M375.051 276.7s.621 6.852.7 9.1a77.445 77.445 0 0 1-.632 7.9H372a57.752 57.752 0 0 1 0-6.632l-1.529-9.3.237-.816z" transform="translate(-370.472 -276.702)"/>
                            <path id="Path_8707" fill="#4578dd" d="M379.218 295.681c-.055-1.4.034-3.282.1-4.659.04-.863.073-1.544.054-1.783-.047-.622-1.2-9.852-1.214-9.929l.156-.022c.045.316 1.167 9.312 1.215 9.939.019.249-.013.935-.054 1.8-.065 1.374-.154 3.255-.1 4.645z" opacity="0.4" transform="translate(-376.548 -278.746)"/>
                            <path id="Path_8708" fill="#2a53af" d="M376.526 355.328l-.073 1.059a.123.123 0 0 0 .124.13l3.2.063a.135.135 0 0 0 .135-.1l.157-.706a.121.121 0 0 0-.107-.147l-3.284-.416a.134.134 0 0 0-.152.117z" transform="translate(-375.2 -338.761)"/>
                        </g>
                    </g>
                    <g id="Group_2952">
                        <g id="Group_2950" transform="translate(.97)">
                            <path id="Path_8709" fill="url(#linear-gradient-33)" d="M355.137 275.579s-.891 8.382-1.357 10.171-3.492 6.711-3.492 6.711l-2.606-.948s1.5-4.764 2.711-7.5a64.516 64.516 0 0 1-.776-8.882z" transform="translate(-347.204 -275.132)"/>
                            <path id="Path_8710" fill="#4578dd" d="M351.922 294.047l-.151-.047a62.768 62.768 0 0 1 2.443-6.659 5.633 5.633 0 0 0 .383-1c.024-.416.273-8.4.276-8.46l.158.008c0 .065-.252 8.045-.276 8.461a5.072 5.072 0 0 1-.4 1.057 62.638 62.638 0 0 0-2.433 6.64z" opacity="0.61" transform="translate(-350.437 -277.302)"/>
                            <path id="Path_8711" fill="#3a6bce" d="M345.779 351.007l-.368.968a.122.122 0 0 0 .073.158l2.818 1.026a.122.122 0 0 0 .149-.055l.342-.613a.123.123 0 0 0-.053-.169l-2.791-1.382a.122.122 0 0 0-.17.067z" transform="translate(-345.403 -335.05)"/>
                        </g>
                        <path id="Path_8712" d="M346.4 357.527l-.339 1.056a3.3 3.3 0 0 0 1.954.661l.483-.986z" class="cls-47" transform="translate(-344.956 -340.266)"/>
                        <g id="Group_2951" transform="translate(0 18.317)">
                            <path id="Path_8713" d="M346.193 366.173a7.935 7.935 0 0 1-1.456 0 7.118 7.118 0 0 1-2.149-.553 6.026 6.026 0 0 1-1.816-.96 1.8 1.8 0 0 1 .159-.619c.025-.074.055-.158.09-.25a3.271 3.271 0 0 1 .859-1.224 3.679 3.679 0 0 0 1.953.662 1.969 1.969 0 0 0 .662 1.391h.082a.042.042 0 0 1 .014 0 2.29 2.29 0 0 1 .351.014h.006a1.486 1.486 0 0 1 1.245 1.539z" class="cls-50" transform="translate(-340.772 -362.568)"/>
                            <path id="Path_8714" d="M346.193 371.733a7.945 7.945 0 0 1-1.456 0 7.12 7.12 0 0 1-2.149-.553 6.026 6.026 0 0 1-1.816-.96 1.8 1.8 0 0 1 .159-.619 6.486 6.486 0 0 0 2.7 1.317 1.272 1.272 0 0 1 .95-.742.043.043 0 0 1 .014 0 1 1 0 0 1 .351.014 1.486 1.486 0 0 1 1.247 1.543z" class="cls-51" transform="translate(-340.772 -368.128)"/>
                        </g>
                    </g>
                </g>
                <g id="Group_2957" transform="translate(2.853 5.801)">
                    <g id="Group_2955" transform="translate(4.388 1.274)">
                        <g id="Group_2954" transform="translate(2.616 4.307)">
                            <path id="Rectangle_2005" d="M0 0h1.74a.313.313 0 0 1 .313.313.313.313 0 0 1-.313.313H0V0z" class="cls-21" transform="translate(5.699 4.965)"/>
                            <path id="Path_8715" d="M389.243 244.173s.895 2.066 1.119 2.395a32.4 32.4 0 0 0 2.838 2.132s1.026-.04 1.25.408.013.684-.289.7c0 0-.973.526-2.217-.75 0 0-2.626-.684-3.139-1.355a10.516 10.516 0 0 1-.987-2.7z" class="cls-49" transform="translate(-387.822 -244.173)"/>
                            <path id="Rectangle_2006" d="M0 0h1.74a.313.313 0 0 1 .313.313.313.313 0 0 1-.313.313H0V0z" class="cls-21" transform="translate(4.027 4.965)"/>
                        </g>
                        <path id="Path_8716" fill="url(#linear-gradient-34)" d="M379.8 228.062l-3.171 1.4s-1.612-3.326-1.242-4.951 2.087-.816 2.91.6 1.503 2.951 1.503 2.951z" transform="translate(-375.333 -223.615)"/>
                        <path id="Path_8717" d="M383.477 241.867a11.766 11.766 0 0 1-3.11 1.52s-.1.022.164.516.316.6.578.579 2.464-.643 2.737-1.462a1.634 1.634 0 0 0-.369-1.153z" class="cls-59" transform="translate(-379.299 -238.044)"/>
                    </g>
                    <g id="Group_2956" transform="translate(4.693 1.369)">
                        <path id="Path_8718" fill="url(#linear-gradient-35)" d="M379.582 235.224a3.331 3.331 0 0 1-2.546.257l-.245-10.509 1.139-.9a17.6 17.6 0 0 1 1.474 4.678 39.365 39.365 0 0 1 .178 6.474z" transform="translate(-376.791 -224.072)"/>
                        <path id="Path_8719" d="M379.351 232.74a3.5 3.5 0 0 1-1.58.474v.849a7.728 7.728 0 0 0 1.974-.415l.237 1.54a4.094 4.094 0 0 1-1.915.375l.1.935a9.008 9.008 0 0 0 2.092-.291v1.393a7.252 7.252 0 0 1-1.974.217l.079.987a8.552 8.552 0 0 0 2.152-.2v1.283a10.846 10.846 0 0 1-2.191.217l.02 1.007a15.7 15.7 0 0 0 2.171-.277s.118-6.234-1.165-8.094z" class="cls-33" transform="translate(-377.566 -230.924)"/>
                    </g>
                    <path id="Path_8720" fill="url(#linear-gradient-36)" d="M360.219 228.9c0 1.453-.043 2.463-.043 2.463a8.594 8.594 0 0 1-5.764-1.6c-.079-.177.038-.534.374-2.35a10.52 10.52 0 0 0 .156-1.383c.058-1.121-.017-2.28.054-3.856.011-.254.027-.521.047-.8.2-2.7 1.756-2.863 1.756-2.863a1.653 1.653 0 0 1 .592-.974 3.7 3.7 0 0 0 2.053 1.579v.777a20.386 20.386 0 0 1 .66 4.51c.096 1.581.121 3.209.115 4.497z" transform="translate(-354.389 -217.536)"/>
                    <path id="Path_8721" d="M368.544 219.115v.777a5.258 5.258 0 0 1-2.645-1.382 1.653 1.653 0 0 1 .592-.974 3.7 3.7 0 0 0 2.053 1.579z" class="cls-59" transform="translate(-363.488 -217.536)"/>
                    <path id="Path_8722" fill="url(#linear-gradient-37)" d="M382.656 232.728c-.058.3-1.224.731-1.224.731s.027-1.076.016-2.511c-.008-1.164-.043-2.564-.139-3.818a15.881 15.881 0 0 0-.311-2.318 13.2 13.2 0 0 0-1.007-3.1l-.035-.058s.095-.306-.3-.79v-.486a.845.845 0 0 0 .224-.038 2.123 2.123 0 0 1 .561.723.4.4 0 0 1 .017.11 14.2 14.2 0 0 1 1.625 5.238c.038.268.072.532.106.791.177 1.358.3 2.558.376 3.492a14.97 14.97 0 0 1 .091 2.034z" transform="translate(-374.363 -219.753)"/>
                    <path id="Path_8723" d="M380.441 221.063a1.256 1.256 0 0 1-.45.649l-.035-.058s.095-.306-.3-.79v-.486a.845.845 0 0 0 .224-.038 2.123 2.123 0 0 1 .561.723z" class="cls-59" transform="translate(-374.363 -219.753)"/>
                    <path id="Path_8724" fill="#24a6ce" d="M364.682 239.86c-.235.066-.618.164-1.117.254-.385.07-.842.134-1.353.177a5.8 5.8 0 0 1-.592.038 6.885 6.885 0 0 1-2.31-.4 4.693 4.693 0 0 1-2.271-2.522c.058-1.121-.017-2.28.054-3.856l2.7-1.62a8.965 8.965 0 0 0 1.952 3.395 3.816 3.816 0 0 0 1.682.967 2.717 2.717 0 0 0 .88.072c.176 1.361.299 2.561.375 3.495z" transform="translate(-356.48 -228.918)" style="mix-blend-mode:multiply;isolation:isolate" opacity="0.35"/>
                    <path id="Path_8725" fill="url(#linear-gradient-38)" d="M361.269 230.811l-3.342.921s-1.105-3.527-.5-5.079 2.184-.5 2.79 1.026 1.052 3.132 1.052 3.132z" transform="translate(-356.647 -224.138)"/>
                    <path id="Path_8726" d="M364.832 248.853l.434 1.224 5.448 2.27s1.5.059 1.717.75-.573.632-.573.632-1.48.276-1.934-.553c0 0-5.6-.513-6.4-1.224a13.918 13.918 0 0 1-1.77-2.171z" class="cls-47" transform="translate(-360.21 -242.292)"/>
                    <path id="Path_8727" d="M362.972 246.242a11.775 11.775 0 0 1-3.3 1.046s-.1.008.087.534.224.645.487.658 2.711-.539 3.1-1.309c.147-.288-.201-.601-.374-.929z" class="cls-59" transform="translate(-358.545 -240.228)"/>
                    <path id="Rectangle_2007" d="M0 0h.191A.313.313 0 0 1 .5.313a.313.313 0 0 1-.309.313H0V0z" class="cls-21" transform="translate(10.908 10.545)"/>
                    <rect id="Rectangle_2008" width=".626" height=".626" fill="#798e99" rx=".313" transform="translate(10.595 10.545)"/>
                </g>
            </g>
        </g>
        <path id="Rectangle_2009" d="M0 0H73.813V0.69H0z" class="cls-20" transform="translate(314.568 173.726)"/>
    </g>
</svg>
