<svg xmlns="http://www.w3.org/2000/svg" width="307.96" height="69.689" viewBox="0 0 307.96 69.689">
    <defs>
        <style>
            .cls-1{fill:#0c9dbf}
        </style>
    </defs>
    <g id="Group_280">
        <g id="Group_272">
            <g id="Group_269" transform="translate(100.362 20.193)">
                <g id="Group_266" transform="translate(146.789 21.003)">
                    <path id="Path_95" d="M1725.2 659.946a8.634 8.634 0 0 1 4.749 1.321 9.455 9.455 0 0 1 3.29 3.626 11.151 11.151 0 0 1 1.222 5.3 11.266 11.266 0 0 1-1.222 5.32 9.517 9.517 0 0 1-3.31 3.666 8.507 8.507 0 0 1-4.69 1.339 8.233 8.233 0 0 1-2.621-.414 8.877 8.877 0 0 1-2.266-1.123 8.73 8.73 0 0 1-1.813-1.675 8.394 8.394 0 0 1-1.261-2.109l.709-.512v12.257a1.17 1.17 0 0 1-.335.828 1.191 1.191 0 0 1-1.695 0 1.169 1.169 0 0 1-.334-.828v-25.7a1.257 1.257 0 0 1 .315-.867 1.1 1.1 0 0 1 .867-.354 1.116 1.116 0 0 1 .847.354 1.218 1.218 0 0 1 .335.867v4.258l-.552-.316A6.878 6.878 0 0 1 1718.6 663a7.965 7.965 0 0 1 4.04-2.7 9.121 9.121 0 0 1 2.56-.354zm-.2 2.207a6.748 6.748 0 0 0-3.744 1.045 7.288 7.288 0 0 0-2.541 2.837 8.938 8.938 0 0 0-.927 4.159 9.205 9.205 0 0 0 .927 4.177 7.181 7.181 0 0 0 2.541 2.9 6.741 6.741 0 0 0 3.744 1.045 6.574 6.574 0 0 0 3.685-1.045 7.385 7.385 0 0 0 2.542-2.9 9.053 9.053 0 0 0 .946-4.177 8.822 8.822 0 0 0-.946-4.139 7.464 7.464 0 0 0-2.542-2.857 6.581 6.581 0 0 0-3.685-1.045z" class="cls-1" transform="translate(-1715.623 -659.631)"/>
                    <path id="Path_96" d="M1759.26 670.135a10.909 10.909 0 0 1-1.321 5.379 9.874 9.874 0 0 1-3.567 3.744 10.148 10.148 0 0 1-10.148 0 9.812 9.812 0 0 1-3.586-3.744 11.662 11.662 0 0 1 0-10.778 10 10 0 0 1 3.586-3.744 10.022 10.022 0 0 1 10.148 0 10.068 10.068 0 0 1 3.567 3.744 10.882 10.882 0 0 1 1.321 5.399zm-2.365 0a9.05 9.05 0 0 0-.985-4.276 7.632 7.632 0 0 0-2.7-2.956 7.181 7.181 0 0 0-3.921-1.084 7.108 7.108 0 0 0-3.882 1.084 7.77 7.77 0 0 0-2.72 2.956 8.9 8.9 0 0 0-1.005 4.276 8.782 8.782 0 0 0 1.005 4.256 7.8 7.8 0 0 0 2.72 2.936 7.107 7.107 0 0 0 3.882 1.084 7.18 7.18 0 0 0 3.921-1.084 7.66 7.66 0 0 0 2.7-2.936 8.93 8.93 0 0 0 .985-4.256z" class="cls-1" transform="translate(-1716.933 -659.613)"/>
                    <path id="Path_97" d="M1764.328 677.032a1.538 1.538 0 0 1-.3-.926.872.872 0 0 1 .493-.729.931.931 0 0 1 .729-.236 1.251 1.251 0 0 1 .768.394 8.391 8.391 0 0 0 2.581 2.227 7.281 7.281 0 0 0 3.606.847 6.652 6.652 0 0 0 2.188-.375 4.307 4.307 0 0 0 1.793-1.142 3.067 3.067 0 0 0 0-3.922 4.93 4.93 0 0 0-1.833-1.183 20.571 20.571 0 0 0-2.384-.748q-1.341-.356-2.6-.808a9.073 9.073 0 0 1-2.227-1.143 5.549 5.549 0 0 1-1.557-1.675 4.6 4.6 0 0 1-.591-2.4 4.866 4.866 0 0 1 .907-2.916 6.038 6.038 0 0 1 2.462-1.97 8.409 8.409 0 0 1 3.527-.71 9.765 9.765 0 0 1 2.128.256 8.874 8.874 0 0 1 2.246.848 6.755 6.755 0 0 1 1.971 1.615 1.115 1.115 0 0 1 .354.808 1.063 1.063 0 0 1-.394.808 1.18 1.18 0 0 1-.729.237.878.878 0 0 1-.69-.316 6.2 6.2 0 0 0-2.246-1.615 7.075 7.075 0 0 0-2.8-.552 6.107 6.107 0 0 0-2.148.374 4.165 4.165 0 0 0-1.676 1.123 2.842 2.842 0 0 0-.669 1.97 2.748 2.748 0 0 0 .808 1.853 5.756 5.756 0 0 0 1.931 1.183 24.24 24.24 0 0 0 2.7.866 22.823 22.823 0 0 1 2.424.749 8.428 8.428 0 0 1 2.049 1.083 4.868 4.868 0 0 1 1.418 1.635 5.183 5.183 0 0 1 .532 2.483 4.783 4.783 0 0 1-.965 3 6.13 6.13 0 0 1-2.582 1.931 9.273 9.273 0 0 1-3.586.67 10.622 10.622 0 0 1-4.118-.828 8.86 8.86 0 0 1-3.52-2.766z" class="cls-1" transform="translate(-1718.299 -659.613)"/>
                </g>
                <path id="Union_1" d="M1589.758 659.046V677.3c0 1.617 0 1.617-1.667 1.617h-7.568c-1.871 0-1.884-.01-1.884-1.851q0-12.3-.016-24.6v-13.879c0-.441.066-.882.1-1.324l.276-.2 24.394 20.1v-18.447c0-1.536.07-1.61 1.6-1.61h8.1c1.2 0 1.417.211 1.417 1.406v39.429a2.075 2.075 0 0 1-.344 1.125zm78.091 19.943c-1.516-.021-3.036-.014-4.553-.014h-3.123c-1.44-.01-1.686-.413-1.05-1.741q9.211-19.266 18.464-38.509c.188-.393.635-.659.962-.986.325.332.767.6.956 1q9.18 19.221 18.334 38.449c.672 1.414.469 1.72-1.1 1.72h-2.439c-1.992 0-3.987-.01-5.978.022a1.324 1.324 0 0 1-1.42-.935q-4.2-9.553-8.428-19.093c-.095-.215-.211-.42-.434-.86-1.454 3.373-2.809 6.512-4.16 9.653-1.464 3.406-2.95 6.807-4.363 10.228A1.516 1.516 0 0 1 1667.9 679zm-43.782-5.723c-1.751-1.684-1.741-1.82.184-3.256 1.72-1.278 3.44-2.54 5.124-3.85a1.1 1.1 0 0 1 1.551-.1 1.081 1.081 0 0 1 .217.26 10.091 10.091 0 0 0 10.045 3.308 3.061 3.061 0 0 0 2.762-2.5 2.944 2.944 0 0 0-2.1-3.062c-1.926-.817-3.91-1.5-5.893-2.178a18.507 18.507 0 0 1-7.7-4.311 11.591 11.591 0 0 1-3.06-10.048 12.041 12.041 0 0 1 10.69-10.09 25.9 25.9 0 0 1 3.655-.274 18.735 18.735 0 0 1 8.944 2.147 23.332 23.332 0 0 1 3.217 2.347.994.994 0 0 1 .091 1.685c-1.548 1.614-3.1 3.237-4.617 4.889a1.081 1.081 0 0 1-1.783.1 8.518 8.518 0 0 0-7.224-2.028 2.642 2.642 0 0 0-.92 5.037c1.928.809 3.925 1.454 5.906 2.127a23.068 23.068 0 0 1 8.148 4.2 10.494 10.494 0 0 1 3.44 8.14 11.7 11.7 0 0 1-4.514 10.217 14.818 14.818 0 0 1-7.076 2.657c-1.24.172-2.505.2-3.759.3a21.341 21.341 0 0 1-15.328-5.717zm-63.586 5.663c-.91 0-1.251-.345-1.251-1.282q.023-19.614-.01-39.223c0-1.02.438-1.331 1.363-1.331h.044c1.768.021 3.538.014 5.3.014h3.007c1.251 0 1.465.217 1.465 1.472v38.801c0 1.474-.064 1.532-1.548 1.532h-2.432c-1.959 0-3.916-.012-5.876.019z" class="cls-1" transform="translate(-1559.22 -637.06)"/>
            </g>
            <g id="Group_265">
                <path id="Rectangle_15" d="M0 0H14.28V15.962H0z" class="cls-1" transform="translate(32.988 52.144)"/>
                <path id="Path_344" d="M1409.517 566.134h11.646a3.422 3.422 0 0 0 3.517-3.317v-30.849a14.186 14.186 0 0 1-7.074-4.426 14.584 14.584 0 0 1-21.9 0 14.587 14.587 0 0 1-21.9 0 14.191 14.191 0 0 1-7.072 4.426v31.4a2.85 2.85 0 0 0 2.93 2.764h12.236c0-.069-.022-.134-.022-.205V548.7a4.569 4.569 0 0 1 4.7-4.429h18.272a4.569 4.569 0 0 1 4.7 4.429v17.233c-.011.067-.03.132-.033.201z" class="cls-1" transform="translate(-1355.581 -498.029)"/>
                <path id="Path_345" d="M1439.365 528.2l-8.734-18.123a4.551 4.551 0 0 0-4.117-2.524h-54.333a4.735 4.735 0 0 0-4.266 2.6l-8.735 17.789a2.762 2.762 0 0 1 .128.762 7.35 7.35 0 0 0 4.671 6.854c5.427 2.017 10.592-1.73 10.709-6.649a3.084 3.084 0 0 1 6.155-.329 7.744 7.744 0 0 0 5.635 7.277 7.656 7.656 0 0 0 9.75-6.944 3.084 3.084 0 0 1 6.155-.332 7.74 7.74 0 0 0 5.635 7.277 7.656 7.656 0 0 0 9.748-6.944 3.1 3.1 0 0 1 2.148-2.994 3.057 3.057 0 0 1 4 3.044 6.29 6.29 0 0 0 2.012 5.123c6.331 4.73 13.379.466 13.379-5.346a2.821 2.821 0 0 1 .06-.541z" class="cls-1" transform="translate(-1359.18 -507.551)"/>
            </g>
        </g>
    </g>
</svg>
