<svg xmlns="http://www.w3.org/2000/svg" width="321.726" height="75.541" viewBox="0 0 321.726 75.541">
    <defs>
        <style>
            .cls-1{fill:#f2562d}
        </style>
    </defs>
    <g id="Group_287" transform="translate(.501 .501)">
        <g id="Group_285">
            <g id="Group_52" transform="translate(83.564 30.248)">
                <g id="Group_51" transform="translate(127.652 10.767)">
                    <path id="Path_64" d="M1700.892 247.059a1.318 1.318 0 0 1-.254-.793.748.748 0 0 1 .423-.625.8.8 0 0 1 .624-.2 1.067 1.067 0 0 1 .658.338 7.2 7.2 0 0 0 2.211 1.907 6.232 6.232 0 0 0 3.089.726 5.706 5.706 0 0 0 1.874-.32 3.681 3.681 0 0 0 1.536-.979 2.624 2.624 0 0 0 0-3.359 4.225 4.225 0 0 0-1.57-1.013 17.55 17.55 0 0 0-2.043-.641q-1.148-.3-2.229-.692a7.761 7.761 0 0 1-1.907-.979 4.748 4.748 0 0 1-1.334-1.435 3.939 3.939 0 0 1-.506-2.06 4.166 4.166 0 0 1 .777-2.5 5.166 5.166 0 0 1 2.11-1.687 7.2 7.2 0 0 1 3.021-.608 8.375 8.375 0 0 1 1.823.219 7.582 7.582 0 0 1 1.924.726 5.785 5.785 0 0 1 1.688 1.384.955.955 0 0 1 .3.693.913.913 0 0 1-.337.692 1.015 1.015 0 0 1-.625.2.751.751 0 0 1-.591-.27 5.325 5.325 0 0 0-1.924-1.384 6.07 6.07 0 0 0-2.4-.472 5.227 5.227 0 0 0-1.84.32 3.556 3.556 0 0 0-1.434.962 2.434 2.434 0 0 0-.574 1.688 2.353 2.353 0 0 0 .692 1.587 4.921 4.921 0 0 0 1.654 1.013 20.868 20.868 0 0 0 2.313.743 19.236 19.236 0 0 1 2.076.641 7.218 7.218 0 0 1 1.756.928 4.165 4.165 0 0 1 1.215 1.4 4.438 4.438 0 0 1 .456 2.126 4.1 4.1 0 0 1-.828 2.566 5.237 5.237 0 0 1-2.21 1.654 7.951 7.951 0 0 1-3.073.575 9.1 9.1 0 0 1-3.528-.71 7.587 7.587 0 0 1-3.013-2.361z" class="cls-1" transform="translate(-1700.637 -224.811)"/>
                    <path id="Path_65" d="M1726.468 232.022a5.929 5.929 0 0 1 3.444.912 5.346 5.346 0 0 1 1.941 2.464 9.157 9.157 0 0 1 .625 3.444v9.558a1.039 1.039 0 0 1-1.013 1.013.939.939 0 0 1-.743-.3 1.029 1.029 0 0 1-.271-.709v-9.554a7.016 7.016 0 0 0-.422-2.5 3.706 3.706 0 0 0-1.367-1.773 4.356 4.356 0 0 0-2.532-.658 5.734 5.734 0 0 0-2.684.658 5.575 5.575 0 0 0-2.043 1.773 4.266 4.266 0 0 0-.776 2.5v9.55a1.039 1.039 0 0 1-1.013 1.013.938.938 0 0 1-.743-.3 1.03 1.03 0 0 1-.271-.709v-22.965a1 1 0 0 1 .287-.709 1.019 1.019 0 0 1 1.452 0 1 1 0 0 1 .288.709v10.939l-.777 1.181a4.535 4.535 0 0 1 .658-2.043 6.993 6.993 0 0 1 1.536-1.789 7.616 7.616 0 0 1 2.093-1.249 6.261 6.261 0 0 1 2.331-.456z" class="cls-1" transform="translate(-1701.535 -224.426)"/>
                    <path id="Path_66" d="M1754.661 241.151a9.36 9.36 0 0 1-1.131 4.609 8.468 8.468 0 0 1-3.056 3.207 8.692 8.692 0 0 1-8.693 0 8.418 8.418 0 0 1-3.072-3.207 9.992 9.992 0 0 1 0-9.233 8.569 8.569 0 0 1 3.072-3.207 8.583 8.583 0 0 1 8.693 0 8.622 8.622 0 0 1 3.056 3.207 9.332 9.332 0 0 1 1.131 4.624zm-2.026 0a7.746 7.746 0 0 0-.844-3.662 6.544 6.544 0 0 0-2.312-2.533 6.159 6.159 0 0 0-3.359-.928 6.094 6.094 0 0 0-3.325.928 6.663 6.663 0 0 0-2.33 2.533 7.621 7.621 0 0 0-.862 3.662 7.525 7.525 0 0 0 .862 3.646 6.68 6.68 0 0 0 2.33 2.515 6.087 6.087 0 0 0 3.325.929 6.152 6.152 0 0 0 3.359-.929 6.56 6.56 0 0 0 2.312-2.515 7.648 7.648 0 0 0 .844-3.646z" class="cls-1" transform="translate(-1702.482 -224.811)"/>
                    <path id="Path_67" d="M1768.133 232.421a7.4 7.4 0 0 1 4.068 1.131 8.106 8.106 0 0 1 2.82 3.106 9.569 9.569 0 0 1 1.046 4.541 9.667 9.667 0 0 1-1.046 4.557 8.151 8.151 0 0 1-2.837 3.14 7.285 7.285 0 0 1-4.017 1.148 7.042 7.042 0 0 1-2.245-.354 7.609 7.609 0 0 1-1.942-.962 7.472 7.472 0 0 1-1.552-1.435 7.17 7.17 0 0 1-1.08-1.806l.607-.439v10.5a1 1 0 0 1-.287.71 1.021 1.021 0 0 1-1.452 0 1 1 0 0 1-.287-.71v-22.013a1.082 1.082 0 0 1 .27-.743.945.945 0 0 1 .743-.3.958.958 0 0 1 .726.3 1.042 1.042 0 0 1 .287.743v3.646l-.472-.27a5.858 5.858 0 0 1 1-1.874 6.822 6.822 0 0 1 3.46-2.312 7.834 7.834 0 0 1 2.19-.304zm-.169 1.891a5.78 5.78 0 0 0-3.206.895 6.243 6.243 0 0 0-2.178 2.431 7.663 7.663 0 0 0-.793 3.562 7.9 7.9 0 0 0 .793 3.578 6.152 6.152 0 0 0 2.178 2.481 5.772 5.772 0 0 0 3.206.895 5.633 5.633 0 0 0 3.157-.895 6.323 6.323 0 0 0 2.178-2.481 7.746 7.746 0 0 0 .81-3.578 7.549 7.549 0 0 0-.81-3.546 6.394 6.394 0 0 0-2.178-2.447 5.641 5.641 0 0 0-3.157-.895z" class="cls-1" transform="translate(-1703.599 -224.825)"/>
                    <path id="Path_68" d="M1788.924 250.132a9.239 9.239 0 0 1-4.591-1.114 7.916 7.916 0 0 1-3.105-3.106 9.376 9.376 0 0 1-1.115-4.659 9.9 9.9 0 0 1 1.131-4.9 8.276 8.276 0 0 1 2.938-3.123 7.256 7.256 0 0 1 3.831-1.1 8.186 8.186 0 0 1 2.886.523 7.228 7.228 0 0 1 2.482 1.552 8.017 8.017 0 0 1 1.755 2.516 8.615 8.615 0 0 1 .709 3.444.917.917 0 0 1-.3.692 1 1 0 0 1-.71.287h-13.538l-.4-1.823h13.3l-.439.406v-.675a5.149 5.149 0 0 0-1.047-2.7 5.754 5.754 0 0 0-2.11-1.688 6.058 6.058 0 0 0-2.582-.574 5.8 5.8 0 0 0-2.076.406 5.44 5.44 0 0 0-1.925 1.265 6.515 6.515 0 0 0-1.4 2.195 8.389 8.389 0 0 0-.54 3.156 7.961 7.961 0 0 0 .81 3.613 6.253 6.253 0 0 0 2.329 2.566 6.838 6.838 0 0 0 3.681.945 6.186 6.186 0 0 0 2.093-.338 6.092 6.092 0 0 0 1.671-.894 6.625 6.625 0 0 0 1.2-1.165 1.135 1.135 0 0 1 .708-.3.823.823 0 0 1 .624.27.867.867 0 0 1 .254.608.929.929 0 0 1-.338.709 9.088 9.088 0 0 1-2.633 2.11 7.224 7.224 0 0 1-3.553.896z" class="cls-1" transform="translate(-1704.607 -224.811)"/>
                    <path id="Path_69" d="M1808.682 250.132a9.24 9.24 0 0 1-4.591-1.114 7.92 7.92 0 0 1-3.106-3.106 9.391 9.391 0 0 1-1.114-4.659 9.9 9.9 0 0 1 1.131-4.9 8.286 8.286 0 0 1 2.938-3.123 7.258 7.258 0 0 1 3.831-1.1 8.188 8.188 0 0 1 2.886.523 7.227 7.227 0 0 1 2.482 1.552 8.017 8.017 0 0 1 1.755 2.516 8.636 8.636 0 0 1 .71 3.444.918.918 0 0 1-.3.692 1 1 0 0 1-.71.287h-13.538l-.4-1.823h13.3l-.439.406v-.675a5.148 5.148 0 0 0-1.046-2.7 5.768 5.768 0 0 0-2.11-1.688 6.061 6.061 0 0 0-2.583-.574 5.8 5.8 0 0 0-2.076.406 5.442 5.442 0 0 0-1.925 1.265 6.511 6.511 0 0 0-1.4 2.195 8.384 8.384 0 0 0-.54 3.156 7.955 7.955 0 0 0 .81 3.613 6.25 6.25 0 0 0 2.329 2.566 6.833 6.833 0 0 0 3.68.945 6.185 6.185 0 0 0 2.093-.338 6.082 6.082 0 0 0 1.671-.894 6.583 6.583 0 0 0 1.2-1.165 1.136 1.136 0 0 1 .709-.3.826.826 0 0 1 .625.27.87.87 0 0 1 .253.608.927.927 0 0 1-.338.709 9.087 9.087 0 0 1-2.632 2.11 7.222 7.222 0 0 1-3.555.896z" class="cls-1" transform="translate(-1705.594 -224.811)"/>
                </g>
                <path id="Union_1" d="M1592.3 231.83v15.552c0 1.379 0 1.379-1.42 1.379h-6.45c-1.595 0-1.605-.009-1.605-1.578q0-10.481-.013-20.961v-11.827c0-.376.056-.752.085-1.129l.236-.173 20.789 17.128V214.5c0-1.309.061-1.372 1.36-1.372h6.9c1.026 0 1.208.18 1.208 1.2v33.6a1.769 1.769 0 0 1-.293.959zm66.55 17c-1.293-.018-2.587-.012-3.88-.012h-2.662c-1.227-.009-1.437-.352-.894-1.483q7.85-16.42 15.735-32.817c.161-.334.541-.561.819-.841.277.283.654.515.815.853q7.824 16.38 15.625 32.767c.572 1.2.4 1.466-.938 1.466h-2.078c-1.7 0-3.4-.009-5.1.019a1.127 1.127 0 0 1-1.209-.8q-3.583-8.141-7.183-16.27c-.081-.183-.18-.358-.371-.733-1.238 2.875-2.393 5.55-3.544 8.226-1.247 2.9-2.514 5.8-3.719 8.717a1.29 1.29 0 0 1-1.377.917zm-37.312-4.878c-1.492-1.435-1.483-1.55.156-2.775 1.466-1.089 2.932-2.164 4.368-3.281a.936.936 0 0 1 1.321-.086.946.946 0 0 1 .185.222 8.6 8.6 0 0 0 8.561 2.819 2.609 2.609 0 0 0 2.354-2.132 2.51 2.51 0 0 0-1.787-2.609c-1.642-.7-3.332-1.281-5.022-1.855a15.785 15.785 0 0 1-6.562-3.674 9.881 9.881 0 0 1-2.607-8.564 10.262 10.262 0 0 1 9.11-8.6 22.051 22.051 0 0 1 3.115-.233 15.959 15.959 0 0 1 7.622 1.83 19.833 19.833 0 0 1 2.741 2 .847.847 0 0 1 .078 1.436c-1.32 1.375-2.638 2.759-3.934 4.166a.92.92 0 0 1-1.264.315.909.909 0 0 1-.256-.229 7.262 7.262 0 0 0-6.157-1.728 2.252 2.252 0 0 0-.784 4.293c1.644.689 3.345 1.239 5.033 1.812a19.675 19.675 0 0 1 6.944 3.58 8.941 8.941 0 0 1 2.932 6.936 9.964 9.964 0 0 1-3.847 8.707 12.632 12.632 0 0 1-6.03 2.265c-1.057.146-2.135.172-3.2.252a18.186 18.186 0 0 1-13.072-4.871zm-54.188 4.826c-.776 0-1.066-.294-1.066-1.093q.019-16.715-.008-33.425c0-.869.373-1.135 1.161-1.135h.038c1.507.018 3.015.012 4.518.012h2.562c1.066 0 1.249.184 1.249 1.254v33.067c0 1.256-.054 1.306-1.32 1.306h-2.073c-1.669 0-3.338-.01-5.007.016z" class="cls-1" transform="translate(-1566.273 -213.093)"/>
            </g>
            <path id="Subtraction_11" fill="#f2562d" stroke="rgba(0,0,0,0)" stroke-miterlimit="10" d="M45.908 74.541h-7.647V45.217h-9.276v29.292h-9.188c-3.441 0-6.267 0-8.892-.009a7.007 7.007 0 0 1-7.215-5.549 40.4 40.4 0 0 1-.809-6.03l-.034-.4c-.213-2.544-.39-5.134-.563-7.639v-.005c-.119-1.725-.241-3.509-.374-5.263-.187-2.467-.389-4.972-.584-7.394v-.009c-.2-2.464-.4-5.011-.594-7.517C.434 30.786.2 27.34.009 24.16a3.313 3.313 0 0 1 .759-2.535 3.333 3.333 0 0 1 2.5-.917h4.989c2.983 0 6.009 0 8.936.008h.2c1.478 0 1.481-.06 1.568-1.589v-.072A26.313 26.313 0 0 1 23.119 5.6 11.634 11.634 0 0 1 32.868 0h.365a10.933 10.933 0 0 1 5.884 1.636 14.248 14.248 0 0 1 4.3 4.412A27.948 27.948 0 0 1 47.611 19.7c.056.8.3 1.03 1.069 1.03h2.02c1.057 0 2.121 0 3.151.007h.108c1.009 0 2.052.006 3.08.006 2.279 0 4.03-.016 5.68-.052h.21a3.691 3.691 0 0 1 2.818.894 3.785 3.785 0 0 1 .7 2.974l-.109 1.54v.001c-.274 3.866-.557 7.863-.83 11.8-.081 1.164-.158 2.341-.232 3.479-.1 1.508-.2 3.067-.312 4.6-.119 1.626-.251 3.278-.378 4.875-.1 1.251-.2 2.542-.3 3.813-.163 2.168-.325 4.37-.481 6.5l-.355 4.823a10.816 10.816 0 0 1-1.65 5.138 7.13 7.13 0 0 1-6.3 3.395c-2.867.012-6.006.018-9.592.018zM28.985 32.464v9.275h9.275v-9.275h-9.275zM33.24 3.48a8.491 8.491 0 0 0-6.826 3.583c-2.372 3.2-3.584 7.055-3.929 12.483-.036.564-.038.846.1 1s.453.163.982.164h15.022c1.744 0 3.156 0 4.444-.005.522 0 .778-.062.913-.216.155-.177.149-.491.089-.939-.039-.291-.074-.588-.108-.875-.071-.6-.145-1.221-.257-1.824a23.166 23.166 0 0 0-3.665-9.7A8.3 8.3 0 0 0 33.24 3.48z"/>
        </g>
    </g>
</svg>
