<svg xmlns="http://www.w3.org/2000/svg" width="377.464" height="69.999" viewBox="0 0 377.464 69.999">
    <defs>
        <style>
            .cls-1{fill:#0872d7}
        </style>
    </defs>
    <g id="Group_286" transform="translate(.222 .29)">
        <g id="Group_279" transform="translate(81.534 13.826)">
            <g id="Group_56">
                <g id="Group_55" transform="translate(152.049 17.414)">
                    <path id="Path_72" d="M1734.961 442.006a.94.94 0 1 1 0 1.879h-8.222a.977.977 0 0 1-.939-.94.868.868 0 0 1 .285-.688.957.957 0 0 1 .654-.252zm-1.274-7.886a6.519 6.519 0 0 1 1.089.1 3.1 3.1 0 0 1 1.024.352.82.82 0 0 1 .436.755.925.925 0 0 1-.269.655.812.812 0 0 1-.6.285 2.548 2.548 0 0 1-.839-.185 3.107 3.107 0 0 0-1.073-.184 2.213 2.213 0 0 0-1.208.318 2.05 2.05 0 0 0-.771.906 3.4 3.4 0 0 0-.269 1.426v19.263a1 1 0 0 1-.285.7 1.015 1.015 0 0 1-1.444 0 1 1 0 0 1-.284-.7v-19.262a4.213 4.213 0 0 1 1.257-3.288 4.639 4.639 0 0 1 3.236-1.141z" class="cls-1" transform="translate(-1725.8 -433.986)"/>
                    <path id="Path_73" d="M1756.265 443.411a.954.954 0 0 1 .722.3 1.037 1.037 0 0 1 .284.738v15.1a1.031 1.031 0 0 1-1.007 1.006.939.939 0 0 1-.738-.3 1.026 1.026 0 0 1-.269-.7v-3.993l.571-.269a4.038 4.038 0 0 1-.52 1.912 6.9 6.9 0 0 1-1.426 1.813 7.327 7.327 0 0 1-2.131 1.359 6.762 6.762 0 0 1-2.668.52 7.222 7.222 0 0 1-4.044-1.175 8.068 8.068 0 0 1-2.818-3.222 10.121 10.121 0 0 1-1.024-4.6 9.842 9.842 0 0 1 1.041-4.614 8.066 8.066 0 0 1 2.819-3.138 7.53 7.53 0 0 1 6.695-.637 7.037 7.037 0 0 1 2.2 1.375 6.584 6.584 0 0 1 1.476 2 5.355 5.355 0 0 1 .537 2.332l-.705-.5v-4.262a1.069 1.069 0 0 1 .269-.738.939.939 0 0 1 .736-.307zm-6.979 15.6a5.524 5.524 0 0 0 3.154-.923 6.3 6.3 0 0 0 2.165-2.55 8.253 8.253 0 0 0 .788-3.641 7.856 7.856 0 0 0-.788-3.557 6.5 6.5 0 0 0-2.165-2.517 5.458 5.458 0 0 0-3.154-.94 5.627 5.627 0 0 0-3.138.906 6.2 6.2 0 0 0-2.181 2.483 7.988 7.988 0 0 0-.789 3.624 8.382 8.382 0 0 0 .772 3.641 6.137 6.137 0 0 0 2.164 2.55 5.6 5.6 0 0 0 3.172.929z" class="cls-1" transform="translate(-1728.816 -435.726)"/>
                    <path id="Path_74" d="M1774.876 443.008a11.586 11.586 0 0 1 2.953.353 6.373 6.373 0 0 1 2.165.956 1.67 1.67 0 0 1 .822 1.309 1.043 1.043 0 0 1-.251.654.763.763 0 0 1-.621.319 1.068 1.068 0 0 1-.687-.2 3.772 3.772 0 0 1-.487-.47 2.3 2.3 0 0 0-.7-.5 6.053 6.053 0 0 0-1.259-.369 9.184 9.184 0 0 0-1.829-.168 6.285 6.285 0 0 0-3.39.94 6.745 6.745 0 0 0-2.382 2.533 7.32 7.32 0 0 0-.873 3.575 7.854 7.854 0 0 0 .822 3.624 6.26 6.26 0 0 0 2.315 2.533 6.4 6.4 0 0 0 3.44.923 7.332 7.332 0 0 0 2.1-.235 5.832 5.832 0 0 0 1.259-.536 3.256 3.256 0 0 0 .956-.721.923.923 0 0 1 .755-.352.832.832 0 0 1 .638.251.924.924 0 0 1 .235.655 1.745 1.745 0 0 1-.789 1.192 7.092 7.092 0 0 1-2.164 1.141 9.579 9.579 0 0 1-3.188.487 7.987 7.987 0 0 1-7.332-4.38 9.763 9.763 0 0 1-1.057-4.581 9.328 9.328 0 0 1 1.073-4.463 8.568 8.568 0 0 1 2.987-3.238 8.161 8.161 0 0 1 4.489-1.232z" class="cls-1" transform="translate(-1733.735 -435.726)"/>
                    <path id="Path_75" d="M1796.526 460.9a9.179 9.179 0 0 1-4.564-1.108 7.87 7.87 0 0 1-3.087-3.087 9.329 9.329 0 0 1-1.108-4.631 9.839 9.839 0 0 1 1.124-4.865 8.228 8.228 0 0 1 2.92-3.1 7.22 7.22 0 0 1 3.809-1.091 8.136 8.136 0 0 1 2.869.52 7.2 7.2 0 0 1 2.467 1.544 7.955 7.955 0 0 1 1.744 2.5 8.549 8.549 0 0 1 .705 3.423.911.911 0 0 1-.3.688 1 1 0 0 1-.7.285h-13.456l-.4-1.813h13.222l-.436.4v-.672a5.118 5.118 0 0 0-1.041-2.684 5.738 5.738 0 0 0-2.1-1.678 6.024 6.024 0 0 0-2.567-.57 5.776 5.776 0 0 0-2.064.4 5.4 5.4 0 0 0-1.912 1.258 6.457 6.457 0 0 0-1.394 2.181 8.338 8.338 0 0 0-.536 3.138 7.932 7.932 0 0 0 .8 3.591 6.219 6.219 0 0 0 2.316 2.55 6.78 6.78 0 0 0 3.658.94 6.136 6.136 0 0 0 2.08-.336 6.006 6.006 0 0 0 1.66-.889 6.544 6.544 0 0 0 1.192-1.157 1.132 1.132 0 0 1 .7-.3.819.819 0 0 1 .621.269.862.862 0 0 1 .252.6.925.925 0 0 1-.335.705 9.052 9.052 0 0 1-2.618 2.1 7.18 7.18 0 0 1-3.521.889z" class="cls-1" transform="translate(-1737.935 -435.726)"/>
                    <path id="Path_76" d="M1820.543 441.243a7.277 7.277 0 0 1 4.043 1.141 8.128 8.128 0 0 1 2.8 3.138 9.85 9.85 0 0 1 1.041 4.614 10.005 10.005 0 0 1-1.041 4.6 8.244 8.244 0 0 1-2.819 3.222 7.083 7.083 0 0 1-3.993 1.175 6.715 6.715 0 0 1-2.232-.369 7.6 7.6 0 0 1-3.473-2.45 7.416 7.416 0 0 1-1.075-1.812l.6-.437v3.792a1.007 1.007 0 1 1-2.013 0V435a1 1 0 0 1 .269-.721.96.96 0 0 1 .738-.285.976.976 0 0 1 1.012 1.006v11.241l-.47-.269a6.27 6.27 0 0 1 .99-1.9 7.427 7.427 0 0 1 1.527-1.493 7.065 7.065 0 0 1 1.913-.99 6.731 6.731 0 0 1 2.183-.346zm-.168 1.879a5.665 5.665 0 0 0-3.188.906 6.246 6.246 0 0 0-2.164 2.483 8 8 0 0 0-.789 3.624 8.24 8.24 0 0 0 .789 3.641 6.3 6.3 0 0 0 2.164 2.55 5.583 5.583 0 0 0 3.188.923 5.375 5.375 0 0 0 3.138-.94 6.6 6.6 0 0 0 2.164-2.567 8.014 8.014 0 0 0 .806-3.608 7.857 7.857 0 0 0-.806-3.624 6.419 6.419 0 0 0-2.164-2.483 5.525 5.525 0 0 0-3.138-.905z" class="cls-1" transform="translate(-1742.757 -433.961)"/>
                    <path id="Path_77" d="M1853.071 451.969a9.3 9.3 0 0 1-1.124 4.581 8.418 8.418 0 0 1-3.037 3.188 8.64 8.64 0 0 1-8.642 0 8.371 8.371 0 0 1-3.054-3.188 9.935 9.935 0 0 1 0-9.179 8.533 8.533 0 0 1 3.054-3.188 8.532 8.532 0 0 1 8.642 0 8.582 8.582 0 0 1 3.037 3.188 9.274 9.274 0 0 1 1.124 4.598zm-2.013 0a7.7 7.7 0 0 0-.839-3.641 6.49 6.49 0 0 0-2.3-2.517 6.439 6.439 0 0 0-6.644 0 6.613 6.613 0 0 0-2.315 2.517 7.57 7.57 0 0 0-.856 3.641 7.466 7.466 0 0 0 .856 3.624 6.642 6.642 0 0 0 2.315 2.5 6.439 6.439 0 0 0 6.644 0 6.516 6.516 0 0 0 2.3-2.5 7.6 7.6 0 0 0 .839-3.624z" class="cls-1" transform="translate(-1747.399 -435.726)"/>
                    <path id="Path_78" d="M1877.9 451.969a9.3 9.3 0 0 1-1.124 4.581 8.409 8.409 0 0 1-3.037 3.188 8.64 8.64 0 0 1-8.641 0 8.37 8.37 0 0 1-3.054-3.188 9.929 9.929 0 0 1 0-9.179 8.531 8.531 0 0 1 3.054-3.188 8.531 8.531 0 0 1 8.641 0 8.572 8.572 0 0 1 3.037 3.188 9.274 9.274 0 0 1 1.124 4.598zm-2.013 0a7.7 7.7 0 0 0-.839-3.641 6.491 6.491 0 0 0-2.3-2.517 6.44 6.44 0 0 0-6.645 0 6.615 6.615 0 0 0-2.315 2.517 7.572 7.572 0 0 0-.856 3.641 7.469 7.469 0 0 0 .856 3.624 6.644 6.644 0 0 0 2.315 2.5 6.44 6.44 0 0 0 6.645 0 6.517 6.517 0 0 0 2.3-2.5 7.594 7.594 0 0 0 .838-3.624z" class="cls-1" transform="translate(-1752.261 -435.726)"/>
                    <path id="Path_79" d="M1888.424 458.786a.95.95 0 0 1-.721-.3.994.994 0 0 1-.286-.7V434.96a.991.991 0 0 1 .286-.7 1.011 1.011 0 0 1 1.443 0 1 1 0 0 1 .286.7v22.82a1 1 0 0 1-.286.7.951.951 0 0 1-.722.306zm11.41-17.215a.909.909 0 0 1 .671.318.99.99 0 0 1 .3.688 1.02 1.02 0 0 1-.369.772l-11.276 9.6-.1-2.382 10.067-8.658a.924.924 0 0 1 .707-.338zm.268 17.215a.92.92 0 0 1-.738-.369l-7.651-8.121 1.509-1.375 7.585 8.087a1.125 1.125 0 0 1 .3.773.864.864 0 0 1-.369.738 1.153 1.153 0 0 1-.638.267z" class="cls-1" transform="translate(-1757.45 -433.953)"/>
                </g>
                <path id="Union_1" d="M1597.271 442.892v18.525c0 1.641 0 1.641-1.692 1.641h-7.679c-1.9 0-1.911-.011-1.911-1.879q0-12.487-.016-24.968v-14.086c0-.449.067-.9.1-1.344l.281-.207 24.762 20.4v-18.72c0-1.559.072-1.635 1.621-1.635h8.219c1.222 0 1.438.214 1.438 1.427v40.023a2.108 2.108 0 0 1-.349 1.142zm79.268 20.242c-1.539-.021-3.082-.013-4.622-.013h-3.17c-1.462-.01-1.712-.419-1.066-1.767q9.35-19.557 18.742-39.089c.192-.4.643-.669.976-1 .33.337.779.613.97 1.016q9.319 19.509 18.61 39.028c.682 1.435.475 1.746-1.117 1.746h-2.474c-2.022 0-4.047-.011-6.069.023a1.343 1.343 0 0 1-1.44-.95q-4.268-9.7-8.555-19.381c-.1-.218-.216-.426-.442-.872-1.475 3.424-2.851 6.61-4.221 9.8-1.486 3.457-2.995 6.909-4.43 10.381a1.537 1.537 0 0 1-1.64 1.093zm-44.442-5.808c-1.777-1.71-1.767-1.847.187-3.305 1.745-1.3 3.491-2.579 5.2-3.908a1.114 1.114 0 0 1 1.795.163 10.239 10.239 0 0 0 10.2 3.357 3.105 3.105 0 0 0 2.8-2.538 2.989 2.989 0 0 0-2.128-3.108c-1.956-.829-3.969-1.526-5.982-2.21a18.8 18.8 0 0 1-7.816-4.376 11.764 11.764 0 0 1-3.105-10.2 12.222 12.222 0 0 1 10.851-10.242 26.28 26.28 0 0 1 3.71-.277 19.033 19.033 0 0 1 9.079 2.179 23.746 23.746 0 0 1 3.265 2.384 1.008 1.008 0 0 1 .093 1.711c-1.572 1.638-3.142 3.286-4.686 4.962a1.1 1.1 0 0 1-1.81.1 8.647 8.647 0 0 0-7.333-2.058 2.682 2.682 0 0 0-.934 5.114c1.957.821 3.984 1.475 6 2.158a23.416 23.416 0 0 1 8.271 4.264 10.65 10.65 0 0 1 3.492 8.262 11.875 11.875 0 0 1-4.582 10.372 15.046 15.046 0 0 1-7.184 2.7c-1.258.174-2.542.2-3.814.3a21.666 21.666 0 0 1-15.566-5.804zm-64.546 5.747c-.924 0-1.269-.349-1.269-1.3q.021-19.908-.01-39.814c0-1.035.445-1.352 1.382-1.352h.046c1.795.021 3.591.014 5.381.014h3.052c1.269 0 1.488.22 1.488 1.495V461.5c0 1.5-.065 1.556-1.572 1.556h-2.469c-1.989 0-3.976-.012-5.965.019z" class="cls-1" transform="translate(-1566.273 -420.574)"/>
            </g>
        </g>
        <path id="Subtraction_12" d="M42 70H8a8.009 8.009 0 0 1-8-8V8a8.009 8.009 0 0 1 8-8h54a8.009 8.009 0 0 1 8 8v54a8.009 8.009 0 0 1-8 8h-9.5V32.666H42V70zm0-53.666v10.5h10.5v-10.5z" class="cls-1" transform="translate(-.222 -.29)"/>
    </g>
</svg>
