<svg xmlns="http://www.w3.org/2000/svg" xmlns:xlink="http://www.w3.org/1999/xlink" width="146.116" height="58.877" viewBox="0 0 146.116 58.877">
    <defs>
        <linearGradient id="linear-gradient" x1=".545" x2=".542" y1="1" gradientUnits="objectBoundingBox">
            <stop offset="0" stop-color="#2e7fc2"/>
            <stop offset="1" stop-color="#1b488c"/>
        </linearGradient>
        <linearGradient id="linear-gradient-5" x1=".152" x2=".875" y1=".404" y2=".481" xlink:href="#linear-gradient"/>
        <clipPath id="clip-path">
            <path id="Path_28" d="M902.612 766.45h-.072l-17.26 17.26v24.336l12.132-12.132 17.332-17.332z" class="cls-1" data-name="Path 28" transform="translate(-885.28 -766.45)"/>
        </clipPath>
        <clipPath id="clip-path-2">
            <path id="Path_35" d="M17.332 0h-.073L0 17.26V41.6l12.132-12.136 17.332-17.332z" class="cls-1" data-name="Path 35"/>
        </clipPath>
        <style>
            .cls-1{fill:none}.cls-5{fill:url(#linear-gradient-5)}.cls-6{clip-path:url(#clip-path-2)}
        </style>
    </defs>
    <g id="Group_49" data-name="Group 49" transform="translate(-762 -431.092)">
        <g id="Group_41" clip-path="url(#clip-path)" data-name="Group 41" transform="translate(762 431.092)">
            <path id="Rectangle_24" d="M0 0H50.375V50.106H0z" class="cls-5" data-name="Rectangle 24" transform="rotate(-45.9 14.935 35.276)"/>
        </g>
        <g id="Group_48" class="cls-6" data-name="Group 48" transform="rotate(-90 625.944 -136.129)">
            <path id="Rectangle_31" d="M0 0H50.375V50.106H0z" class="cls-5" data-name="Rectangle 31" transform="rotate(-45.9 14.935 35.276)"/>
        </g>
        <g id="Group_46" class="cls-6" data-name="Group 46" transform="rotate(90 194.738 625.985)">
            <path id="Rectangle_29" d="M0 0H50.375V50.106H0z" class="cls-5" data-name="Rectangle 29" transform="rotate(-45.9 14.935 35.276)"/>
        </g>
        <g id="Group_47" class="cls-6" data-name="Group 47" transform="rotate(180 410.399 244.985)">
            <path id="Rectangle_30" d="M0 0H50.375V50.106H0z" class="cls-5" data-name="Rectangle 30" transform="rotate(-45.9 14.935 35.276)"/>
        </g>
        <path id="Union_1" fill="url(#linear-gradient)" d="M17.754 12.782v10.61c0 .94 0 .94-.969.94h-4.4c-1.088 0-1.095-.006-1.095-1.076q0-7.151-.009-14.3V.888c0-.257.038-.513.058-.77L11.5 0l14.182 11.685V.963c0-.893.041-.936.928-.936h4.707c.7 0 .824.123.824.817v22.923a1.208 1.208 0 0 1-.2.654zm45.4 11.594c-.882-.012-1.765-.008-2.647-.008h-1.816c-.837-.006-.98-.24-.61-1.012Q63.436 12.155 68.815.968c.11-.228.369-.383.559-.573.189.193.446.351.556.582q5.337 11.174 10.659 22.353c.39.822.272 1-.64 1h-1.417c-1.158 0-2.318-.006-3.476.013a.769.769 0 0 1-.825-.544q-2.444-5.554-4.9-11.1c-.055-.125-.123-.244-.253-.5-.845 1.961-1.633 3.786-2.418 5.612-.851 1.98-1.715 3.957-2.537 5.946a.881.881 0 0 1-.939.626zM37.7 21.049c-1.018-.979-1.012-1.058.107-1.893 1-.743 2-1.477 2.979-2.238a.639.639 0 0 1 1.028.093 5.865 5.865 0 0 0 5.84 1.923 1.779 1.779 0 0 0 1.606-1.454 1.712 1.712 0 0 0-1.219-1.78c-1.12-.475-2.273-.874-3.426-1.266a10.763 10.763 0 0 1-4.476-2.506 6.739 6.739 0 0 1-1.779-5.842A7 7 0 0 1 44.575.22 15.027 15.027 0 0 1 46.7.061a10.894 10.894 0 0 1 5.2 1.248 13.571 13.571 0 0 1 1.87 1.365.578.578 0 0 1 .053.98c-.9.938-1.8 1.882-2.684 2.842a.628.628 0 0 1-1.037.059 4.952 4.952 0 0 0-4.2-1.179 1.443 1.443 0 0 0-1.4 1.229 1.448 1.448 0 0 0 .865 1.7c1.121.47 2.282.845 3.434 1.236a13.414 13.414 0 0 1 4.737 2.442 6.1 6.1 0 0 1 2 4.732 6.8 6.8 0 0 1-2.624 5.94A8.617 8.617 0 0 1 48.8 24.2c-.721.1-1.456.117-2.185.172a12.408 12.408 0 0 1-8.915-3.323zM.733 24.341c-.529 0-.727-.2-.727-.745Q.019 12.193 0 .793C0 .2.255.019.792.019h.026C1.846.031 2.875.027 3.9.027h1.748c.727 0 .852.126.852.856v22.558c0 .857-.037.891-.9.891H4.186c-1.139 0-2.277-.007-3.416.011z" data-name="Union 1" transform="translate(827.314 448.463)"/>
    </g>
</svg>
