<svg xmlns="http://www.w3.org/2000/svg" xmlns:xlink="http://www.w3.org/1999/xlink" width="115" height="112.553" viewBox="0 0 115 112.553">
    <defs>
        <linearGradient id="linear-gradient" x1="2.792" x2="3.369" y1="-.264" y2=".98" gradientUnits="objectBoundingBox">
            <stop offset="0" stop-color="#aa80f9"/>
            <stop offset=".996" stop-color="#6165d7"/>
        </linearGradient>
        <linearGradient id="linear-gradient-2" x1="3.583" x2="2.486" y1=".069" y2="1.106" gradientUnits="objectBoundingBox">
            <stop offset="0" stop-color="#ffc444"/>
            <stop offset=".314" stop-color="#fba94a"/>
            <stop offset=".996" stop-color="#f36f56"/>
        </linearGradient>
        <linearGradient id="linear-gradient-3" x1="4.761" x2="3.827" y1=".094" y2="1.17" xlink:href="#linear-gradient-2"/>
        <linearGradient id="linear-gradient-5" x1="2.317" x2="3.317" y1=".5" y2=".5" gradientUnits="objectBoundingBox">
            <stop offset=".004" stop-color="#e38ddd"/>
            <stop offset="1" stop-color="#9571f6"/>
        </linearGradient>
        <linearGradient id="linear-gradient-6" x1="-13.318" x2="-13.756" y1="3.874" y2="2.947" gradientUnits="objectBoundingBox">
            <stop offset="0" stop-color="#311944"/>
            <stop offset="1" stop-color="#893976"/>
        </linearGradient>
        <linearGradient id="linear-gradient-7" x1="19.932" x2="19.303" y1="-3.754" y2="-4.968" xlink:href="#linear-gradient-6"/>
        <linearGradient id="linear-gradient-8" x1="2.513" x2="-1.566" y1=".453" y2="4.039" gradientUnits="objectBoundingBox">
            <stop offset="0" stop-color="#ff9085"/>
            <stop offset="1" stop-color="#fb6fbb"/>
        </linearGradient>
        <linearGradient id="linear-gradient-9" x1="-6.51" x2="-6.953" y1="2.078" y2=".013" gradientUnits="objectBoundingBox">
            <stop offset="0" stop-color="#444b8c"/>
            <stop offset=".996" stop-color="#26264f"/>
        </linearGradient>
        <linearGradient id="linear-gradient-10" x1="6.407" x2="7.403" y1=".708" y2=".708" xlink:href="#linear-gradient-9"/>
        <linearGradient id="linear-gradient-11" x1="14.049" x2="13.467" y1="1.932" y2="-.209" xlink:href="#linear-gradient-6"/>
        <linearGradient id="linear-gradient-12" x1="-1.531" x2="-.536" y1=".638" y2=".638" xlink:href="#linear-gradient-9"/>
        <linearGradient id="linear-gradient-13" x1="-4.093" x2="-4.156" y1="1.626" y2="-.348" xlink:href="#linear-gradient-6"/>
        <linearGradient id="linear-gradient-14" x1="1.513" x2="1.872" y1="1.163" y2=".333" gradientUnits="objectBoundingBox">
            <stop offset="0" stop-color="#40447e"/>
            <stop offset=".996" stop-color="#3c3b6b"/>
        </linearGradient>
        <linearGradient id="linear-gradient-15" x1="1.628" x2="2.07" y1="1.163" y2=".333" xlink:href="#linear-gradient-14"/>
        <linearGradient id="linear-gradient-16" x1="-.157" x2=".868" y1=".326" y2=".575" xlink:href="#linear-gradient-14"/>
        <linearGradient id="linear-gradient-17" x1="1.08" x2="-1.103" y1=".173" y2="1.896" xlink:href="#linear-gradient-8"/>
        <linearGradient id="linear-gradient-18" x1="2.019" x2="1.276" y1="-.55" y2="1.391" xlink:href="#linear-gradient-6"/>
        <linearGradient id="linear-gradient-19" x1="5.575" x2="3.882" y1="1.619" y2=".939" xlink:href="#linear-gradient-6"/>
        <linearGradient id="linear-gradient-20" x1=".279" x2="-2.188" y1=".033" y2="3.997" xlink:href="#linear-gradient-8"/>
        <linearGradient id="linear-gradient-21" x1="113.189" x2="113.428" y1="18.215" y2="19.422" gradientUnits="objectBoundingBox">
            <stop offset="0" stop-color="#ab316d"/>
            <stop offset="1" stop-color="#792d3d"/>
        </linearGradient>
        <linearGradient id="linear-gradient-22" x1="17.493" x2="17.261" y1="1.854" y2=".929" xlink:href="#linear-gradient"/>
        <linearGradient id="linear-gradient-23" x1="15.524" x2="14.426" y1=".069" y2="1.106" xlink:href="#linear-gradient-2"/>
        <linearGradient id="linear-gradient-24" x1="14.55" x2="13.617" y1=".094" y2="1.17" xlink:href="#linear-gradient-2"/>
        <linearGradient id="linear-gradient-25" x1="46.313" x2="46.196" y1="-.944" y2="-2.039" gradientUnits="objectBoundingBox">
            <stop offset=".004" stop-color="#26264f"/>
            <stop offset="1" stop-color="#444b8c"/>
        </linearGradient>
        <linearGradient id="linear-gradient-26" x1="21.373" x2="21.431" y1="-2.877" y2=".036" xlink:href="#linear-gradient-21"/>
        <linearGradient id="linear-gradient-27" x1="-38.169" x2="-36.716" y1="-13.185" y2="-11.599" xlink:href="#linear-gradient-21"/>
        <linearGradient id="linear-gradient-28" x1="50.185" x2="50.558" y1=".882" y2="1.618" xlink:href="#linear-gradient-21"/>
        <linearGradient id="linear-gradient-29" x1="-28.076" x2="-28.859" y1="5.11" y2="-2.549" xlink:href="#linear-gradient-9"/>
        <linearGradient id="linear-gradient-30" x1="-101.364" x2="-101.364" y1="3.717" y2="-6.049" xlink:href="#linear-gradient-21"/>
        <linearGradient id="linear-gradient-31" x1="-76.039" x2="-76.039" y1="3.261" y2="-6.493" xlink:href="#linear-gradient-21"/>
        <linearGradient id="linear-gradient-32" x1="-35.419" x2="-36.396" y1="2.024" y2="-2.015" xlink:href="#linear-gradient-9"/>
        <linearGradient id="linear-gradient-33" x1="-12.453" x2="-12.623" y1=".153" y2="1.12" xlink:href="#linear-gradient"/>
        <linearGradient id="linear-gradient-35" x1="-6.659" x2="-9.164" y1=".569" y2=".528" xlink:href="#linear-gradient"/>
        <linearGradient id="linear-gradient-36" x1="5.441" x2="5.627" y1=".269" y2="1.092" xlink:href="#linear-gradient"/>
        <linearGradient id="linear-gradient-37" x1="7.26" x2="7.528" y1=".009" y2="1.163" xlink:href="#linear-gradient"/>
        <linearGradient id="linear-gradient-38" x1="-2.6" x2="-2.661" y1="-2.988" y2="-2.02" xlink:href="#linear-gradient"/>
        <linearGradient id="linear-gradient-39" x1=".537" x2=".424" y1=".09" y2="1.077" xlink:href="#linear-gradient"/>
        <linearGradient id="linear-gradient-40" x1="9.053" x2="7.955" y1=".069" y2="1.106" xlink:href="#linear-gradient-2"/>
        <linearGradient id="linear-gradient-41" x1="7.425" x2="6.492" y1=".094" y2="1.17" xlink:href="#linear-gradient-2"/>
        <linearGradient id="linear-gradient-42" x1="0" x2="1" y1=".5" y2=".5" xlink:href="#linear-gradient-2"/>
        <linearGradient id="linear-gradient-43" x1="5.194" x2="4.228" y1=".061" y2="1.175" gradientUnits="objectBoundingBox">
            <stop offset="0" stop-color="#ffc444"/>
            <stop offset=".314" stop-color="#fba94a"/>
            <stop offset="1" stop-color="#f36f56"/>
        </linearGradient>
        <linearGradient id="linear-gradient-44" x1="6.282" x2="5.185" y1=".063" y2="1.101" xlink:href="#linear-gradient-2"/>
        <clipPath id="clip-path">
            <path id="Path_3188" d="M1654.2 1904.892c3.188-.381 3.973-4.232 4.09-8.681s7.084-5.89 9.386-6.984c3.287-1.562 4.472-2.442 5.176-10.115-.237-10.762 3.841-17.8 8.658-17.3 4.881.5 6.71 5.457 5.461 10.051-.621 2.286 1.416 3.047 2.1 5.209a5.259 5.259 0 0 1 .159 2.267c-.391 4-5.946 4.434-7.239 8.369-1.145 3.484 2.531 5.212 1.312 8.351-1.1 2.843-4.406 2.162-10.769 7a11.922 11.922 0 0 1-2.9 2.422c-2.106 1.125-5.706 2.6-7.359 4.708a48.617 48.617 0 0 0-6.533-.188c-2.086-.33-4.155-.769-6.2-1.287a6.11 6.11 0 0 1 4.658-3.822z" class="cls-1" transform="translate(-1649.531 -1861.785)"/>
        </clipPath>
        <clipPath id="clip-path-2">
            <path id="Path_3195" fill="none" d="M1688.772 1447.97l10.149 8.943c1.806-.821 4.8-2.63 3.23-5.111-2.184-3.449 2.185-8.337 4.562-9.323 2.941-1.22 9.724-4.2 6.43-9.582-2.742-4.479-5.416-6.869-1.515-11.628s3.852-9.948-.792-13.611c-4.887-3.855-3.391-12.995-8.95-14.463-9.687-2.558-12.88 12.761-7.507 22.834s-1.72 8.651-5.344 12.159c-4.948 4.789 3.368 10.258 3.474 13.974.083 2.911-2.175 4.807-3.737 5.808z" transform="translate(-1687.464 -1392.911)"/>
        </clipPath>
        <style>
            .cls-1{fill:url(#linear-gradient)}.cls-6{fill:#fff}.cls-6,.cls-8{mix-blend-mode:soft-light}.cls-49,.cls-6,.cls-8{isolation:isolate}.cls-8{opacity:.5}.cls-9{fill:#fcfdfe}.cls-49{opacity:.3;mix-blend-mode:multiply;fill:url(#linear-gradient-42)}
        </style>
    </defs>
    <g id="Group_746" transform="translate(-381.605 -440.129)">
        <path id="Path_3176" fill="#f4f7fa" d="M485.44 461.394c-1.753-2.394-16.764-22.195-41.1-21.23-1.216.048-24.946 1.3-33.7 16.82-6.475 11.481.38 21.668-7.518 29.491-6.882 6.816-15.34 2.3-19.57 7.816-6.442 8.4 3.817 31.072 19.581 43.718 16.277 13.058 47.416 22.638 71.618 5.216 27.178-19.56 26.902-59.691 10.689-81.831z"/>
        <g id="Group_720" transform="translate(460.126 471.085)">
            <g id="Group_719">
                <path id="Path_3177" fill="url(#linear-gradient-2)" d="M2687.753 1245.855l10.085-1.233v-14.874l-10.085-1.91z" transform="translate(-2675.451 -1227.837)"/>
                <g id="Group_718">
                    <path id="Path_3178" fill="url(#linear-gradient-3)" d="M2378.635 1245.071l12.3.784v-18.018l-12.3 1.7z" transform="translate(-2378.635 -1227.837)"/>
                    <path id="Path_3179" d="M2472.417 1243.923v2.526l-4.1.383v-2.344z" class="cls-6" transform="translate(-2464.752 -1243.283)"/>
                </g>
            </g>
        </g>
        <g id="Group_729" transform="translate(428.701 476.848)">
            <g id="Group_724" transform="translate(2.743 18.659)">
                <path id="Path_3180" d="M1654.2 1904.892c3.188-.381 3.973-4.232 4.09-8.681s7.084-5.89 9.386-6.984c3.287-1.562 4.472-2.442 5.176-10.115-.237-10.762 3.841-17.8 8.658-17.3 4.881.5 6.71 5.457 5.461 10.051-.621 2.286 1.416 3.047 2.1 5.209a5.259 5.259 0 0 1 .159 2.267c-.391 4-5.946 4.434-7.239 8.369-1.145 3.484 2.531 5.212 1.312 8.351-1.1 2.843-4.406 2.162-10.769 7a11.922 11.922 0 0 1-2.9 2.422c-2.106 1.125-5.706 2.6-7.359 4.708a48.617 48.617 0 0 0-6.533-.188c-2.086-.33-4.155-.769-6.2-1.287a6.11 6.11 0 0 1 4.658-3.822z" class="cls-1" transform="translate(-1649.531 -1861.785)"/>
                <g id="Group_723" clip-path="url(#clip-path)">
                    <g id="Group_722" transform="translate(2.093 -3.134)">
                        <g id="Group_721" class="cls-8">
                            <path id="Path_3181" d="M1702.12 1839.837l.121.139c.773-.663 1.544-1.341 2.292-2.017a99.252 99.252 0 0 0 14.341-15.98 81.063 81.063 0 0 0 8.381-14.781 69.732 69.732 0 0 0 4.041-12.336 57.761 57.761 0 0 0 1.273-8.457c.034-.474.042-.962.051-1.435.01-.629.021-1.28.094-1.9l-.177-.034c-.073.63-.084 1.285-.1 1.918-.008.47-.016.956-.05 1.425a57.584 57.584 0 0 1-1.269 8.431 69.585 69.585 0 0 1-4.031 12.307 80.874 80.874 0 0 1-8.365 14.752 99.056 99.056 0 0 1-14.318 15.954c-.742.677-1.512 1.352-2.284 2.014z" class="cls-9" transform="translate(-1702.12 -1783.035)"/>
                            <path id="Path_3182" d="M2256.164 2280.02l.155.1c3.686-6.386 15.68-10.647 15.8-10.689l-.07-.168c-.12.037-12.17 4.32-15.885 10.757z" class="cls-9" transform="translate(-2234.115 -2249.91)"/>
                            <path id="Path_3183" d="M1955.94 2627.167l.145.114c3.036-4.006.687-13.919.662-14.02l-.173.029c.026.1 2.354 9.933-.634 13.877z" class="cls-9" transform="translate(-1945.839 -2580.222)"/>
                            <path id="Path_3184" d="M1907.427 2906.446l.124.136c2.44-2.186 7.038-3.768 12.946-4.453.3-.035.3-.035.322-.056l-.122-.138.061.069-.033-.085c-.019 0-.131.018-.261.033-5.943.69-10.572 2.286-13.037 4.494z" class="cls-9" transform="translate(-1899.256 -2857.393)"/>
                            <path id="Path_3185" d="M1730.162 2976.692l.155.1c1.826-3.134-.258-8.448-.279-8.5l-.164.055c.026.053 2.073 5.284.288 8.345z" class="cls-9" transform="translate(-1728.769 -2921.121)"/>
                            <path id="Path_3186" d="M2416.221 1932.79l.16.089a44.873 44.873 0 0 1 5.592-8.16c.225-.269.3-.363.325-.4l-.157-.1c-.017.029-.146.182-.308.376a45.065 45.065 0 0 0-5.612 8.195z" class="cls-9" transform="translate(-2387.802 -1918.603)"/>
                            <path id="Path_3187" d="M2259.753 2040.155l.176.04c.594-3.888-4.155-10.639-4.357-10.925l-.142.1c.049.066 4.906 6.97 4.323 10.785z" class="cls-9" transform="translate(-2233.41 -2019.472)"/>
                        </g>
                    </g>
                </g>
            </g>
            <g id="Group_728">
                <path id="Path_3189" fill="url(#linear-gradient-5)" d="M1580.665 1459.011c.481.332 1.967-2.353 5.777-4.082.952-.432 5.98-3.148 9.282-.4l1.923 1.6c1.783-.917 3.294-2.112 1.888-4.333-2.184-3.449 2.185-8.337 4.562-9.322 2.942-1.22 9.724-4.2 6.43-9.582-2.742-4.479-5.416-6.869-1.516-11.628s3.852-9.948-.792-13.611c-4.887-3.855-3.391-12.995-8.951-14.463-9.687-2.558-12.88 12.761-7.507 22.834s-1.72 8.651-5.344 12.159a8.723 8.723 0 0 0-1.21 1.668c-2.618 4.7.864 9.035.918 14.855.075 7.939-6.27 13.746-5.46 14.305z" transform="translate(-1580.593 -1392.91)"/>
                <g id="Group_727" transform="translate(4.253)">
                    <g id="Group_726" clip-path="url(#clip-path-2)">
                        <g id="Group_725" class="cls-8" transform="translate(.04 -1.367)">
                            <path id="Path_3190" d="M1874.324 1417.715l.252.151c10.231-17.468 11.481-40.189 3.264-59.3l-.264.1c8.182 19.028 6.937 41.654-3.252 59.049z" class="cls-9" transform="translate(-1866.927 -1358.569)"/>
                            <path id="Path_3191" d="M1992.894 2453.766l.219.195c5.37-5.876 14.944-5.667 15.04-5.664l-.007-.282c-.097-.004-9.798-.215-15.252 5.751z" class="cls-9" transform="translate(-1980.779 -2404.657)"/>
                            <path id="Path_3192" d="M1697.648 2303.786l.282.074c1.761-7.936-9.157-18.982-9.268-19.093l-.2.192c.109.11 10.913 11.041 9.186 18.827z" class="cls-9" transform="translate(-1688.462 -2247.909)"/>
                            <path id="Path_3193" d="M2089.639 1850.368l.275.1c1.947-6.126 11.075-10.1 11.167-10.143l-.127-.26c-.093.035-9.332 4.064-11.315 10.303z" class="cls-9" transform="translate(-2073.673 -1820.901)"/>
                            <path id="Path_3194" d="M1799.222 1467.54l.274-.072c-2.338-7.187-11.374-12.394-11.465-12.445l-.134.242c.09.051 9.023 5.2 11.325 12.275z" class="cls-9" transform="translate(-1783.94 -1451.184)"/>
                        </g>
                    </g>
                </g>
            </g>
        </g>
        <g id="Group_733" transform="translate(455.864 483.998)">
            <path id="Path_3196" fill="url(#linear-gradient-6)" d="M2375.062 1576.465a.934.934 0 0 0 .281-.919c-.161-.536-.941-1.047-.717-1.762s-.776.368-.571.919.447 1.431.447 1.431z" transform="translate(-2369.949 -1573.509)"/>
            <path id="Path_3197" fill="url(#linear-gradient-7)" d="M2903.247 1575.881c-.042.023-.791-.586-.579-1.16s1.16-1.859 1.213-2.121a2.63 2.63 0 0 1-.075 1.932 1.189 1.189 0 0 0-.167 1.133z" transform="translate(-2877.515 -1572.571)"/>
            <path id="Path_3198" fill="url(#linear-gradient-8)" d="M2277.12 1637.785c-2.069 3.419-2.078 7.39-.136 9.733a7.808 7.808 0 0 0 5.472 2.766c1.164.018 1.741-.328 2.152.056 1.044.974-.245 5.466-2.7 6.4-3.191 1.211-9.3-3.238-10.254-8.925-.9-5.408 3.25-9.6 3.776-10.114z" transform="translate(-2271.528 -1635.107)"/>
            <path id="Path_3199" fill="url(#linear-gradient-9)" d="M2570.317 1801.793a6.983 6.983 0 0 0-2.145-4.585c-2.42-2.364-5.836-2.272-6.93-2.243-3.88.1-4.756 2.03-7.462 1.313-2.292-.607-2.469-2.2-4.441-2.308a5.834 5.834 0 0 0-5.091 3.332c-1.669 3.532.936 9.037 4.653 10.7 3.862 1.726 5.952-2.026 13.033-.918 2.583.4 4.1 1.184 5.77.238 1.833-1.038 2.706-3.493 2.613-5.529z" transform="translate(-2532.899 -1785.154)"/>
            <path id="Path_3200" fill="url(#linear-gradient-10)" d="M2481.745 3231.33a.771.771 0 0 1 .2.537.335.335 0 0 1-.131.263 5.21 5.21 0 0 1-1.21.673c-.885.36-1.182.325-1.218.177s.421-.544.812-.892a6.8 6.8 0 0 1 1.547-.758z" transform="translate(-2471.115 -3165.318)"/>
            <path id="Path_3201" fill="url(#linear-gradient-11)" d="M2518.847 3196.909a11.9 11.9 0 0 0-.271 1.821.712.712 0 0 1-.855-.007 5.84 5.84 0 0 0 .145-1.725z" transform="translate(-2507.924 -3132.266)"/>
            <path id="Path_3202" fill="url(#linear-gradient-12)" d="M2735.68 3244.962a.769.769 0 0 1 .275.5.335.335 0 0 1-.093.279 5.22 5.22 0 0 1-1.105.834c-.826.479-1.126.485-1.182.344s.341-.6.681-1a6.783 6.783 0 0 1 1.424-.957z" transform="translate(-2715.182 -3178.407)"/>
            <path id="Path_3203" fill="url(#linear-gradient-13)" d="M2770.119 3214.072a11.926 11.926 0 0 0-.271 1.821.712.712 0 0 1-.855-.007 5.855 5.855 0 0 0 .145-1.725z" transform="translate(-2749.196 -3148.747)"/>
            <path id="Path_3204" fill="url(#linear-gradient-14)" d="M2462.892 2467.377c-.12 4.01-.1 8.313.125 12.873.28 5.7.84 10.977 1.551 15.788a3.836 3.836 0 0 0 1.872.063c.127-.566.324-1.428.583-2.476.468-1.9.579-2.15.726-2.8.609-2.705-.154-3.478.24-6.271a29.492 29.492 0 0 1 .966-3.5c1.054-3.671 1.586-5.506 1.838-6.912.675-3.774 1.012-5.661-.035-6.834-1.37-1.538-4.585-1.329-7.866.069z" transform="translate(-2455.207 -2430.674)"/>
            <path id="Path_3205" d="M2504.548 2493.763c.449-1.241-.315-1.88-.293-4.028.019-1.852.6-2.079.784-4.159.174-1.908-.244-2.455-.338-4.216-.178-3.319 1.142-4.421 1.417-6.962.189-1.75-.106-4.3-2.411-7.641 2.629-.785 5-.7 6.123.558 1.047 1.174.71 3.061.036 6.834-.251 1.406-.784 3.241-1.837 6.912a29.382 29.382 0 0 0-.966 3.5c-.395 2.792.369 3.565-.241 6.27-.147.653-.258.9-.726 2.8-.259 1.048-.457 1.91-.583 2.476a3.844 3.844 0 0 1-1.872-.063q-.065-.441-.128-.887a3.242 3.242 0 0 0 1.035-1.394z" transform="translate(-2494.279 -2430.685)" style="mix-blend-mode:multiply;isolation:isolate" fill="url(#linear-gradient-15)" opacity="0.3"/>
            <path id="Path_3206" fill="url(#linear-gradient-16)" d="M2572.908 2481.3c1.572 4.384 3.1 9.254 4.453 14.58 1.313 5.179 2.273 10.058 2.976 14.552a2.555 2.555 0 0 0 2.107.032 23.91 23.91 0 0 0 1.424-5.062 17.124 17.124 0 0 0 .295-4.58c-.211-2.444-.88-2.835-1.172-5.253-.218-1.806.086-2.161.181-4.773.147-4.052.223-6.14-.778-7.59-2.15-3.114-8.443-2.087-9.486-1.906z" transform="translate(-2560.914 -2444.842)"/>
            <path id="Path_3207" fill="url(#linear-gradient-17)" d="M2407.924 1681.878c.473-2.669.087-2.538.531-5.621.581-4.036 1.3-4.7 1.65-7.54a23.718 23.718 0 0 0-.54-7.881 13.522 13.522 0 0 1 7.914-.957 11.972 11.972 0 0 1 1.428.315c.41-.25.979.052 2.053.054a7.809 7.809 0 0 0 5.518-2.673c1.982-2.31 2.04-6.28.029-9.734l1.69-.057c.365.373 5.158 5.408 3.6 10.177a11.761 11.761 0 0 1-3.819 4.923c-1.761 1.305-2.815 1.229-4.586 3.02a7.227 7.227 0 0 1-1.613 1.441c-1.631 2.851-1.61 4.587-1.079 5.7s1.538 1.5 2.6 3.707c1.056 2.189.608 2.931 1.562 3.893 1.712 1.726 4.325.521 4.888 1.7.553 1.161-1.417 3.483-3.414 4.643a9.463 9.463 0 0 1-4.179 1.156c-1.949.166-2.266-.251-5.536-.528a23.23 23.23 0 0 0-5.677-.064c-2.554.361-3.365 1.076-3.976.562-.795-.675.276-2.394.956-6.236z" transform="translate(-2401.311 -1644.79)"/>
            <g id="Group_731" transform="translate(12.806 11.336)">
                <path id="Path_3208" fill="url(#linear-gradient-18)" d="M2595.908 1880.521a3.008 3.008 0 0 0 .512 1.775 2.332 2.332 0 0 0 1.15.973c.575.264.924.189.938.3.032.242-1.621 1.008-3.321.651-1-.209-1.942-.792-1.877-1.113.074-.36 1.358-.1 1.806-.794a1.775 1.775 0 0 0-.121-1.6c.333-.275.579.087.913-.192z" transform="translate(-2593.307 -1879.602)"/>
                <g id="Group_730" transform="translate(.67)">
                    <path id="Path_3209" fill="url(#linear-gradient-19)" d="M2612.134 1859.564a1.475 1.475 0 0 1-1.473.467c-.79-.226-.565-2.227.017-2.541a.94.94 0 0 1 .809.051c.156.085.2.171.455.3.237.123.313.107.375.193.079.107.111.335-.146.881a.413.413 0 0 1 .5-.071.309.309 0 0 1 .087.137c.07.254-.168.504-.624.583z" transform="translate(-2610.151 -1857.421)"/>
                </g>
            </g>
            <g id="Group_732" transform="translate(14.067 8.437)" style="mix-blend-mode:multiply;isolation:isolate" opacity="0.3">
                <path id="Path_3210" fill="url(#linear-gradient-20)" d="M2630.18 1815.5c-1.415-2.855-5.005-3.134-5.166-5.407-.118-1.664 1.777-1.888 2.529-4.284 1.131-3.6-2.264-5.919-1.062-8.394.821-1.69 2.6-1.021 6.75-3.191 1.935-1.012 5.006-2.62 6.772-5.834a11.051 11.051 0 0 0 1.245-3.8 7.4 7.4 0 0 1 .182 4.733 11.762 11.762 0 0 1-3.819 4.923c-1.761 1.305-2.815 1.229-4.586 3.02a7.223 7.223 0 0 1-1.613 1.441c-1.631 2.852-1.61 4.587-1.079 5.7s1.538 1.5 2.6 3.707c1.056 2.189.608 2.93 1.562 3.893 1.712 1.726 4.325.521 4.888 1.7.553 1.161-1.417 3.483-3.414 4.643a9.466 9.466 0 0 1-4.179 1.156 8.47 8.47 0 0 1-1.237.026 6.147 6.147 0 0 0-.373-4.032z" transform="translate(-2625.009 -1784.585)"/>
            </g>
        </g>
        <g id="Group_739" transform="translate(388.989 471.911)">
            <path id="Path_3211" fill="url(#linear-gradient-21)" d="M950.365 1601.335a4.248 4.248 0 0 0 .932-1.149c.137-.431-.56-1.432-.944-2.3s-.246.569-.217.9a2.178 2.178 0 0 1-.116 1.788z" transform="translate(-934.783 -1584.523)"/>
            <path id="Path_3212" fill="url(#linear-gradient-22)" d="M797.768 1655.479s.894 6.659-6.122 11.354l7.466 1.781s2.39-4.468.66-11.87z" transform="translate(-782.712 -1640.092)"/>
            <g id="Group_736" transform="translate(11.878)">
                <g id="Group_735">
                    <path id="Path_3213" fill="url(#linear-gradient-23)" d="M1174.753 1286.855l10.085-1.233v-14.874l-10.085-1.91z" transform="translate(-1162.451 -1268.837)"/>
                    <g id="Group_734">
                        <path id="Path_3214" fill="url(#linear-gradient-24)" d="M865.635 1286.071l12.3.784v-18.018l-12.3 1.7z" transform="translate(-865.635 -1268.837)"/>
                        <path id="Path_3215" d="M959.417 1284.924v2.526l-4.1.383v-2.344z" class="cls-6" transform="translate(-951.752 -1284.283)"/>
                    </g>
                </g>
            </g>
            <path id="Path_3216" fill="url(#linear-gradient-25)" d="M694.389 1747.787c.331-.653.468-.649.549-.993.185-.785-.293-1.782-.7-1.8-.262-.009-.283.4-.837 1.032-.679.777-1.091.675-1.49 1.349-.094.158-.514.868-.255 1.4a1.544 1.544 0 0 0 2.175.262c.259-.245.15-.446.558-1.25z" transform="translate(-686.622 -1726.049)"/>
            <path id="Path_3217" fill="url(#linear-gradient-26)" d="M684.072 1834.185a8.536 8.536 0 0 1 .074 2.489c-.165 1.009-2.034 2.056-2.392 2.357s.95.626 2.15.469 4.485-1.208 4.984-1.794-.581-.3-1.49-.408-1.776-1.634-1.8-2.411-1.526-.702-1.526-.702z" transform="translate(-677.136 -1811.684)"/>
            <g id="Group_737" transform="translate(6.436 20.883)">
                <path id="Path_3218" fill="url(#linear-gradient-27)" d="M729.761 1796.224a1.775 1.775 0 0 0 1.732-.247c.728-.583-.355-2.372-1.1-2.395a1.174 1.174 0 0 0-.821.429c-.126.153-.133.255-.344.5-.194.227-.279.247-.309.358-.037.138.026.368.525.764a.506.506 0 0 0-.546.165.316.316 0 0 0-.033.17c.035.27.388.395.896.256z" transform="translate(-728.869 -1793.582)"/>
            </g>
            <path id="Path_3219" fill="url(#linear-gradient-28)" d="M1258.5 1661.274s.556-.078.383-1.14c-.136-.833-.033-1.113.164-.965s.224.629.224.629a3.936 3.936 0 0 0 1.012-1.413c.3-.8.485-.126.548.274a3.631 3.631 0 0 1-.7 1.877 5.011 5.011 0 0 0-.675 1.254z" transform="translate(-1230.983 -1642.523)"/>
            <path id="Path_3220" fill="url(#linear-gradient-29)" d="M736.659 3214.916c-.286.584-.206.834-.135.945.209.324.712.018 2.024.174a2.207 2.207 0 0 0 .815-.029c.314-.074.684-.241.669-.325-.006-.031-.062-.043-.083-.047-.364-.078-2.645-.778-2.645-.778z" transform="translate(-729.72 -3137.412)"/>
            <path id="Path_3221" fill="url(#linear-gradient-30)" d="M737.139 3182.716l.2 1.3s.561.4.708-.085a6.759 6.759 0 0 0 .1-1.279z" transform="translate(-730.374 -3106.494)"/>
            <path id="Path_3222" fill="url(#linear-gradient-31)" d="M865.156 3185.983l-.55 1.5-.8-.127.185-1.391z" transform="translate(-852.001 -3109.673)"/>
            <path id="Path_3223" fill="url(#linear-gradient-32)" d="M858.012 3209.829c-.387-.459-.733-.417-.8-.733a.647.647 0 0 1 .326-.668.879.879 0 0 1 .8.149c.6.389.436 1 1 1.261a1.516 1.516 0 0 1 .483.288c.081.076.28.263.234.391-.054.149-.41.144-.748.139a1.475 1.475 0 0 1-.8-.131c-.278-.168-.196-.341-.495-.696z" transform="translate(-845.656 -3131.188)"/>
            <path id="Path_3224" fill="url(#linear-gradient-33)" d="M629.619 2399.757a43.045 43.045 0 0 0 1.077 7.739 35.153 35.153 0 0 1 1.006 4.236c.4 3.428-.7 3.943-.815 7.831a23.654 23.654 0 0 0 1.556 8.964 24.586 24.586 0 0 0 1.168 2.667c.4.334 1 .189 1.629.047.15-3.894.363-7.559.513-11.453l1.882-17.6z" transform="translate(-627.133 -2354.75)"/>
            <path id="Path_3225" d="M635.241 2431.241c.15-3.894.363-7.559.513-11.453l1.882-17.6-8.016-2.436c.01.2.024.4.036.592 3.792 3.153 4.576 5.7 4.577 7.446 0 2.12-1.135 3.2-.842 6.262.209 2.193.878 2.566.92 4.548.054 2.552-1.01 4.011-1.512 5.5a9.233 9.233 0 0 0 .432 6.31c.137.294.266.557.382.782.399.336.997.192 1.628.049z" transform="translate(-627.133 -2354.75)" style="mix-blend-mode:multiply;isolation:isolate" fill="url(#linear-gradient-33)" opacity="0.3"/>
            <path id="Path_3226" fill="url(#linear-gradient-35)" d="M743.52 2359.606a30.1 30.1 0 0 1 4.568 7.626c.952 2.32 1.642 4.06 1.426 6.312-.238 2.479-1.362 3.37-2.109 5.483-.724 2.05-1.077 5.2.812 9.9l1.426.494c.316-1.268.827-3.165 1.591-5.424a73.73 73.73 0 0 1 3.431-8.338c1.437-3.222 1.582-8.975-4.4-20.075z" transform="translate(-736.501 -2312.332)"/>
            <path id="Path_3227" fill="url(#linear-gradient-36)" d="M596.151 1715.089l-1.9-1.329c-.77 4.733-2.52 6.59-4.006 7.4-3.586 1.96-6.786-1.533-13.65-.107-1.891.393-5.188 1.125-7.017 3.819-.481.708-.651 1.244-1.449 6.325-1.02 6.495-1.056 7.628-.912 9.027.263 2.559.423 4.11 1.6 5.483 3.133 3.645 9.794 1.766 10.629 1.518 1.543-.457 3.94-1.167 4.893-3.205.448-.959.4-1.836-.288-5.343-1.364-6.948-1.539-7.4-1.158-8.158 1.285-2.567 5.358-1.1 8.8-3.486 2.012-1.394 4.279-4.433 4.458-11.944z" transform="translate(-567.156 -1696.054)"/>
            <path id="Path_3228" d="M750.507 1983.192c.672-1.377-.231-2.646.759-4.3 1.262-2.11 3.532-1.394 4.386-2.952 1.461-2.666-4.29-6.384-3.121-10.628a6.533 6.533 0 0 1 4.133-4.049c3.613-1.234 5.976 1.911 9.363.928a5.817 5.817 0 0 0 2.656-1.718 8.473 8.473 0 0 1-2.812 3.457c-3.44 2.387-7.513.918-8.8 3.486-.381.761-.207 1.21 1.158 8.158.689 3.507.736 4.384.288 5.343-.953 2.039-3.35 2.749-4.892 3.206a17.6 17.6 0 0 1-5.074.7 3.465 3.465 0 0 0 1.956-1.631z" transform="translate(-741.335 -1932.946)" style="mix-blend-mode:multiply;isolation:isolate" fill="url(#linear-gradient-37)" opacity="0.3"/>
            <g id="Group_738" transform="translate(4.405 17.979)">
                <path id="Path_3229" fill="url(#linear-gradient-38)" d="M678.932 1755.617a8.209 8.209 0 0 0 1.714-3.692c-.574-.308-1.874-.677-2.629 1.381a1.653 1.653 0 0 0 .915 2.311z" transform="translate(-677.856 -1750.447)"/>
                <path id="Path_3230" fill="url(#linear-gradient-39)" d="M741.748 1722.508s.773-1.643.508-1.881c0 0-.177-.23-.679 1.35a1.313 1.313 0 0 1 .171.531z" transform="translate(-739.041 -1720.615)"/>
            </g>
        </g>
        <g id="Group_745" transform="translate(409.668 491.229)">
            <g id="Group_742" transform="translate(10.741)">
                <g id="Group_741">
                    <path id="Path_3231" fill="url(#linear-gradient-40)" d="M1382.043 1781l-14.961-1.829V1757.1l14.961-2.834z" transform="translate(-1367.083 -1754.27)"/>
                    <g id="Group_740" transform="translate(14.961)">
                        <path id="Path_3232" fill="url(#linear-gradient-41)" d="M1761.26 1779.835l-18.248 1.165v-26.73l18.248 2.519z" transform="translate(-1743.012 -1754.27)"/>
                        <path id="Path_3233" d="M1915.863 1778.133v10.9l6.075.484v-10.543z" class="cls-6" transform="translate(-1908.984 -1777.183)"/>
                    </g>
                </g>
                <path id="Path_3234" d="M1367.279 1825.478s4.605 1.048 4.679 4.637-2.273 6.006.511 7.032 6.381.226 6.816 4.034 2.631 4.621 2.631 4.621h-14.636z" class="cls-49" transform="translate(-1367.271 -1822.644)"/>
            </g>
            <g id="Group_744" transform="translate(0 19.914)">
                <g id="Group_743">
                    <path id="Path_3235" fill="url(#linear-gradient-43)" d="M1696.675 2293.376l-27.753 1.952v-40.648l27.753 1.952z" transform="translate(-1646.169 -2254.679)"/>
                    <path id="Path_3236" fill="url(#linear-gradient-44)" d="M1119.941 2295.328l-22.753-2.781v-35.272l22.753-2.595z" transform="translate(-1097.188 -2254.679)"/>
                    <path id="Path_3237" d="M1915.8 2272.043v16.493h9.3V2272.7z" class="cls-6" transform="translate(-1883.218 -2271.352)"/>
                </g>
                <path id="Path_3238" d="M1097.257 2366.572s6.681.586 6.876 6.641-2.931 9.669 1.757 12.99 9.571 4.59 10.157 9.669a8.789 8.789 0 0 0 4.4 6.9l-23.187-2.781z" class="cls-49" transform="translate(-1097.254 -2362.119)"/>
            </g>
        </g>
    </g>
</svg>
