<svg xmlns="http://www.w3.org/2000/svg" xmlns:xlink="http://www.w3.org/1999/xlink" width="97.984" height="98.874" viewBox="0 0 97.984 98.874">
    <defs>
        <linearGradient id="linear-gradient" x1="-.06" x2=".971" y1=".523" y2=".523" gradientUnits="objectBoundingBox">
            <stop offset=".004" stop-color="#e38ddd"/>
            <stop offset="1" stop-color="#9571f6"/>
        </linearGradient>
        <linearGradient id="linear-gradient-2" x1=".896" x2=".592" y1=".852" y2="1.923" xlink:href="#linear-gradient"/>
        <linearGradient id="linear-gradient-3" x1=".104" x2=".271" y1=".52" y2=".496" gradientUnits="objectBoundingBox">
            <stop offset=".004" stop-color="#26264f"/>
            <stop offset="1" stop-color="#444b8c"/>
        </linearGradient>
        <linearGradient id="linear-gradient-4" x1=".224" x2=".333" y1="1.168" y2=".92" gradientUnits="objectBoundingBox">
            <stop offset="0" stop-color="#444b8c"/>
            <stop offset=".996" stop-color="#26264f"/>
        </linearGradient>
        <linearGradient id="linear-gradient-5" x1=".544" x2=".375" y1="1.144" y2="-.313" xlink:href="#linear-gradient-4"/>
        <linearGradient id="linear-gradient-6" x1=".69" x2=".96" y1=".085" y2="-.45" xlink:href="#linear-gradient-4"/>
        <linearGradient id="linear-gradient-7" x1=".574" x2=".226" y1=".133" y2="1.688" xlink:href="#linear-gradient-4"/>
        <linearGradient id="linear-gradient-8" x1=".746" x2="-.095" y1="-.158" y2="1.967" gradientUnits="objectBoundingBox">
            <stop offset="0" stop-color="#fcb148"/>
            <stop offset=".052" stop-color="#fdb946"/>
            <stop offset=".142" stop-color="#fec144"/>
            <stop offset=".318" stop-color="#ffc444"/>
            <stop offset=".485" stop-color="#fdb946"/>
            <stop offset=".775" stop-color="#f99c4c"/>
            <stop offset=".866" stop-color="#f8924f"/>
            <stop offset="1" stop-color="#f8924f"/>
        </linearGradient>
        <linearGradient id="linear-gradient-9" x1="4.94" x2=".81" y1="-8.634" y2="-.138" gradientUnits="objectBoundingBox">
            <stop offset="0" stop-color="#ff9085"/>
            <stop offset="1" stop-color="#fb6fbb"/>
        </linearGradient>
        <linearGradient id="linear-gradient-10" x1="4.569" x2=".429" y1="-7.847" y2=".645" xlink:href="#linear-gradient-9"/>
        <linearGradient id="linear-gradient-11" x1="4.196" x2=".047" y1="-7.061" y2="1.427" xlink:href="#linear-gradient-9"/>
        <linearGradient id="linear-gradient-12" x1=".131" x2=".581" y1=".47" y2=".504" gradientUnits="objectBoundingBox">
            <stop offset="0" stop-color="#893976"/>
            <stop offset="1" stop-color="#311944"/>
        </linearGradient>
        <linearGradient id="linear-gradient-13" x1=".767" x2="-.127" y1="-.037" y2="1.226" xlink:href="#linear-gradient-9"/>
        <linearGradient id="linear-gradient-14" x1="15.45" x2="15.63" y1="-2.315" y2="2.721" gradientUnits="objectBoundingBox">
            <stop offset="0" stop-color="#311944"/>
            <stop offset="1" stop-color="#a03976"/>
        </linearGradient>
        <linearGradient id="linear-gradient-15" x1="59.166" x2="59.044" y1="1.251" y2="-4.965" gradientUnits="objectBoundingBox">
            <stop offset="0" stop-color="#ffc444"/>
            <stop offset=".996" stop-color="#f36f56"/>
        </linearGradient>
        <linearGradient id="linear-gradient-16" x1="35.009" x2="35.294" y1="-1.423" y2="1.529" xlink:href="#linear-gradient-14"/>
        <linearGradient id="linear-gradient-17" x1="58.461" x2="58.375" y1="1.437" y2="-2.946" xlink:href="#linear-gradient-15"/>
        <linearGradient id="linear-gradient-18" x1="9.348" x2="10.35" y1=".505" y2=".505" gradientUnits="objectBoundingBox">
            <stop offset="0" stop-color="#444b8c"/>
            <stop offset=".996" stop-color="#3e4177"/>
        </linearGradient>
        <linearGradient id="linear-gradient-19" x1="10.023" x2="11.097" y1=".505" y2=".505" xlink:href="#linear-gradient-18"/>
        <linearGradient id="linear-gradient-20" x1="5.399" x2="6.395" y1=".506" y2=".506" xlink:href="#linear-gradient-18"/>
        <linearGradient id="linear-gradient-21" x1="2.387" x2="1.814" y1="-.049" y2="1.009" gradientUnits="objectBoundingBox">
            <stop offset="0" stop-color="#aa80f9"/>
            <stop offset=".996" stop-color="#6165d7"/>
        </linearGradient>
        <linearGradient id="linear-gradient-22" x1="9.718" x2="9.462" y1=".204" y2="3.433" xlink:href="#linear-gradient-15"/>
        <linearGradient id="linear-gradient-23" x1="35.525" x2="34.775" y1="7.735" y2="6.06" xlink:href="#linear-gradient-18"/>
        <linearGradient id="linear-gradient-24" x1="22.368" x2="22.866" y1="-.008" y2="4.489" xlink:href="#linear-gradient-15"/>
        <linearGradient id="linear-gradient-25" x1="2.514" x2="3.514" y1=".5" y2=".5" xlink:href="#linear-gradient-21"/>
        <linearGradient id="linear-gradient-26" x1="49.867" x2="50.746" y1="-35.567" y2="-35.567" xlink:href="#linear-gradient-15"/>
        <linearGradient id="linear-gradient-27" x1="5.86" x2="4.701" y1=".139" y2="1.435" xlink:href="#linear-gradient-21"/>
        <linearGradient id="linear-gradient-28" x1="2.358" x2="3.358" y1=".5" y2=".5" xlink:href="#linear-gradient-21"/>
        <linearGradient id="linear-gradient-29" x1="1.277" x2="2.277" y1=".5" y2=".5" xlink:href="#linear-gradient-4"/>
        <linearGradient id="linear-gradient-30" x1="-.519" x2=".481" y1=".5" y2=".5" xlink:href="#linear-gradient-4"/>
        <linearGradient id="linear-gradient-31" x1="-9.242" x2="-9.745" y1="2.142" y2="1.599" xlink:href="#linear-gradient-4"/>
        <linearGradient id="linear-gradient-32" x1="-10.613" x2="-9.889" y1="1.399" y2="2.166" xlink:href="#linear-gradient-4"/>
        <linearGradient id="linear-gradient-33" x1="-75.932" x2="-75.728" y1="-29.657" y2="-31.389" xlink:href="#linear-gradient-15"/>
        <style>
            .cls-11,.cls-15,.cls-18,.cls-3{fill:#fff}.cls-3{opacity:.16;mix-blend-mode:screen;isolation:isolate}.cls-11{opacity:.68}.cls-18{opacity:.7}
        </style>
    </defs>
    <g id="Group_765" transform="translate(-457.98 -342.738)">
        <path id="Path_3239" fill="#f4f7fa" d="M605.144 442.718c-6.937 7.872-18.517 7.1-18.491 10.807.028 4.1 14.145 4.788 14.409 8.645.357 5.226-24.787 15.277-51.037 11.161-9.043-1.418-17.606-2.788-24.992-9.461-20.242-18.288-5.417-57-3-63.409 4.775-12.664 10.689-16.747 12.519-18.02 9.521-6.622 20.476-5.534 30.258-4.563 7.407.736 18.5 1.987 28.627 10.337a44.1 44.1 0 0 1 8.969 10.176c8.338 13.043 12.024 33.791 2.738 44.327z" transform="translate(-54.634 -33.243)"/>
        <g id="Group_747" transform="translate(457.98 342.738)">
            <path id="Path_3240" fill="url(#linear-gradient)" d="M490.252 399.793a12.281 12.281 0 0 0 6.519-3.939c3.713-4.7 2.483-12.068-.105-16.761-2.223-4.031-6.343-6.653-14.583-11.9-7.76-4.939-10.411-5.51-11.07-8.52-.939-4.292 3.5-7.474 1.653-12.316a5.675 5.675 0 0 0-2.8-3.33c-3.118-1.29-7.154 1.966-9.045 4.369-1.824 2.318-3.791 6.563-2.324 10 1.063 2.49 3.025 2.44 3.436 4.73s-1.447 3.048-2.315 6.836c-.347 1.513-1.043 4.551.292 7.168 1.725 3.384 5.284 3 5.927 5.814.465 2.032-1.241 2.9-1.208 5.248.044 3.1 3.055 5.372 5.585 7.232 2.975 2.194 11.013 8.103 20.038 5.369z" transform="translate(-457.98 -342.738)"/>
            <path id="Path_3241" d="M522.5 383.652c1.657 1.232-3.4 6.326-2.239 13.3 1.254 7.5 8.953 12.592 12.511 14.946 6.07 4.017 8.73 3.289 12.579 7.721 1.523 1.754 4.7 5.409 4.176 10.326-.048.457-.664 5.542-4.672 7.832-4.546 2.6-10-.376-14.7-2.938-2.839-1.548-8.512-4.641-7.995-7.828.316-1.948 2.872-3.483 4.947-3.885 2.962-.574 5.349 1.081 5.631.579.254-.453-1.44-2.232-3.8-3.584-4.713-2.7-7.259-.938-10.744-3.427-.422-.3-3.734-2.74-3.689-6.3.026-2.053 1.169-4.532 2.84-4.9 1.889-.415 3.638 2.052 4.086 1.663.428-.372-.91-2.853-2.591-5.111-2.47-3.319-3.621-3.392-4.509-5.472a9.554 9.554 0 0 1 .055-6.868c1.714-4.333 6.695-7.106 8.114-6.054z" class="cls-3" transform="translate(-511.813 -382.047)"/>
        </g>
        <g id="Group_748" transform="translate(472.128 348.571)">
            <path id="Path_3242" fill="url(#linear-gradient-2)" d="M885.976 554.316c.838 1.058 7.508.221 11.349-3.11a6.9 6.9 0 0 0 2.528-3.687c.45-2.214-1.13-2.824-.84-5.2.266-2.181 1.655-2.153 2.063-4.842.153-1.008.463-3.055-1.062-4.183-.885-.655-1.631-.44-2.036-1.025-.726-1.047 1.461-2.031 1.579-4.158.064-1.151-.54-2.035-1.747-3.8-1.1-1.61-1.719-2.517-2.9-2.768-1.734-.368-2.734 1.088-3.9.718-1.883-.6-.019-4.647-2.731-6.642-1.729-1.272-4.416-1.046-4.9-1-5.166.522-9.835 6.232-8.431 10.348 1.107 3.244 5.58 4.3 5.271 7.546-.107 1.128-.709 1.653-.5 3.1a7.267 7.267 0 0 0 2.3 3.941c2.679 2.688 5.219 2.626 5.586 4.362.231 1.095-.749 1.265-.712 3.018.034 1.6.861 1.909.937 3.24.139 2.397-2.422 3.426-1.854 4.142z" transform="translate(-874.7 -514.571)"/>
            <path id="Path_3243" d="M925.582 587.995c-1.844.431-3.12 2.668-3.442 4.369a6.928 6.928 0 0 0 2.789 6.649c3.168 2.2 6.866.025 8.2 2.067a3.148 3.148 0 0 1-.436 3.688c-1.568 1.427-4.649-.633-5.542.508-.639.816.1 2.947 1.505 4.2 2.818 2.505 7.467.734 7.978 2.2.12.347-.473 1.372-1.661 3.422-.9 1.549-1.08 1.7-1.1 2.209-.073 1.54 1.52 1.961 1.607 3.478.1 1.75-1.922 2.9-1.655 3.277.28.394 2.842-.39 4.508-1.929 3.949-3.648 2.453-11.155 1.925-13.8-2.129-10.664-9.974-21.433-14.676-20.338z" class="cls-3" transform="translate(-920.435 -585.427)"/>
        </g>
        <g id="Group_760" transform="translate(471.55 373.019)">
            <path id="Path_3244" fill="url(#linear-gradient-3)" d="M860.5 1290.877a2.531 2.531 0 0 1-2.819-2.417v-51.309a2.6 2.6 0 0 1 2.819-2.479l73.205 2.656a2.3 2.3 0 0 1 2.147 2.321v44.582a2.36 2.36 0 0 1-2.147 2.369z" transform="translate(-857.682 -1234.67)"/>
            <path id="Path_3245" fill="url(#linear-gradient-4)" d="M1766.172 2728.192a3.574 3.574 0 0 1-2.291-2.73l-1.7-8.843-14.568.543-1.793 9.213a2.972 2.972 0 0 0 1.912 3.06l6.095 2.5a7.583 7.583 0 0 0 3.563.542l12.881-1.156a.818.818 0 0 0 .722-.743c.044-.4.308-.846-.051-.971z" transform="translate(-1715.627 -2666.305)"/>
            <path id="Path_3246" fill="url(#linear-gradient-5)" d="M1780.293 2716.49a3.54 3.54 0 0 1-2.289-2.7l-1.7-8.732-14.213.537-1.791 9.1a2.687 2.687 0 0 0 1.569 3.02l6.089 2.471a7.66 7.66 0 0 0 3.56.535l12.868-1.142a.813.813 0 0 0 .722-.733.836.836 0 0 0-.541-.888z" transform="translate(-1729.603 -2655.142)"/>
            <g id="Group_759" transform="translate(.58)">
                <g id="Group_749">
                    <path id="Path_3247" fill="url(#linear-gradient-6)" d="M877.573 1290.877a2.531 2.531 0 0 1-2.819-2.417v-51.309a2.6 2.6 0 0 1 2.819-2.479l73.206 2.656a2.3 2.3 0 0 1 2.147 2.321v44.582a2.36 2.36 0 0 1-2.147 2.369z" transform="translate(-874.754 -1234.67)"/>
                    <path id="Path_3248" fill="url(#linear-gradient-7)" d="M988.208 1272.442L915 1269.933a1.387 1.387 0 0 0-1.5 1.325v51.2a1.351 1.351 0 0 0 1.5 1.292l73.206-4.13a1.259 1.259 0 0 0 1.15-1.266v-44.668a1.226 1.226 0 0 0-1.148-1.244z" transform="translate(-912.184 -1268.735)"/>
                    <path id="Path_3249" fill="url(#linear-gradient-8)" d="M941.106 1343.229a.532.532 0 0 1-.586-.508v-47.588a.542.542 0 0 1 .586-.517l73.206 2.406a.479.479 0 0 1 .449.484v41.64a.489.489 0 0 1-.449.492z" transform="translate(-938.287 -1292.58)"/>
                </g>
                <g id="Group_758" transform="translate(6.03 4.567)">
                    <path id="Path_3250" d="M1119.859 1539.453l-67.5 2.964v-38.307l67.5 1.417z" class="cls-11" transform="translate(-1052.357 -1499.529)"/>
                    <path id="Path_3251" d="M1119.859 1374.037l-67.5-1.566v-3.271l67.5 1.94z" class="cls-11" transform="translate(-1052.357 -1369.199)"/>
                    <g id="Group_750" transform="translate(61.646 2.872)">
                        <path id="Path_3252" fill="url(#linear-gradient-9)" d="M2868.825 1454.169a.358.358 0 0 1-.364.365.381.381 0 0 1-.364-.384.359.359 0 0 1 .364-.365.382.382 0 0 1 .364.384z" transform="translate(-2868.096 -1453.784)"/>
                        <path id="Path_3253" fill="url(#linear-gradient-10)" d="M2912.945 1455.344a.357.357 0 0 1-.362.364.38.38 0 0 1-.362-.383.357.357 0 0 1 .362-.364.38.38 0 0 1 .362.383z" transform="translate(-2910.722 -1454.921)"/>
                        <path id="Path_3254" fill="url(#linear-gradient-11)" d="M2956.815 1456.513a.356.356 0 0 1-.36.363.378.378 0 0 1-.36-.382.355.355 0 0 1 .36-.363.379.379 0 0 1 .36.382z" transform="translate(-2953.107 -1456.051)"/>
                    </g>
                    <g id="Group_751" transform="translate(1.472 5.575)">
                        <path id="Path_3255" d="M1148.09 1561.655l-52.367 1.644v-29.879l52.367 1.013z" class="cls-11" transform="translate(-1095.723 -1533.42)"/>
                    </g>
                    <g id="Group_752" transform="translate(54.755 15.295)">
                        <path id="Path_3256" d="M2677.163 1820.309l-12.025-.025v-.587l12.025.038z" class="cls-15" transform="translate(-2665.138 -1819.698)"/>
                        <path id="Path_3257" d="M2672.688 1850.15h-7.551v-.587l7.551.009z" class="cls-15" transform="translate(-2665.138 -1848.548)"/>
                    </g>
                    <g id="Group_754" transform="translate(54.755 18.081)">
                        <g id="Group_753">
                            <path id="Path_3258" d="M2677.163 1909.422l-12.025.2v-7.839l12.025-.025z" class="cls-11" transform="translate(-2665.138 -1901.759)"/>
                        </g>
                        <path id="Path_3259" d="M2677.163 2152.492l-12.025.234v-.587l12.025-.221z" class="cls-15" transform="translate(-2665.138 -2143.425)"/>
                        <path id="Path_3260" d="M2672.688 2184.358l-7.551.161v-.587l7.551-.153z" class="cls-15" transform="translate(-2665.138 -2174.205)"/>
                    </g>
                    <g id="Group_756" transform="translate(54.755 29.322)">
                        <g id="Group_755">
                            <path id="Path_3261" d="M2677.163 2240.535l-12.025.46v-7.839l12.025-.284z" class="cls-11" transform="translate(-2665.138 -2232.872)"/>
                        </g>
                        <path id="Path_3262" d="M2677.163 2483.6l-12.025.492v-.587l12.025-.479z" class="cls-15" transform="translate(-2665.138 -2474.538)"/>
                        <path id="Path_3263" d="M2672.688 2518.3l-7.551.323v-.587l7.551-.315z" class="cls-15" transform="translate(-2665.138 -2508.052)"/>
                    </g>
                    <g id="Group_757" transform="translate(1.472 35.088)">
                        <path id="Path_3264" d="M1131.963 2420.572l-36.24 1.345v-1.964l36.24-1.224z" class="cls-15" transform="translate(-1095.723 -2418.184)"/>
                        <path id="Path_3265" d="M2491.04 2404.472l-5.17.192v-1.807l5.17-.175z" class="cls-15" transform="translate(-2438.672 -2402.682)"/>
                        <path id="Path_3266" d="M2311.912 2410.43l-5.287.2v-1.83l5.287-.178z" class="cls-15" transform="translate(-2265.514 -2408.419)"/>
                        <path id="Path_3267" d="M1112.3 2535.307l-16.58.682v-.982l16.58-.655z" class="cls-15" transform="translate(-1095.723 -2529.882)"/>
                    </g>
                </g>
            </g>
        </g>
        <g id="Group_761" transform="translate(499.319 345.707)">
            <path id="Path_3268" fill="url(#linear-gradient-12)" d="M1718.764 451.789c0 9.735-12.73 33.109-18.008 41.257-.9 1.385-4.588 1.128-5.485-.258-5.278-8.149-19.673-31.265-19.673-41a21.583 21.583 0 1 1 43.166 0z" transform="translate(-1675.598 -430.206)"/>
            <path id="Path_3269" fill="url(#linear-gradient-13)" d="M1787.778 451.789c0 9.735-14.395 32.851-19.673 41a2.275 2.275 0 0 1-3.82 0c-5.278-8.149-19.673-31.265-19.673-41a21.583 21.583 0 1 1 43.166 0z" transform="translate(-1742.269 -430.206)"/>
            <circle id="Ellipse_1" cx="11.887" cy="11.887" r="11.887" class="cls-18" transform="translate(12.039 7.704)"/>
            <circle id="Ellipse_2" cx="11.18" cy="11.18" r="11.18" class="cls-18" transform="translate(12.747 8.412)"/>
        </g>
        <g id="Group_764" transform="translate(466.447 382.79)">
            <path id="Path_3270" fill="url(#linear-gradient-14)" d="M1394.123 3185.057a23.618 23.618 0 0 1 3.127 1.632c.05.223-1.981-.08-2.811-.05s-1.511-.216-1.435-.568.368-1.234.368-1.234z" transform="translate(-1369.722 -3128.398)"/>
            <path id="Path_3271" fill="url(#linear-gradient-15)" d="M1397.015 3153.051l-.191 1.387a1.088 1.088 0 0 1-.815-.034l-.136-1.522z" transform="translate(-1372.498 -3097.528)"/>
            <path id="Path_3272" fill="url(#linear-gradient-16)" d="M988.95 3157.8l-.36.574a.686.686 0 0 0-.083.538c.124.479.372 1.411.481 1.655.148.332 2.141.532 2.141.532s.178-.25-.235-.552-.679-.352-.824-.8a11.664 11.664 0 0 1-.239-1.708z" transform="translate(-978.941 -3102.283)"/>
            <path id="Path_3273" fill="url(#linear-gradient-17)" d="M1000.314 3110.048a18.6 18.6 0 0 0-.776 2.046s-.208.264-.6-.128-.178-.176-.178-.176l.078-1.911z" transform="translate(-988.81 -3055.985)"/>
            <path id="Path_3274" fill="url(#linear-gradient-18)" d="M1272.458 2281.97c.153 4.138.149 8.633-.1 13.435-.281 5.407-.832 10.4-1.522 14.933-.252.008-.517.008-.794 0q-.281-.009-.543-.028a34.419 34.419 0 0 1-1.133-3.654 35.132 35.132 0 0 1-.787-4.276c-.582-4.688.114-5.095-.359-8.569-.419-3.077-1.025-3.2-1.726-7.567-.761-4.74-.184-5.45.1-5.706 1.188-1.09 3.982-.338 6.864 1.432z" transform="translate(-1246.179 -2254.311)"/>
            <path id="Path_3275" d="M1265.589 2280.556c1.138-1.04 3.733-.4 6.471 1.2-3.163 3.4-3.512 5.611-3.137 7.046.423 1.623 1.722 2.093 1.713 3.865-.011 2.179-1.979 2.751-1.943 5.057.024 1.525.888 1.511 1.088 3.395.236 2.228-.895 2.993-.533 4.643a4.461 4.461 0 0 0 1.879 2.594c-.094.677-.19 1.347-.29 2-.252.007-.517.008-.794 0q-.281-.008-.543-.028a34.426 34.426 0 0 1-1.133-3.654 35.1 35.1 0 0 1-.787-4.276c-.582-4.687.114-5.095-.359-8.569-.419-3.077-1.025-3.2-1.727-7.567-.762-4.741-.185-5.45.095-5.706z" transform="translate(-1246.18 -2254.328)" style="mix-blend-mode:multiply;isolation:isolate" fill="url(#linear-gradient-19)" opacity="0.3"/>
            <path id="Path_3276" fill="url(#linear-gradient-20)" d="M995.057 2269.128a92.9 92.9 0 0 0-12.8 27.23 1.66 1.66 0 0 1-.91.139 1.692 1.692 0 0 1-1.029-.559 26.757 26.757 0 0 1-.22-6.6 22.736 22.736 0 0 1 .94-4.957c.756-2.417 1.272-2.552 2.256-5.108 1.022-2.654.777-3.317 1.758-6.639a43.824 43.824 0 0 1 2.186-5.823z" transform="translate(-970.732 -2241.542)"/>
            <path id="Path_3277" fill="url(#linear-gradient-21)" d="M910.009 1757.324c-.026.966-1.613 1.816-2.89 2.077-2.988.61-6.451-1.561-8.1-3.962-.323-.472-.681-1.043-.768-1-.2.1 1.6 3.051 2.379 6.407.4 1.717.294 2.521 1.039 3.664a1.126 1.126 0 0 1 .3.835c-.183.767-1.937.966-3.155 1.1a28.028 28.028 0 0 1-3.668.115c-1.9-.028-2.046-.126-2.479.086-1.319.647-1.23 2.2-2.222 2.405-.834.174-1.679-.757-1.947-1.052-1.393-1.534-1.319-3.384-1.566-5.249a27.742 27.742 0 0 0-5.236-12.1c-.7-.912-1.185-1.392-1.216-2.24-.089-2.489 3.854-5.236 7.136-5.552a24.644 24.644 0 0 1 4.022.083c.6.057 1.246.141 1.937.261a15.828 15.828 0 0 1 4.03 1.041c4.793 2.193 3.747 7.074 8.934 10.45 1.794 1.169 3.497 1.62 3.47 2.631z" transform="translate(-874.611 -1735.336)"/>
            <path id="Path_3278" fill="url(#linear-gradient-22)" d="M1076.825 1668.223a7.132 7.132 0 0 1-.68 1.967c-.428.739-2.2 1-2.568 1.133s.556.771 1.541 1 3.863.385 4.427.075-.366-.4-1.043-.76a2.456 2.456 0 0 1-.694-2.418c.209-.612-.983-.997-.983-.997z" transform="translate(-1061.065 -1663.275)"/>
            <g id="Group_762" transform="translate(14.937 2.381)">
                <path id="Path_3279" fill="url(#linear-gradient-23)" d="M1150.028 1594.829c.714-.51.912-1.891.515-2.2-.113-.089-.222-.048-1.833.6-.8.321-1.194.492-1.324.845a1.12 1.12 0 0 0 .021.737 2.819 2.819 0 0 0 .328.546c.173.249.161.241.215.313a3.933 3.933 0 0 0 .824.807 2.756 2.756 0 0 1 .131-.457 2.42 2.42 0 0 1 .292-.542 2.73 2.73 0 0 1 .831-.649z" transform="translate(-1147.333 -1592.594)"/>
                <path id="Path_3280" fill="url(#linear-gradient-24)" d="M1157.435 1648.933a1.483 1.483 0 0 0 1.333.6c.775-.085.812-1.832.3-2.18a.982.982 0 0 0-.771-.066c-.157.052-.208.12-.467.2-.239.073-.308.049-.378.114-.088.08-.146.271.028.774a.423.423 0 0 0-.459-.129.268.268 0 0 0-.1.105c-.099.207.094.449.514.582z" transform="translate(-1156.571 -1645.385)"/>
            </g>
            <path id="Path_3281" d="M1388.729 2025.361c-2.166-.488-3.029-.472-4.1-1.335-1.783-1.437-2.051-3.624-3.088-3.6-.49.013-.888.513-1.171 1l.783 1.226c0-.015 0-.028.013-.032.086-.044.445.528.768 1 1.644 2.4 5.108 4.572 8.1 3.962a5.194 5.194 0 0 0 2.421-1.177 37.06 37.06 0 0 0-3.726-1.044z" transform="translate(-1357.521 -2003.522)" style="mix-blend-mode:multiply;isolation:isolate" fill="url(#linear-gradient-25)" opacity="0.3"/>
            <path id="Path_3282" fill="url(#linear-gradient-26)" d="M1730.479 2205.243a8.333 8.333 0 0 0 1.95-.433c.729-.312 1.2.135 1.132.446s-1.265.741-1.744.756-1.338-.769-1.338-.769z" transform="translate(-1695.744 -2181.542)"/>
            <path id="Path_3283" fill="url(#linear-gradient-27)" d="M715.793 1802.675c-1.312.117-4.266.171-6.355-1.762-3.478-3.218-1.753-9.342-.542-11.976a14.994 14.994 0 0 1 4.94-5.738c1.666-1.275 2.682-2.052 3.906-1.878 3.163.45 5.354 6.934 3.618 8.79-.568.608-1.131.264-2.777.788-.536.171-4.535 1.444-5.231 4.39-.487 2.062.753 4.475 2.962 6.1z" transform="translate(-707.382 -1772.509)"/>
            <path id="Path_3284" d="M800.616 1978.277c-1.486-.939-1.705-1.89-3.369-2.533-2.161-.835-3.2.226-4.271-.631-1.275-1.02-.146-2.8-1.1-5.878-.162-.523-1.392-4.5-4.215-5a3.8 3.8 0 0 0-3.725 1.384c-.524.873-.036 1.524-.673 2.487s-1.4.728-2.211 1.531a4.548 4.548 0 0 0-.323 5.486 5.366 5.366 0 0 0 2.576 1.518 12.505 12.505 0 0 0 2.214.65 5.85 5.85 0 0 1-2.054-5.33c.434-1.836 2.151-3.022 3.513-3.7a25.684 25.684 0 0 1 2.847 8.336c.247 1.865.173 3.715 1.566 5.249.268.3 1.114 1.226 1.947 1.052.993-.207.9-1.758 2.222-2.405.433-.212.582-.114 2.479-.086a28.05 28.05 0 0 0 3.668-.115c1.082-.123 2.587-.3 3.036-.871a7.912 7.912 0 0 1-4.127-1.144z" transform="translate(-777.496 -1949.178)" style="mix-blend-mode:multiply;isolation:isolate" fill="url(#linear-gradient-28)" opacity="0.3"/>
            <g id="Group_763" transform="translate(9.049)">
                <path id="Path_3285" fill="url(#linear-gradient-29)" d="M974.129 2129.37l-.153-.45a1.333 1.333 0 0 1 .895-1.707l28.918-8.809.881 2.987-28.772 8.862a1.427 1.427 0 0 1-1.769-.883z" transform="translate(-973.905 -2098.172)"/>
                <path id="Path_3286" fill="url(#linear-gradient-30)" d="M1801.275 1554.668a15.609 15.609 0 0 1-19.752-10.713 16.712 16.712 0 0 1 11.07-20.879 15.642 15.642 0 0 1 19.444 11.532 16.781 16.781 0 0 1-10.762 20.06zm-.668-2.433a14.088 14.088 0 0 0 9.059-16.9 13.131 13.131 0 0 0-16.349-9.629 14.039 14.039 0 0 0-9.276 17.478 13.108 13.108 0 0 0 16.566 9.051z" transform="translate(-1753.417 -1522.467)"/>
                <path id="Path_3287" d="M1003.789 2118.405l-3.687 1.123a3.829 3.829 0 0 1-1.24 2.26c-1.862 1.544-4.349-.14-7.819 1.671-1.741.908-1.41 1.486-3.042 2.12-2.7 1.048-3.933-.4-6.321.55-2.415.965-2.653 3.05-4.023 2.975-.586-.032-1.34-.458-2.181-2.074l-.6.184a1.333 1.333 0 0 0-.895 1.707l.153.45a1.427 1.427 0 0 0 1.769.883l28.772-8.862z" transform="translate(-973.905 -2098.172)" style="mix-blend-mode:multiply;isolation:isolate" fill="#d8dee8" opacity="0.3"/>
                <path id="Path_3288" fill="#fff" d="M1878.769 1637.968a13.565 13.565 0 0 1-17.148-9.356 14.528 14.528 0 0 1 9.6-18.1 13.59 13.59 0 0 1 16.916 9.975 14.581 14.581 0 0 1-9.368 17.481z" opacity="0.56" transform="translate(-1830.897 -1607.005)"/>
                <path id="Path_3289" fill="url(#linear-gradient-31)" d="M1817.773 1576.733a15.609 15.609 0 0 1-19.752-10.713 16.712 16.712 0 0 1 11.07-20.879 15.642 15.642 0 0 1 19.444 11.532 16.781 16.781 0 0 1-10.762 20.06zm-.669-2.433a14.088 14.088 0 0 0 9.059-16.9 13.131 13.131 0 0 0-16.349-9.629 14.039 14.039 0 0 0-9.276 17.478 13.108 13.108 0 0 0 16.562 9.051z" transform="translate(-1769.354 -1543.783)"/>
                <path id="Path_3290" fill="url(#linear-gradient-32)" d="M1844.219 1603.273a14.724 14.724 0 0 1-18.624-10.127 15.767 15.767 0 0 1 10.435-19.674 14.753 14.753 0 0 1 18.35 10.856 15.828 15.828 0 0 1-10.161 18.945zm-.433-1.574a14.088 14.088 0 0 0 9.059-16.9 13.13 13.13 0 0 0-16.349-9.628 14.039 14.039 0 0 0-9.276 17.478 13.108 13.108 0 0 0 16.567 9.051z" transform="translate(-1796.037 -1571.181)"/>
            </g>
            <path id="Path_3291" fill="url(#linear-gradient-33)" d="M958.415 2369.978l.292-.726a1.5 1.5 0 0 0 .869-.252 1.133 1.133 0 0 1 .7-.168c.11.031.526.012.052.239s-.47.394-.272.579a3.443 3.443 0 0 0 1.219.6c.271.019-.219.437-.491.49a1.684 1.684 0 0 1-1.273-.2c-.201-.119-1.096-.562-1.096-.562z" transform="translate(-949.892 -2340.089)"/>
        </g>
    </g>
</svg>
