<svg xmlns="http://www.w3.org/2000/svg" width="34" height="34" viewBox="0 0 34 34">
    <defs>
        <style>
            .cls-3{fill:#fff;fill-rule:evenodd}
        </style>
    </defs>
    <g id="Group_2079" transform="translate(-405 -1733.419)">
        <rect id="Rectangle_813" width="34" height="34" fill="#28c8d3" rx="2" transform="translate(405 1733.419)"/>
        <g id="ic-weather-wind" transform="translate(412 1740.419)">
            <path id="Rectangle_262" fill="none" d="M0 0H21V21H0z"/>
            <g id="Layer" transform="translate(.857 2.579)">
                <g id="Vrstva_182">
                    <path id="Path_532" d="M2.685 8.147H11.6a.429.429 0 0 0 .111 0 2.572 2.572 0 1 0-2.7-1.715H2.685A.789.789 0 0 0 2 7.289a.789.789 0 0 0 .685.858zm8.745-3.43a.857.857 0 1 1-.857.857.857.857 0 0 1 .857-.857z" class="cls-3" transform="translate(-1.142 -3.017)"/>
                    <path id="Path_533" d="M14.288 15H4.857a.857.857 0 1 0 0 1.715h7.013A2.572 2.572 0 1 0 14.288 15zm0 3.429a.857.857 0 1 1 .857-.857.857.857 0 0 1-.857.857z" class="cls-3" transform="translate(-1.428 -4.726)"/>
                    <path id="Path_534" d="M17.29 7a2.572 2.572 0 0 0-2.418 3.429H1.857a.857.857 0 1 0 0 1.715H17.29a2.572 2.572 0 1 0 0-5.144zm0 3.429a.857.857 0 1 1 .857-.857.857.857 0 0 1-.857.857z" class="cls-3" transform="translate(-1 -3.585)"/>
                </g>
            </g>
        </g>
    </g>
</svg>
