<svg xmlns="http://www.w3.org/2000/svg" width="34" height="34" viewBox="0 0 34 34">
    <g transform="translate(-405.334 -1376.893)">
        <rect width="34" height="34" fill="#f05050" rx="2" transform="translate(405.334 1376.893)"/>
        <g>
            <path fill="none" d="M0 0H20V19H0z" transform="translate(412.334 1383.893)"/>
            <g>
                <path fill="#fff" d="M17.666 2.6a1.034 1.034 0 0 0-.947-.6H3.8a1.034 1.034 0 0 0-.947.6L.177 8.809a.943.943 0 0 0 .095.92 1.038 1.038 0 0 0 .853.435h1.262V16.7h-.666a.817.817 0 1 0 0 1.633h17.071a.817.817 0 1 0 0-1.633h-1.041v-6.536h1.639a1.038 1.038 0 0 0 .853-.435.943.943 0 0 0 .095-.92zM7.508 16.7v-4.086h1.708v3.854a.692.692 0 0 0 .051.229zm3.414 0a.984.984 0 0 0 0-.229v-3.857h1.708V16.7zm5.164 0h-1.707v-4.74a1 1 0 0 0-1.024-.98H6.843a1 1 0 0 0-1.024.98v4.74H4.111v-6.536H5.5a1.038 1.038 0 0 0 .606-.188l1.8-1.249 1.711 1.209a1.062 1.062 0 0 0 1.212 0l1.707-1.208 1.8 1.249a1.029 1.029 0 0 0 .6.188h1.041zm-.854-8.164l-2.023-1.4a1.062 1.062 0 0 0-1.212 0l-1.74 1.199L8.55 7.127a1.062 1.062 0 0 0-1.212 0l-2.057 1.4H2.14l2.142-4.9h11.95l2.117 4.9z" transform="translate(412.334 1383.893) translate(.084 1.633) translate(-.098 -2)"/>
            </g>
        </g>
    </g>
</svg>
