<svg xmlns="http://www.w3.org/2000/svg" xmlns:xlink="http://www.w3.org/1999/xlink" width="100.018" height="97.689" viewBox="0 0 100.018 97.689">
    <defs>
        <linearGradient id="linear-gradient" x1=".518" x2=".481" y1=".046" y2="1.073" gradientUnits="objectBoundingBox">
            <stop offset=".004" stop-color="#e38ddd"/>
            <stop offset="1" stop-color="#9571f6"/>
        </linearGradient>
        <linearGradient id="linear-gradient-2" x1=".08" x2=".517" y1=".7" y2=".537" gradientUnits="objectBoundingBox">
            <stop offset="0" stop-color="#aa80f9"/>
            <stop offset=".996" stop-color="#6165d7"/>
        </linearGradient>
        <linearGradient id="linear-gradient-3" x1=".228" x2="1.208" y1="-.008" y2="1.199" xlink:href="#linear-gradient-2"/>
        <linearGradient id="linear-gradient-4" x1="2.914" x2="2.493" y1="1.416" y2="2.959" xlink:href="#linear-gradient"/>
        <linearGradient id="linear-gradient-5" x1="-1.803" x2="-1.381" y1="1.719" y2="4.561" gradientUnits="objectBoundingBox">
            <stop offset="0" stop-color="#ffc444"/>
            <stop offset=".996" stop-color="#f36f56"/>
        </linearGradient>
        <linearGradient id="linear-gradient-6" x1="1.065" x2="1.647" y1="1.382" y2="2.777" gradientUnits="objectBoundingBox">
            <stop offset="0" stop-color="#ff9085"/>
            <stop offset="1" stop-color="#fb6fbb"/>
        </linearGradient>
        <linearGradient id="linear-gradient-7" x1=".143" x2=".373" y1="-.292" y2=".215" gradientUnits="objectBoundingBox">
            <stop offset="0" stop-color="#444b8c"/>
            <stop offset=".996" stop-color="#26264f"/>
        </linearGradient>
        <linearGradient id="linear-gradient-8" x1=".391" x2=".881" y1=".065" y2="2.027" xlink:href="#linear-gradient-7"/>
        <linearGradient id="linear-gradient-9" x2="1" y1=".5" y2=".5" gradientUnits="objectBoundingBox">
            <stop offset=".494" stop-color="#ebeff2"/>
            <stop offset="1" stop-color="#fff"/>
        </linearGradient>
        <linearGradient id="linear-gradient-10" x1="4.584" x2="-1.11" y1="-1.117" y2="1.138" xlink:href="#linear-gradient-7"/>
        <linearGradient id="linear-gradient-14" x1="5.546" x2="5.241" y1="-6.276" y2="-5.421" xlink:href="#linear-gradient-2"/>
        <linearGradient id="linear-gradient-15" x1=".505" x2=".495" y1="-.112" y2=".524" xlink:href="#linear-gradient-6"/>
        <linearGradient id="linear-gradient-16" x1=".505" x2=".495" y1="-.112" y2=".524" xlink:href="#linear-gradient-2"/>
        <linearGradient id="linear-gradient-17" x1="0" x2="1" y1=".5" y2=".5" xlink:href="#linear-gradient-2"/>
        <linearGradient id="linear-gradient-18" x1="-.017" x2="1" y1=".5" y2=".5" xlink:href="#linear-gradient-2"/>
        <linearGradient id="linear-gradient-19" x1=".907" x2="-.146" y1="1.663" y2="-1.371" gradientUnits="objectBoundingBox">
            <stop offset="0" stop-color="#311944"/>
            <stop offset="1" stop-color="#6b3976"/>
        </linearGradient>
        <linearGradient id="linear-gradient-20" x1="1.065" x2="-2.052" y1="1.559" y2="-3.747" xlink:href="#linear-gradient-5"/>
        <linearGradient id="linear-gradient-21" x1=".538" x2=".339" y1=".417" y2="1.221" xlink:href="#linear-gradient-2"/>
        <linearGradient id="linear-gradient-22" x1=".171" x2=".503" y1="1.492" y2=".499" gradientUnits="objectBoundingBox">
            <stop offset=".004" stop-color="#f36f56"/>
            <stop offset="1" stop-color="#ffc444"/>
        </linearGradient>
        <linearGradient id="linear-gradient-23" x1=".452" x2=".503" y1="-.147" y2=".658" xlink:href="#linear-gradient-22"/>
        <linearGradient id="linear-gradient-25" x1="-.129" x2=".8" y1="1.989" y2="-.17" xlink:href="#linear-gradient-22"/>
        <linearGradient id="linear-gradient-26" x1="-24.132" x2="-24.803" y1="-8.76" y2="-10.507" xlink:href="#linear-gradient-19"/>
        <linearGradient id="linear-gradient-27" x1="-40.217" x2="-41.328" y1="-9.377" y2="-11.188" xlink:href="#linear-gradient-19"/>
        <linearGradient id="linear-gradient-28" x1="0" x2="1" y1=".5" y2=".5" xlink:href="#linear-gradient-22"/>
        <linearGradient id="linear-gradient-29" x1="0" x2="1" y1=".5" y2=".5" xlink:href="#linear-gradient-7"/>
        <clipPath id="clip-path">
            <path id="Path_3300" d="M719.337 487.312c3.04-5.943 7.555-13 11.554-5.9s15.039.345 18.565-9.961c3.451-10.085 23.369-9.771 17.9 12.743-3.263 13.445-16.732 14.046-23.461 15.966s-5.325 12.21-14.361 10.345c-7.719-1.593-14.021-6.239-18.1-.973s5.887-18.279 7.903-22.22z" class="cls-1" transform="translate(-710.472 -465.09)"/>
        </clipPath>
        <clipPath id="clip-path-2">
            <path id="Path_3310" d="M1424.026 1188.354l-1.153 9.93s5.412 4.818 8.3 2.123 8.438.972 11.616 2.552c8.623 4.287 11.617-6.476 23.131-1.93 3.062 1.209 8.5 4.626 11.958 2.789 3.941-2.093 2.065-5.5 5.135-6.635 4.8-1.771 8-6.461 5.392-11.044-2.572-4.523-11.269-3.708-20.539 3.208-7.153 4.167-8.663 3.678-12.078 1.775-2.392-1.333-8-6.532-11.961-3.861s-7.825 4.384-10.146 1.831c-3.526-3.884-9.655-.738-9.655-.738z" class="cls-1" transform="translate(-1422.873 -1183.321)"/>
        </clipPath>
        <clipPath id="clip-path-3">
            <path id="Path_3318" d="M1283.93 573.5c1.91 1.328 5.531 3.263 7.09.191 2.167-4.271 9.715-2.8 12.134-.992 2.994 2.234 10.068 7.282 13.516.735 2.871-5.451 3.677-9.58 10.814-8.5s12.339-2.083 13.247-8.961c.955-7.239 11.067-11.212 9.213-17.7-3.231-11.3-20.59-5.331-27.521 6.127s-38.493 29.1-38.493 29.1z" class="cls-1" transform="translate(-1283.93 -532.225)"/>
        </clipPath>
        <clipPath id="clip-path-4">
            <path id="Path_3334" d="M2680.633 2275.428c-.72.146-2.487-2.215-1.99-4.161.546-2.141 3.344-1.873 4.224-4.207.719-1.906-.865-2.756-.353-5.358a6.894 6.894 0 0 1 3.233-4.524c2.184-1.219 3.641-.071 5.06-1.349 1.669-1.5.843-4.168 1.487-4.291.937-.179 4.005 5.2 2.245 7.783-1.48 2.175-5.09.493-6.915 2.919-1.535 2.04.449 3.984-1.255 6.39-1.4 1.981-3.511 1.474-4.747 3.784-.846 1.576-.47 2.909-.989 3.014z" class="cls-2" transform="translate(-2678.556 -2251.534)"/>
        </clipPath>
        <clipPath id="clip-path-5">
            <path id="Path_3340" d="M2598.376 2685.328a6.945 6.945 0 0 1-1.767-.932 3.855 3.855 0 0 1-1.651-1.848c-.3-.962.3-1.264 0-2.145-.342-1-1.249-.9-1.6-1.939a3.107 3.107 0 0 1 .148-1.969c.219-.711.716-1.732 1.04-1.666.384.079-.132 1.551.743 2.566.662.769 1.432.475 2.088 1.372a2.351 2.351 0 0 1 .475 1.608c-.132.993-.924 1.256-1.112 2.078-.14.588.079 1.49 1.636 2.875z" class="cls-3" transform="translate(-2593.243 -2674.827)"/>
        </clipPath>
        <clipPath id="clip-path-6">
            <path id="Path_3346" d="M2623.118 2294.489c-.461.215.336 1.448-.007 3.472-.546 3.217-3.22 4.017-2.992 6.522a5.626 5.626 0 0 0 .71 2.281c.193.306.339.449 1.009 1.355.062.084.662.9.809 1.121.993 1.523-1.028 3.755-.415 5.937a6.007 6.007 0 0 0 2.451 3.175c-1.714-2.694-1.695-4.421-1.317-5.521.524-1.527 1.712-1.777 2.346-3.7.443-1.342.03-1.726.041-4.194.017-3.817 1.01-4.23.506-6.325-.592-2.458-2.566-4.391-3.141-4.123z" class="cls-4" transform="translate(-2620.105 -2294.464)"/>
        </clipPath>
        <clipPath id="clip-path-7">
            <path id="Path_3352" d="M2689.8 2600.658a4.642 4.642 0 0 1-1.984-1.875 4.192 4.192 0 0 1 1.233-4.976c1.561-1.268 2.819-.149 4.292-1.344 1.673-1.357.588-3.235 2.327-4.642a6.082 6.082 0 0 1 4.086-.912c1.635.024 4.163.451 4.346 1.187.217.873-3.234.685-4.417 3.192-.9 1.9.441 3.364-.72 5.328a4.112 4.112 0 0 1-2.76 2.021c-2.256.358-3.862-1.682-5.241-1.085-.562.242-1.156.948-1.162 3.106z" class="cls-1" transform="translate(-2687.427 -2586.904)"/>
        </clipPath>
        <style>
            .cls-1{fill:none}.cls-2{fill:url(#linear-gradient)}.cls-3{fill:url(#linear-gradient-2)}.cls-4{fill:url(#linear-gradient-3)}.cls-24,.cls-8{opacity:.5}.cls-24,.cls-26,.cls-30,.cls-8{mix-blend-mode:soft-light;isolation:isolate}.cls-9{fill:#beb8f2}.cls-12{fill:#fcfdfe}.cls-24,.cls-26,.cls-30,.cls-42{fill:#fff}.cls-26{opacity:.3}.cls-21{fill:#97a6b7}.cls-30{opacity:.74}.cls-34{fill:url(#linear-gradient-17)}.cls-46{fill:url(#linear-gradient-29)}
        </style>
    </defs>
    <g id="Order_canceled" transform="translate(-480.596 -465.09)">
        <path id="Path_3292" fill="#f4f7fa" d="M530.965 465.483a49.186 49.186 0 0 0-49.947 42.389c-3.579 26.773 16.117 50.862 40.353 54.721 30.144 4.8 59.383-22.964 56.757-53.083-1.978-22.692-21.741-43.255-47.163-44.027z" transform="translate(0 -.357)"/>
        <g id="Group_908" transform="translate(488.781 465.09)">
            <g id="Group_899">
                <g id="Group_898" clip-path="url(#clip-path)">
                    <path id="Path_3293" fill="url(#linear-gradient-4)" d="M609.936 471.446c-3.526 10.306-13.375 17.113-18.565 10.832-4.587-5.551-8.514-.909-11.554 5.034-1.8 3.521-4.653 11.8-13.043 10.195a1.307 1.307 0 0 1-.047.427c-.227 5.361-.647 10.712-.926 16.07a11.734 11.734 0 0 0 6.121-4.477c4.075-5.266 10.377-.62 18.1.973 9.036 1.865 7.631-8.425 14.361-10.345s20.2-2.521 23.461-15.966c5.456-22.514-14.458-22.828-17.908-12.743z" transform="translate(-570.952 -465.09)"/>
                    <g id="Group_897" class="cls-8" transform="translate(-4.82 -3.082)">
                        <path id="Path_3294" d="M637.514 378.534c-.028 22.008-18.963 32.617-34.843 37.641a125.017 125.017 0 0 1-20.623 4.491l-.017.286a125.368 125.368 0 0 0 20.719-4.507c10.155-3.212 18.251-7.576 24.062-12.97a32.917 32.917 0 0 0 10.988-24.941z" class="cls-9" transform="translate(-581.784 -378.534)"/>
                        <path id="Path_3295" d="M1750.438 966.007l-.019-.281c9.35-.631 21.646-6.621 21.769-6.681l.124.253c-.124.06-12.469 6.074-21.874 6.709z" class="cls-9" transform="translate(-1708.572 -938.376)"/>
                        <path id="Path_3296" d="M1869.678 515.2a23.457 23.457 0 0 0-.515-18.665l.245-.138a23.745 23.745 0 0 1 .533 18.9z" class="cls-9" transform="translate(-1823.087 -492.202)"/>
                        <path id="Path_3297" d="M839.773 863.586c12.434-5.614 12.2-23.959 12.182-24.137l.278-.045c.033.174.2 18.775-12.343 24.439z" class="cls-9" transform="translate(-830.349 -822.993)"/>
                        <path id="Path_3298" d="M995.341 1483.328v-.282c8.705.12 16.221 8.083 16.3 8.163l-.206.192c-.075-.08-7.51-7.955-16.094-8.073z" class="cls-9" transform="translate(-980.378 -1443.719)"/>
                        <path id="Path_3299" d="M579.5 1674.921a49.123 49.123 0 0 0-4.38-3.662l-.021.332a49.869 49.869 0 0 1 4.21 3.538 6.622 6.622 0 0 0 .577.509l.144-.242c-.044-.03-.268-.236-.53-.475z" class="cls-9" transform="translate(-575.102 -1625.231)"/>
                    </g>
                </g>
            </g>
            <g id="Group_903" transform="translate(25.365 25.573)">
                <path id="Path_3301" fill="url(#linear-gradient-5)" d="M1437.635 1189.092c-2.03-2.233-4.949-2.027-7.038-1.546a3.071 3.071 0 0 1-.39.653c-1.462 2.264-1.6 3.542-2.691 6a14.092 14.092 0 0 0-.491 3.018l-.056 1.355s5.266 4.528 8.157 1.834 8.439.972 11.616 2.552a12.811 12.811 0 0 0 3.929 1.03c8.2 2.556 9.658 5.87 12.834 5.063 3.506-.89 2.727-5.183 6.49-6.353 4.249-1.321 8.094 3.267 11.835 1.119a5.655 5.655 0 0 0 1.885-1.552c1.466-1.944.863-4.2 3.251-5.083 4.8-1.771 8-6.461 5.392-11.044-2.572-4.523-11.269-3.708-20.538 3.208-7.153 4.167-8.663 3.678-12.078 1.775-2.392-1.333-8-6.532-11.962-3.861s-7.824 4.384-10.145 1.832z" transform="translate(-1426.823 -1183.32)"/>
                <g id="Group_902">
                    <g id="Group_901" clip-path="url(#clip-path-2)">
                        <g id="Group_900" class="cls-8" transform="translate(.963 -.439)">
                            <path id="Path_3302" d="M1451.918 1212.974l-.046.193c1.062.264 2.136.516 3.193.748a106.61 106.61 0 0 0 22.922 2.59 87.08 87.08 0 0 0 18.159-1.878 74.939 74.939 0 0 0 13.314-4.153 62.074 62.074 0 0 0 8.194-4.157c.436-.265.868-.562 1.287-.85.557-.383 1.134-.779 1.723-1.1l-.081-.176c-.6.328-1.177.727-1.738 1.112-.417.286-.847.582-1.278.844a61.908 61.908 0 0 1-8.169 4.144 74.756 74.756 0 0 1-13.282 4.143 86.891 86.891 0 0 1-18.122 1.874 106.44 106.44 0 0 1-22.885-2.586c-1.057-.234-2.13-.485-3.191-.748z" class="cls-12" transform="translate(-1451.802 -1203.007)"/>
                            <path id="Path_3303" d="M2495.14 1524.178l.012.2c7.885-.755 19.09 7.086 19.2 7.165l.1-.166c-.107-.082-11.364-7.96-19.312-7.199z" class="cls-12" transform="translate(-2457.924 -1511.554)"/>
                            <path id="Path_3304" d="M1871.962 1307.417l-.01.2c5.4.16 12.609-8.075 12.681-8.158l-.133-.133c-.072.08-7.225 8.248-12.538 8.091z" class="cls-12" transform="translate(-1856.925 -1294.755)"/>
                            <path id="Path_3305" d="M1785.475 1516.083l-.042.194c3.434.773 7.684 3.811 11.965 8.553.215.239.215.239.249.247l.044-.193-.022.1.054-.081c-.016-.014-.1-.1-.192-.208-4.305-4.774-8.587-7.831-12.056-8.612z" class="cls-12" transform="translate(-1773.487 -1503.796)"/>
                            <path id="Path_3306" d="M1507.792 1315.845l.011.2c3.88-.355 7.231-5.49 7.265-5.542l-.15-.11c-.034.048-3.335 5.107-7.126 5.452z" class="cls-12" transform="translate(-1505.731 -1305.427)"/>
                            <path id="Path_3307" d="M1449.915 1454.147a21.489 21.489 0 0 1 6.615 8.248l.163-.1a21.67 21.67 0 0 0-6.674-8.317z" class="cls-12" transform="translate(-1449.915 -1443.905)"/>
                            <path id="Path_3308" d="M2998 1392.486l.021.2a48.264 48.264 0 0 1 10.626-.192c.374.03.507.039.553.034l-.014-.2c-.035 0-.25-.013-.521-.034a48.428 48.428 0 0 0-10.665.192z" class="cls-12" transform="translate(-2942.882 -1384.212)"/>
                            <path id="Path_3309" d="M2801.985 1181.51l.075.178c3.772-1.9 6.72-10.266 6.844-10.622l-.172-.065c-.032.087-3.045 8.641-6.747 10.509z" class="cls-12" transform="translate(-2753.844 -1171.002)"/>
                        </g>
                    </g>
                </g>
            </g>
            <g id="Group_907" transform="translate(20.418 2.39)">
                <path id="Path_3311" fill="url(#linear-gradient-6)" d="M1393.012 538.274c-3.231-11.3-20.59-5.331-27.521 6.127-2.011 3.324-3.675 5.008-5.166 5.689a35.3 35.3 0 0 0-9.639 5.471c-5.847 4.707-6.925 8.813-12.409 11.842a21.154 21.154 0 0 1-9.187 2.517 5.921 5.921 0 0 1-.041 1.568l-.462 2.9c1.994 1.248 4.1 2.054 5.5-.7 2.167-4.271 9.715-2.8 12.134-.992 2.994 2.234 10.068 7.282 13.517.735 2.871-5.451 3.677-9.58 10.813-8.5s12.339-2.083 13.247-8.961c.957-7.238 11.068-11.211 9.214-17.696z" transform="translate(-1326.998 -532.225)"/>
                <g id="Group_906">
                    <g id="Group_905" clip-path="url(#clip-path-3)">
                        <g id="Group_904" class="cls-8" transform="translate(17.285 -3.013)">
                            <path id="Path_3312" d="M1810.8 1248.836a77.721 77.721 0 0 1-17.269 6.166q-.6.314-1.206.613a77.931 77.931 0 0 0 19.118-6.72q-.324-.036-.643-.059z" class="cls-12" transform="translate(-1791.506 -1220.308)"/>
                            <path id="Path_3313" d="M2445.119 570.218a78.66 78.66 0 0 1-24.882 22.1c.067.067.135.133.2.2l.046.047a78.987 78.987 0 0 0 24.892-22.144z" class="cls-12" transform="translate(-2397.064 -565.852)"/>
                            <path id="Path_3314" d="M1769.883 1443.816c-.161.078-.322.154-.483.23 8.821 2.152 14.137 11.546 14.191 11.643l.28-.177c-.053-.096-5.271-9.327-13.988-11.696z" class="cls-12" transform="translate(-1769.4 -1408.345)"/>
                            <path id="Path_3315" d="M1888.215 891.953c.115-.4.175-.63.18-.649l-.314-.087c-.005.02-.071.274-.2.706.119.009.219.019.334.03z" class="cls-12" transform="translate(-1883.666 -875.422)"/>
                            <path id="Path_3316" d="M2436.469 1207.591c.092.1.193.213.3.336 6.867-.093 14.492 5.386 14.577 5.448l.186-.284c-.09-.063-8.008-5.754-15.063-5.5z" class="cls-12" transform="translate(-2412.718 -1180.523)"/>
                            <path id="Path_3317" d="M2736.765 466.391l.237.233c5.843-6.668 5.673-18.9 5.67-19.022l-.325.01c.004.121.17 12.216-5.582 18.779z" class="cls-12" transform="translate(-2702.322 -447.602)"/>
                        </g>
                    </g>
                </g>
            </g>
        </g>
        <g id="Group_910" transform="translate(485.142 488.325)">
            <g id="Group_909">
                <path id="Path_3319" fill="url(#linear-gradient-7)" d="M691.964 1177.427l-80.753 7.29a3.319 3.319 0 0 1-2.935-2.705v-61.14a2.07 2.07 0 0 1 2.041-2.069l81.449-1.126c1.154-.016 3.336.835 3.336 1.989l-1.237 55.7a2.069 2.069 0 0 1-1.901 2.061z" transform="translate(-608.276 -1117.676)"/>
                <path id="Path_3320" fill="url(#linear-gradient-8)" d="M738.036 1193.308l-81.449 6.647a2.07 2.07 0 0 1-2.238-2.063v-61.14a2.07 2.07 0 0 1 2.041-2.07l81.449-1.126a2.069 2.069 0 0 1 2.1 2.069v55.619a2.069 2.069 0 0 1-1.903 2.064z" transform="translate(-652.709 -1132.991)"/>
                <path id="Path_3321" fill="url(#linear-gradient-9)" d="M857.382 1236.042l68.99-5.494a2.119 2.119 0 0 0 1.95-2.112v-52.769a2.119 2.119 0 0 0-2.151-2.118l-68.99 1.059a2.119 2.119 0 0 0-2.086 2.119v57.2a2.119 2.119 0 0 0 2.287 2.115z" transform="translate(-846.307 -1171.558)"/>
                <path id="Path_3322" fill="url(#linear-gradient-10)" d="M2973.123 1839.655a.722.722 0 0 1-.722-.721v-5.349a.722.722 0 0 1 .722-.721.721.721 0 0 1 .721.721v5.349a.721.721 0 0 1-.721.721z" transform="translate(-2888.225 -1807.399)"/>
                <path id="Path_3323" fill="#fff" d="M916.143 1249.963c-6.283-5.481-11.32-3.337-17.967-8.906-8.25-6.912-4.142-13.286-11.405-19.373-9.082-7.612-20.057-1.438-26.872-9.062a14.673 14.673 0 0 1-3.3-6.753 2.119 2.119 0 0 0-1.506 2.027v57.2a2.119 2.119 0 0 0 2.287 2.112l66.063-5.261a24.969 24.969 0 0 0-7.3-11.984z" transform="translate(-846.307 -1202.731)" style="isolation:isolate;mix-blend-mode:soft-light" opacity="0.9"/>
            </g>
        </g>
        <g id="Group_914" transform="translate(502.223 495.765)" style="mix-blend-mode:multiply;isolation:isolate" opacity="0.3">
            <path id="Path_3324" d="M1143.3 1790.381l-53.671 2.021a1.525 1.525 0 0 1-1.65-1.471v-3.591a1.643 1.643 0 0 1 1.643-1.57l53.466-1.543a1.421 1.421 0 0 1 1.462 1.367l.117 3.318a1.422 1.422 0 0 1-1.367 1.469z" class="cls-21" transform="translate(-1087.982 -1767.932)"/>
            <path id="Path_3325" d="M1195.086 1996.471l4.866 17.794a2.511 2.511 0 0 0 2.65 1.789l36.147-2.39a2.561 2.561 0 0 0 2.317-2.01l3.694-17.143zm13.788 16.26a1.415 1.415 0 0 1-1.339 1.384l-1.294.082a1.25 1.25 0 0 1-1.374-1.217l-.116-13.906a1.371 1.371 0 0 1 1.339-1.336l1.281-.054a1.26 1.26 0 0 1 1.354 1.217zm7.129-.444a1.387 1.387 0 0 1-1.308 1.369l-1.269.081a1.238 1.238 0 0 1-1.353-1.206l-.176-13.768a1.344 1.344 0 0 1 1.307-1.323l1.257-.052a1.248 1.248 0 0 1 1.333 1.206zm6.992-.435a1.359 1.359 0 0 1-1.277 1.355l-1.245.08a1.226 1.226 0 0 1-1.333-1.195l-.233-13.633a1.317 1.317 0 0 1 1.277-1.31l1.233-.052a1.237 1.237 0 0 1 1.314 1.2zm6.86-.427a1.333 1.333 0 0 1-1.248 1.341l-1.221.078a1.215 1.215 0 0 1-1.313-1.184l-.289-13.5a1.291 1.291 0 0 1 1.248-1.3l1.21-.051a1.225 1.225 0 0 1 1.295 1.184zm6.731-.418a1.307 1.307 0 0 1-1.219 1.327l-1.2.077a1.2 1.2 0 0 1-1.294-1.173l-.342-13.372a1.266 1.266 0 0 1 1.219-1.283l1.187-.049a1.213 1.213 0 0 1 1.276 1.173z" class="cls-21" transform="translate(-1191.273 -1970.731)"/>
            <g id="Group_913" transform="translate(7.137)">
                <g id="Group_911" transform="translate(0 .068)">
                    <path id="Path_3326" d="M1306.99 1328.712a.923.923 0 0 0-1.223.1l-16.9 14.186c-.433.364-.556.9-.273 1.192a.991.991 0 0 0 1.3-.127l16.86-14.21a.81.81 0 0 0 .236-1.141z" class="cls-21" transform="translate(-1288.438 -1328.522)"/>
                </g>
                <g id="Group_912" transform="translate(25.084)">
                    <path id="Path_3327" d="M1993.075 1326.8a.914.914 0 0 1 1.214.088l16.409 13.348a.828.828 0 0 1 .286 1.118.859.859 0 0 1-1.171-.064l-16.454-13.36c-.414-.33-.541-.84-.284-1.13z" class="cls-21" transform="translate(-1992.942 -1326.61)"/>
                </g>
            </g>
        </g>
        <g id="Group_928" transform="translate(549.528 528.697)">
            <path id="Path_3328" fill="#d8dee8" d="M2424.968 2887.339c-7.9-.083-8.314.5-8.374.762-.272 1.219 5.027 4.22 10.657 4.719 3.329.295 6.077-.361 11.57-1.674 3.663-.876 5.495-1.313 5.481-1.827-.04-1.453-13.448-1.919-19.334-1.98z" transform="translate(-2416.584 -2864.693)"/>
            <g id="Group_927" transform="translate(6.29)">
                <g id="Group_917" transform="translate(3.038)">
                    <g id="Group_916">
                        <path id="Path_3329" d="M2680.633 2275.428c-.72.146-2.487-2.215-1.99-4.161.546-2.141 3.344-1.873 4.224-4.207.719-1.906-.865-2.756-.353-5.358a6.894 6.894 0 0 1 3.233-4.524c2.184-1.219 3.641-.071 5.06-1.349 1.669-1.5.843-4.168 1.487-4.291.937-.179 4.005 5.2 2.245 7.783-1.48 2.175-5.09.493-6.915 2.919-1.535 2.04.449 3.984-1.255 6.39-1.4 1.981-3.511 1.474-4.747 3.784-.846 1.576-.47 2.909-.989 3.014z" class="cls-2" transform="translate(-2678.556 -2251.534)"/>
                        <g id="Group_915" clip-path="url(#clip-path-4)">
                            <path id="Path_3330" d="M2745.2 2253.048l-.042-.045a12.369 12.369 0 0 0 3.891-6.472 13.146 13.146 0 0 0 .2-3.345c-.043-1.246-.078-2.23.7-2.956a3.634 3.634 0 0 1 2.813-.646 4.212 4.212 0 0 0 3.339-.858 4.768 4.768 0 0 0 1.286-2.853 6.535 6.535 0 0 0-1.124-4.567l.051-.035a6.6 6.6 0 0 1 1.134 4.612 4.826 4.826 0 0 1-1.3 2.889 4.264 4.264 0 0 1-3.383.874 3.585 3.585 0 0 0-2.769.629c-.759.707-.727 1.63-.682 2.908a13.206 13.206 0 0 1-.2 3.36 12.435 12.435 0 0 1-3.914 6.505z" class="cls-24" transform="translate(-2742.782 -2231.991)"/>
                            <path id="Path_3331" d="M3005.714 2315.762a.7.7 0 0 1-.389-.271c-.187-.29-.011-.64.192-1.045a2.725 2.725 0 0 0 .4-1.508 3.424 3.424 0 0 0-1.9-2.336l.033-.052a3.482 3.482 0 0 1 1.927 2.382 2.808 2.808 0 0 1-.411 1.542c-.2.4-.362.723-.194.984.325.505 1.54.292 2.124.19a8.188 8.188 0 0 0 3.785-1.789l.04.047a8.249 8.249 0 0 1-3.814 1.8 4.341 4.341 0 0 1-1.793.056z" class="cls-24" transform="translate(-2992.434 -2308.448)"/>
                            <path id="Path_3332" d="M2843.764 2383.593l-.014-.018a2.446 2.446 0 0 1-.584-1.318 3.6 3.6 0 0 1 .971-2.379c.458-.629.854-1.173.666-1.7a1.354 1.354 0 0 0-.845-.724l.023-.057a1.409 1.409 0 0 1 .879.76c.2.558-.205 1.115-.674 1.758a3.543 3.543 0 0 0-.959 2.337 2.376 2.376 0 0 0 .555 1.267 5.091 5.091 0 0 1 1.831-.364 5.688 5.688 0 0 1 3.851 1.6l-.042.044a5.629 5.629 0 0 0-3.808-1.583 5.031 5.031 0 0 0-1.83.369z" class="cls-24" transform="translate(-2837.296 -2372.915)"/>
                            <path id="Path_3333" d="M2685.036 2574.518l-.011-.01c-.053-.052-5.3-5.263-5.54-5.427l.035-.051c.24.165 5.2 5.091 5.538 5.423l8.13-1.008.008.061z" class="cls-24" transform="translate(-2679.452 -2557.726)"/>
                        </g>
                    </g>
                </g>
                <g id="Group_920" transform="translate(0 15.072)">
                    <g id="Group_919">
                        <path id="Path_3335" d="M2598.376 2685.328a6.945 6.945 0 0 1-1.767-.932 3.855 3.855 0 0 1-1.651-1.848c-.3-.962.3-1.264 0-2.145-.342-1-1.249-.9-1.6-1.939a3.107 3.107 0 0 1 .148-1.969c.219-.711.716-1.732 1.04-1.666.384.079-.132 1.551.743 2.566.662.769 1.432.475 2.088 1.372a2.351 2.351 0 0 1 .475 1.608c-.132.993-.924 1.256-1.112 2.078-.14.588.079 1.49 1.636 2.875z" class="cls-3" transform="translate(-2593.243 -2674.827)"/>
                        <g id="Group_918" clip-path="url(#clip-path-5)">
                            <path id="Path_3336" d="M2619.054 2673.579c-.141-.135-.33-.3-.529-.466-.875-.747-2.073-1.77-1.942-2.739.07-.51.157-.906.227-1.226a2.287 2.287 0 0 0 .028-1.469 2.129 2.129 0 0 0-1.065-1.071 2.522 2.522 0 0 1-1.06-.966c-.437-.8-.312-1.935.368-3.361l.056.027c-.672 1.406-.8 2.518-.369 3.3a2.476 2.476 0 0 0 1.037.943 2.2 2.2 0 0 1 1.09 1.1 2.329 2.329 0 0 1-.024 1.5c-.07.318-.157.713-.226 1.22-.127.935 1.056 1.946 1.92 2.684.2.171.389.333.531.469z" class="cls-26" transform="translate(-2613.702 -2662.729)"/>
                            <path id="Path_3337" d="M2589.15 2706.768a2.281 2.281 0 0 1-.824-.47 2.644 2.644 0 0 1-.74-2.281l.061.011a2.577 2.577 0 0 0 .72 2.224 2.33 2.33 0 0 0 1.4.571 1.51 1.51 0 0 1-.423-1.194 1.463 1.463 0 0 1 .511-.925l.04.047a1.4 1.4 0 0 0-.489.885 1.465 1.465 0 0 0 .462 1.2l.062.057h-.084a2.514 2.514 0 0 1-.696-.125z" class="cls-26" transform="translate(-2587.759 -2702.978)"/>
                            <path id="Path_3338" d="M2598.451 2765.652l-.011-.038a2.173 2.173 0 0 0-.735-1.115 2.527 2.527 0 0 0-2.335-.254l-.023-.057a2.591 2.591 0 0 1 2.4.263 2.229 2.229 0 0 1 .745 1.109 1.945 1.945 0 0 0 .885-1.181 2 2 0 0 0-.478-1.75l.045-.042a2.063 2.063 0 0 1 .492 1.807 2.011 2.011 0 0 1-.948 1.24z" class="cls-26" transform="translate(-2595.272 -2759.461)"/>
                            <path id="Path_3339" d="M2622.971 2848.092l-.017-.046a2.8 2.8 0 0 0-1.89-1.75l.017-.06a2.867 2.867 0 0 1 1.914 1.742l1.844-1.889.044.043z" class="cls-26" transform="translate(-2620.074 -2839.991)"/>
                        </g>
                    </g>
                </g>
                <g id="Group_923" transform="translate(.956 1.529)">
                    <g id="Group_922">
                        <path id="Path_3341" d="M2623.118 2294.489c-.461.215.336 1.448-.007 3.472-.546 3.217-3.22 4.017-2.992 6.522a5.626 5.626 0 0 0 .71 2.281c.193.306.339.449 1.009 1.355.062.084.662.9.809 1.121.993 1.523-1.028 3.755-.415 5.937a6.007 6.007 0 0 0 2.451 3.175c-1.714-2.694-1.695-4.421-1.317-5.521.524-1.527 1.712-1.777 2.346-3.7.443-1.342.03-1.726.041-4.194.017-3.817 1.01-4.23.506-6.325-.592-2.458-2.566-4.391-3.141-4.123z" class="cls-4" transform="translate(-2620.105 -2294.464)"/>
                        <g id="Group_921" clip-path="url(#clip-path-6)">
                            <path id="Path_3342" d="M2686.566 2301.031a6.832 6.832 0 0 1-.118-3.541 5.523 5.523 0 0 1 .833-1.827 4.208 4.208 0 0 0 .711-1.622 3.271 3.271 0 0 0-.42-2.307 5.242 5.242 0 0 1 .232-5.451 5.159 5.159 0 0 0 .837-2.726 7.054 7.054 0 0 0-2.55-4.851l.042-.045c1.688 1.629 2.553 3.276 2.569 4.895a5.277 5.277 0 0 1-.844 2.756 5.185 5.185 0 0 0-.23 5.4 3.327 3.327 0 0 1 .425 2.345 4.279 4.279 0 0 1-.72 1.643 5.471 5.471 0 0 0-.826 1.808 6.779 6.779 0 0 0 .117 3.509z" class="cls-24" transform="translate(-2683.742 -2279.226)"/>
                            <path id="Path_3343" d="M2671.788 2370.98v-.05a3.192 3.192 0 0 0-2.769-3.269l.008-.061a3.252 3.252 0 0 1 2.823 3.281 3.278 3.278 0 0 0 1.221-1.025 3.442 3.442 0 0 0 .554-2.536l.061-.01a3.5 3.5 0 0 1-.565 2.582 3.339 3.339 0 0 1-1.289 1.066z" class="cls-24" transform="translate(-2667.279 -2364.717)"/>
                            <path id="Path_3344" d="M2634.066 2496.345l-.031-.014a2.339 2.339 0 0 1-1.492-2.2 4.407 4.407 0 0 0-.139-.838 3.841 3.841 0 0 0-1.65-2.035l.035-.051a3.9 3.9 0 0 1 1.675 2.069 4.512 4.512 0 0 1 .142.85 2.274 2.274 0 0 0 1.424 2.133 9.58 9.58 0 0 1 2.564-4.048l.043.045a9.509 9.509 0 0 0-2.558 4.055z" class="cls-24" transform="translate(-2630.374 -2484.203)"/>
                            <path id="Path_3345" d="M2639.989 2621.894l-.011-.053a2.606 2.606 0 0 0-1.1-1.627 2.677 2.677 0 0 0-2.351-.2l-.023-.057a2.742 2.742 0 0 1 2.408.2 2.665 2.665 0 0 1 1.115 1.614 6.157 6.157 0 0 0 1.077-1.3 6.291 6.291 0 0 0 .887-2.622l.061.007a6.345 6.345 0 0 1-.9 2.647 6.217 6.217 0 0 1-1.127 1.353z" class="cls-24" transform="translate(-2635.92 -2606.337)"/>
                        </g>
                    </g>
                </g>
                <g id="Group_926" transform="translate(3.353 11.941)">
                    <path id="Path_3347" fill="url(#linear-gradient-14)" d="M2689.8 2600.658a4.644 4.644 0 0 1-1.984-1.875 4.191 4.191 0 0 1 1.233-4.975c1.561-1.268 2.819-.15 4.292-1.345 1.673-1.356.588-3.235 2.327-4.642a6.078 6.078 0 0 1 4.086-.911c1.635.024 4.163.45 4.346 1.186.217.873-3.234.685-4.417 3.192-.9 1.9.441 3.364-.721 5.328a4.109 4.109 0 0 1-2.759 2.021c-2.256.358-3.862-1.682-5.241-1.085-.562.243-1.156.948-1.162 3.106z" transform="translate(-2687.427 -2586.904)"/>
                    <g id="Group_925">
                        <g id="Group_924" clip-path="url(#clip-path-7)">
                            <path id="Path_3348" d="M2723.542 2618.26c-1.056-2.342-1.219-4.028-.484-5.013.585-.785 1.491-.849 2.539-.922a5.46 5.46 0 0 0 3.358-1.053 4.6 4.6 0 0 0 1.507-2.74 5.057 5.057 0 0 1 1.343-2.643c1.378-1.311 3.69-1.7 6.873-1.154l-.01.061c-3.162-.542-5.457-.16-6.819 1.137a5.009 5.009 0 0 0-1.327 2.614 4.717 4.717 0 0 1-1.527 2.771 5.517 5.517 0 0 1-3.394 1.068c-1.033.072-1.925.135-2.494.9-.72.966-.555 2.631.491 4.951z" class="cls-30" transform="translate(-2721.354 -2603.871)"/>
                            <path id="Path_3349" d="M2906.917 2585.528a.483.483 0 0 1-.075-.031c-.424-.22-.416-1-.408-1.748a6.62 6.62 0 0 1 .54-2.548 7.156 7.156 0 0 1 2.382-2.893l.036.05a7.089 7.089 0 0 0-2.362 2.868 6.565 6.565 0 0 0-.535 2.523c-.006.733-.015 1.49.375 1.692.615.32 1.884-.9 2.361-1.361l.037-.036a6.714 6.714 0 0 0 .721-.835 3.1 3.1 0 0 1 .917-.9 3.478 3.478 0 0 1 2.428-.327l-.01.061a3.415 3.415 0 0 0-2.385.319 3.044 3.044 0 0 0-.9.886 6.746 6.746 0 0 1-.727.842l-.037.035c-.469.45-1.684 1.621-2.358 1.403z" class="cls-30" transform="translate(-2898.634 -2578.614)"/>
                            <path id="Path_3350" d="M2825.9 2572.6a6.262 6.262 0 0 1-2.335-1.714l-.027-.028.033-.02a3.6 3.6 0 0 0 1.3-1.265 4.211 4.211 0 0 0 .485-1.881l.006-.061a21 21 0 0 1 .538-3.8 4.772 4.772 0 0 1 2.293-2.308l.03.055a4.713 4.713 0 0 0-2.265 2.277 21.139 21.139 0 0 0-.535 3.779l-.006.061a4.255 4.255 0 0 1-.494 1.906 3.649 3.649 0 0 1-1.287 1.267c1.331 1.382 2.412 1.957 3.215 1.709a1.955 1.955 0 0 0 .975-.9 3.866 3.866 0 0 1 1.207-1.234 4.187 4.187 0 0 1 2.913-.419l-.01.061a4.123 4.123 0 0 0-2.871.412 3.819 3.819 0 0 0-1.187 1.216 2 2 0 0 1-1.007.921 1.585 1.585 0 0 1-.971-.034z" class="cls-30" transform="translate(-2818.695 -2562.432)"/>
                            <path id="Path_3351" d="M2736.065 2760.594a5.353 5.353 0 0 1-2.451-1.67c-.048-.065-.1-.135-.147-.207a2.02 2.02 0 0 0-1.091-.946 1.607 1.607 0 0 0-.942.06l-.04.014v-.043a1.755 1.755 0 0 1 .278-1.019 1.79 1.79 0 0 1 .909-.62c.321-.128.6-.239.7-.536a1.754 1.754 0 0 0-.207-1.434l.052-.033a1.818 1.818 0 0 1 .212 1.487c-.107.324-.41.445-.731.573a1.747 1.747 0 0 0-.881.6 1.669 1.669 0 0 0-.266.941 1.651 1.651 0 0 1 .936-.048 2.067 2.067 0 0 1 1.126.97c.049.072.1.14.145.205a5.279 5.279 0 0 0 2.739 1.739c1.7.426 3.4-.828 4.051-1.386l.04.047c-.658.565-2.376 1.832-4.106 1.4-.114-.029-.222-.06-.326-.094z" transform="translate(-2729.828 -2748.206)" style="isolation:isolate;mix-blend-mode:soft-light" fill="#fff"/>
                        </g>
                    </g>
                </g>
            </g>
        </g>
        <g id="Group_931" transform="translate(482.481 525.688)">
            <path id="Path_3353" fill="url(#linear-gradient-15)" d="M700.864 2782.605l20.062-5.018 1 4.874-18.366 8.477-14.542-3.592-8.773-8.614z" transform="translate(-675.023 -2755.848)"/>
            <path id="Path_3354" fill="url(#linear-gradient-16)" d="M700.864 2782.605l20.062-5.018 1 4.874-18.366 8.477-14.542-3.592-8.773-8.614z" transform="translate(-675.023 -2755.848)"/>
            <path id="Path_3355" d="M1241.541 2755.1a54.458 54.458 0 0 0 8.931-5.96c3.933-3.239 5.737-5.681 9.719-6.646.711-.172 4.766-1.155 6.074.645 1.448 1.993-1.368 6.161-1.71 6.668-5.087 7.53-18.041 7.178-22.1 6.934z" class="cls-34" transform="translate(-1216.332 -2721.596)"/>
            <path id="Path_3356" d="M1277.562 2746.307a2.666 2.666 0 0 0-1.7-.95 3.228 3.228 0 0 1-.037 2.223c-.8 1.805-3.149 1.249-4.8 3.368-1.624 2.081-.5 4.087-1.935 4.945-1.645.984-3.685-1.315-5.447-.215-1.2.747-.825 2.165-2.222 2.938-.965.533-1.911.281-3.01.143a15.535 15.535 0 0 0-5.153.26l.493.889c4.063.244 17.017.6 22.1-6.934.343-.506 3.16-4.674 1.711-6.667z" transform="translate(-1227.628 -2724.765)" style="mix-blend-mode:multiply;isolation:isolate" fill="url(#linear-gradient-18)" opacity="0.3"/>
            <path id="Path_3357" fill="url(#linear-gradient-19)" d="M1324.517 3131.711a2.064 2.064 0 0 1 1.791-.167c1.06.357 2.744.645 2.741 1.164s-1.687.843-2.851.629c-1.113-.204-1.989-1.172-1.681-1.626z" transform="translate(-1296.293 -3097.082)"/>
            <path id="Path_3358" fill="url(#linear-gradient-20)" d="M1294.138 3114.753l1.951.628a.675.675 0 0 1-.111.863c-.428.334-1.914-.374-1.914-.374z" transform="translate(-1266.984 -3081.009)"/>
            <path id="Path_3359" fill="url(#linear-gradient-21)" d="M533.547 2777.006c-.576 3.354 6.663 6.983 8.321 7.813 3.378 1.693 9.733 4.083 19.165 3.17l.376-2.258a44.794 44.794 0 0 1-5.235-2.175c-3.657-1.8-5.045-3.083-10.12-6.152-5.615-3.394-7.251-3.83-8.924-3.41-1.43.361-3.315 1.453-3.583 3.012z" transform="translate(-533.515 -2752.257)"/>
            <path id="Path_3360" fill="url(#linear-gradient-22)" d="M736.719 2264.563a12.917 12.917 0 0 1 5.053-13.277 14.8 14.8 0 0 1 8.816-2.15c1.391.052 1.247.233 5.624 1.043 6.077 1.124 6.638.852 8.406 1.7a12.16 12.16 0 0 1 5.239 5.05c1.545 2.882 2.8 8.24-.132 10.861a6.94 6.94 0 0 1-5.322 1.344l-.269-1.774a5.425 5.425 0 0 0 2.043-3.709 5.525 5.525 0 0 0-1.774-4.408 17.448 17.448 0 0 0-1.358 12.589 20.839 20.839 0 0 1-7.726 2.462 11.5 11.5 0 0 1-7.9-1.877c-2.913-2.277-3.159-7.3-.282-13.467a7.754 7.754 0 0 0-3.212 4 11.961 11.961 0 0 0-.322 3.225c-.12 4.169-5.616 2.974-6.884-1.612z" transform="translate(-729.143 -2246.192)"/>
            <path id="Path_3361" d="M972.194 2455.965c-1.466.18-1.865 1.7-3.225 1.613-2.96-.193-5.335-5.317-4.085-8.116.815-1.825 2.94-2.143 2.8-3.333-.116-.952-1.591-1.685-2.8-1.72-1.875-.056-3.113 1.577-3.548 2.15a6.452 6.452 0 0 0-1.257 3.755 8.278 8.278 0 0 1 2.8-3.027c-2.877 6.171-2.631 11.076.282 13.353a11.565 11.565 0 0 0 7.9 1.991 20.7 20.7 0 0 0 6.708-1.937c-1.569-2.561-3.569-4.975-5.575-4.729z" transform="translate(-944.891 -2434.531)" style="mix-blend-mode:multiply;isolation:isolate" fill="url(#linear-gradient-23)" opacity="0.3"/>
            <path id="Path_3362" d="M979.221 2879.35l-17.153-.255 4.561 2.2 12.636-.827z" class="cls-34" transform="translate(-946.809 -2853.742)"/>
            <path id="Path_3363" fill="url(#linear-gradient-25)" d="M751.649 2583.619c1.324-1.253 4.571-.464 5.782 1.337.892 1.325.154 2.416.806 4.085.8 2.046 3.815 3.894 5.668 4.51-.29.625-.2.787-.495 1.411-1.179-.147-9.7-1.452-11.785-6.512-.108-.264-1.396-3.487.024-4.831z" transform="translate(-743.244 -2568.198)"/>
            <path id="Path_3364" d="M1159.2 2229.17a5.834 5.834 0 0 1-2.538 1.656c-1.152.156-2.816-.15-3.1 0s1.446.767 2.821 1.144 3.87 1.13 4.56.965-.754-1.049-1.326-1.284.247-1.439.247-1.439z" class="cls-42" transform="translate(-1131.453 -2226.958)"/>
            <g id="Group_929" transform="translate(26.715)">
                <path id="Path_3365" fill="url(#linear-gradient-26)" d="M1295.164 2170.106a1.4 1.4 0 0 0 .954-1.285 1.518 1.518 0 0 0-.568-1.05 2.3 2.3 0 0 0-2.444-.576c-.456.232-.665 1.283-.711 1.465a1.412 1.412 0 0 0 .05.556c.031.282.076.728.141 1.465a3.524 3.524 0 0 1 .5-.338 3.084 3.084 0 0 1 .731-.29c.683-.153.871.184 1.347.053z" transform="translate(-1292.072 -2167.034)"/>
                <path id="Path_3366" d="M1284.046 2212.178a1.893 1.893 0 0 0 .806 1.683c.826.555 2.3-1.12 2.086-1.882a1.253 1.253 0 0 0-.7-.7c-.2-.079-.3-.054-.62-.189-.293-.125-.341-.205-.463-.2-.152.007-.366.145-.609.78a.54.54 0 0 0-.342-.5.338.338 0 0 0-.183.021c-.265.116-.279.515.025.987z" class="cls-42" transform="translate(-1283.82 -2209.33)"/>
                <path id="Path_3367" fill="url(#linear-gradient-27)" d="M1290.708 2206.065c.016.057-.209.11-.372.3a1.215 1.215 0 0 0 .089 1.494c.219.206.395.114.819.374a2.265 2.265 0 0 1 .547.474 1.2 1.2 0 0 1-1.085.835 1.246 1.246 0 0 1-.886-.635 1.422 1.422 0 0 1-.28-.969c.067-.483.411-.541.366-.937a2.3 2.3 0 0 1-.1-.693 1.333 1.333 0 0 1 .035-.21c.368-.055.843-.116.867-.033z" transform="translate(-1289.326 -2204.636)"/>
                <path id="Path_3368" fill="url(#linear-gradient-28)" d="M1326.323 2271.6a1.212 1.212 0 0 1-.519-.285c-.014-.012-.032-.019-.04-.014-.028.023.064.292.275.377.15.06.335.017.342-.025.002-.016-.027-.036-.058-.053z" transform="translate(-1324.265 -2267.588)"/>
            </g>
            <g id="Group_930" transform="translate(19.906 15.657)">
                <path id="Path_3369" d="M1093.789 2607.841l-1.209 11.009a1.039 1.039 0 0 0 .872.928l17.737-1.089a.621.621 0 0 0 .584-.516l2.226-10.632c.067-.387-.629-.786-1.021-.776l-18.588.523a.621.621 0 0 0-.601.553z" class="cls-46" transform="translate(-1092.577 -2606.764)"/>
                <path id="Path_3370" d="M1105.135 2616.857l-1.209 11.009a.622.622 0 0 0 .647.689l17.962-.851a.621.621 0 0 0 .583-.516l1.835-10.681a.622.622 0 0 0-.631-.727l-18.588.522a.622.622 0 0 0-.599.555z" class="cls-46" transform="translate(-1103.519 -2615.459)"/>
            </g>
            <path id="Path_3371" d="M1115.682 2638.262c-1.569-.665-1.015-1.932-2.867-3.512-2.443-2.083-4.934-1.18-5.806-2.8a3 3 0 0 1 .072-2.552l-1.346.038a.622.622 0 0 0-.6.554l-1.21 11.01a.622.622 0 0 0 .647.689l17.962-.85a.622.622 0 0 0 .583-.516l.253-1.474a6.77 6.77 0 0 0-1.956-.733c-2.634-.532-3.927.911-5.732.146z" transform="translate(-1083.612 -2612.939)" style="mix-blend-mode:multiply;isolation:isolate" fill="url(#linear-gradient-29)" opacity="0.3"/>
            <path id="Path_3372" d="M1084.813 2865.762c.75.7 1.252.64 1.42.6.282-.065.32-.222 1.036-.783.64-.5.842-.557.834-.73-.014-.327-.76-.613-1.367-.644a2.639 2.639 0 0 0-1.747.618z" class="cls-42" transform="translate(-1065.184 -2839.38)"/>
        </g>
    </g>
</svg>
