<svg id="Layer_1" data-name="Layer 1" xmlns="http://www.w3.org/2000/svg" xmlns:xlink="http://www.w3.org/1999/xlink" viewBox="0 0 48 48"><defs><style>.cls-1{fill:none;}.cls-2{fill:#606060;}.cls-3{clip-path:url(#clip-path);}.cls-4{fill:url(#linear-gradient);}.cls-5{clip-path:url(#clip-path-2);}.cls-6{fill:url(#linear-gradient-2);}.cls-7{clip-path:url(#clip-path-3);}.cls-8{fill:url(#linear-gradient-3);}.cls-9{clip-path:url(#clip-path-4);}.cls-10{fill:url(#linear-gradient-4);}</style><clipPath id="clip-path"><polygon class="cls-1" points="38.35 24.33 24.24 38.44 34.15 48.34 34.15 48.34 48.27 34.23 48.27 34.23 48.27 14.42 38.35 24.33"/></clipPath><linearGradient id="linear-gradient" x1="4368.95" y1="4085.45" x2="4368.98" y2="4085.45" gradientTransform="matrix(874.62, -0.27, -0.27, -874.62, -3820051.81, 3574419.18)" gradientUnits="userSpaceOnUse"><stop offset="0" stop-color="#1b488c"/><stop offset="0.08" stop-color="#20579a"/><stop offset="0.2" stop-color="#2669ac"/><stop offset="0.36" stop-color="#2b75b9"/><stop offset="0.56" stop-color="#2d7dc0"/><stop offset="1" stop-color="#2e7fc2"/></linearGradient><clipPath id="clip-path-2"><polygon class="cls-1" points="24.24 38.44 10.15 24.35 0.27 34.23 0.27 34.29 14.32 48.34 14.33 48.34 34.15 48.34 24.24 38.44"/></clipPath><linearGradient id="linear-gradient-2" x1="4367" y1="4076.14" x2="4367.03" y2="4076.14" gradientTransform="matrix(-0.38, 1233.29, 1233.29, 0.38, -5025398.95, -5387312.24)" gradientUnits="userSpaceOnUse"><stop offset="0" stop-color="#1b488c"/><stop offset="0.03" stop-color="#1b488c"/><stop offset="0.1" stop-color="#215a9d"/><stop offset="0.2" stop-color="#276bae"/><stop offset="0.33" stop-color="#2b76b9"/><stop offset="0.51" stop-color="#2d7dc0"/><stop offset="1" stop-color="#2e7fc2"/></linearGradient><clipPath id="clip-path-3"><polygon class="cls-1" points="34.21 0.37 34.15 0.37 14.38 0.37 24.27 10.24 38.35 24.33 48.27 14.42 48.27 14.42 34.21 0.37"/></clipPath><linearGradient id="linear-gradient-3" x1="4367.34" y1="4075.26" x2="4367.37" y2="4075.26" gradientTransform="matrix(-0.38, 1233.29, 1233.29, 0.38, -5024304.75, -5387756.8)" gradientUnits="userSpaceOnUse"><stop offset="0" stop-color="#2e7fc2"/><stop offset="0.44" stop-color="#2d7dc0"/><stop offset="0.64" stop-color="#2b75b9"/><stop offset="0.8" stop-color="#2669ac"/><stop offset="0.92" stop-color="#20579a"/><stop offset="1" stop-color="#1b488c"/></linearGradient><clipPath id="clip-path-4"><polygon class="cls-1" points="14.38 0.37 14.32 0.37 0.27 14.42 0.27 14.48 0.27 34.23 10.15 24.35 24.27 10.24 14.38 0.37"/></clipPath><linearGradient id="linear-gradient-4" x1="4369.14" y1="4084.07" x2="4369.17" y2="4084.07" gradientTransform="matrix(873.59, -0.27, -0.27, -873.59, -3815729.89, 3568982.34)" xlink:href="#linear-gradient-3"/></defs><title>favicon-48</title><polygon class="cls-2" points="24.26 24.34 24.27 24.34 24.27 24.34 24.26 24.34"/><g class="cls-3"><rect class="cls-4" x="15.71" y="10.95" width="41.08" height="40.86" transform="translate(-11.51 35.57) rotate(-45.89)"/></g><g class="cls-5"><rect class="cls-6" x="-3.3" y="15.94" width="41.02" height="40.81" transform="translate(-20.46 22.26) rotate(-44.16)"/></g><polygon class="cls-2" points="14.35 0.34 14.32 0.37 14.38 0.37 14.35 0.34"/><g class="cls-7"><rect class="cls-8" x="10.9" y="-8.12" width="40.85" height="40.94" transform="translate(0.53 25.96) rotate(-45.37)"/></g><g class="cls-9"><rect class="cls-10" x="-8.24" y="-3.1" width="41.02" height="40.8" transform="translate(-8.69 14.06) rotate(-45.88)"/></g></svg>