<svg id="Layer_1" data-name="Layer 1" xmlns="http://www.w3.org/2000/svg" xmlns:xlink="http://www.w3.org/1999/xlink" viewBox="0 0 32 32"><defs><style>.cls-1{fill:none;}.cls-2{fill:#606060;}.cls-3{clip-path:url(#clip-path);}.cls-4{fill:url(#linear-gradient);}.cls-5{clip-path:url(#clip-path-2);}.cls-6{fill:url(#linear-gradient-2);}.cls-7{clip-path:url(#clip-path-3);}.cls-8{fill:url(#linear-gradient-3);}.cls-9{clip-path:url(#clip-path-4);}.cls-10{fill:url(#linear-gradient-4);}</style><clipPath id="clip-path"><polygon class="cls-1" points="25.66 16.33 16.25 25.74 22.85 32.34 22.86 32.34 32.27 22.93 32.27 22.93 32.27 9.73 25.66 16.33"/></clipPath><linearGradient id="linear-gradient" x1="4269.53" y1="4077.88" x2="4269.54" y2="4077.88" gradientTransform="matrix(874.62, -0.27, -0.27, -874.62, -3733104.04, 3567761.64)" gradientUnits="userSpaceOnUse"><stop offset="0" stop-color="#1b488c"/><stop offset="0.08" stop-color="#20579a"/><stop offset="0.2" stop-color="#2669ac"/><stop offset="0.36" stop-color="#2b75b9"/><stop offset="0.56" stop-color="#2d7dc0"/><stop offset="1" stop-color="#2e7fc2"/></linearGradient><clipPath id="clip-path-2"><polygon class="cls-1" points="16.25 25.74 6.85 16.35 0.27 22.93 0.27 22.97 9.64 32.34 9.64 32.34 22.85 32.34 16.25 25.74"/></clipPath><linearGradient id="linear-gradient-2" x1="4267.56" y1="4068.69" x2="4267.58" y2="4068.69" gradientTransform="matrix(-0.38, 1233.29, 1233.29, 0.38, -5016263.01, -5264670.94)" gradientUnits="userSpaceOnUse"><stop offset="0" stop-color="#1b488c"/><stop offset="0.03" stop-color="#1b488c"/><stop offset="0.1" stop-color="#215a9d"/><stop offset="0.2" stop-color="#276bae"/><stop offset="0.33" stop-color="#2b76b9"/><stop offset="0.51" stop-color="#2d7dc0"/><stop offset="1" stop-color="#2e7fc2"/></linearGradient><clipPath id="clip-path-3"><polygon class="cls-1" points="22.89 0.36 22.85 0.36 9.68 0.36 16.27 6.94 25.66 16.33 32.27 9.73 32.27 9.73 22.89 0.36"/></clipPath><linearGradient id="linear-gradient-3" x1="4267.9" y1="4067.81" x2="4267.92" y2="4067.81" gradientTransform="matrix(-0.38, 1233.29, 1233.29, 0.38, -5015163.19, -5265111.24)" gradientUnits="userSpaceOnUse"><stop offset="0" stop-color="#2e7fc2"/><stop offset="0.44" stop-color="#2d7dc0"/><stop offset="0.64" stop-color="#2b75b9"/><stop offset="0.8" stop-color="#2669ac"/><stop offset="0.92" stop-color="#20579a"/><stop offset="1" stop-color="#1b488c"/></linearGradient><clipPath id="clip-path-4"><polygon class="cls-1" points="9.68 0.36 9.64 0.36 0.27 9.73 0.27 9.77 0.27 22.93 6.85 16.35 16.27 6.94 9.68 0.36"/></clipPath><linearGradient id="linear-gradient-4" x1="4269.72" y1="4076.49" x2="4269.74" y2="4076.49" gradientTransform="matrix(873.59, -0.27, -0.27, -873.59, -3728879.13, 3562328.27)" xlink:href="#linear-gradient-3"/></defs><title>favicon-32</title><polygon class="cls-2" points="16.27 16.34 16.27 16.34 16.27 16.34 16.27 16.34"/><g class="cls-3"><rect class="cls-4" x="10.56" y="7.41" width="27.39" height="27.24" transform="translate(-7.73 23.81) rotate(-45.89)"/></g><g class="cls-5"><rect class="cls-6" x="-2.11" y="10.74" width="27.34" height="27.2" transform="translate(-13.69 14.93) rotate(-44.16)"/></g><polygon class="cls-2" points="9.66 0.34 9.64 0.36 9.68 0.36 9.66 0.34"/><g class="cls-7"><rect class="cls-8" x="7.35" y="-5.3" width="27.24" height="27.29" transform="translate(0.3 17.41) rotate(-45.37)"/></g><g class="cls-9"><rect class="cls-10" x="-5.41" y="-1.95" width="27.35" height="27.2" transform="translate(-5.85 9.47) rotate(-45.88)"/></g></svg>